SplineFontDB: 3.0
FontName: Poly-Italic
FullName: Poly Italic
FamilyName: Poly
Weight: Regular
Copyright: Copyright (c) 2010 by Jos Nicols Silva Schwarzenberg.<info@nsilva.com>, with Reserved Font Names "Poly".
Version: 001.003
ItalicAngle: -10
UnderlinePosition: -50
UnderlineWidth: 50
Ascent: 800
Descent: 200
sfntRevision: 0x000100c5
LayerCount: 2
Layer: 0 1 "Back"  1
Layer: 1 1 "Fore"  0
NeedsXUIDChange: 1
XUID: [1021 288 713564382 7507848]
FSType: 0
OS2Version: 2
OS2_WeightWidthSlopeOnly: 0
OS2_UseTypoMetrics: 1
CreationTime: 1319446108
ModificationTime: 1319472466
PfmFamily: 17
TTFWeight: 400
TTFWidth: 5
LineGap: 0
VLineGap: 0
Panose: 2 4 0 0 0 0 0 0 0 0
OS2TypoAscent: 964
OS2TypoAOffset: 0
OS2TypoDescent: -224
OS2TypoDOffset: 0
OS2TypoLinegap: 0
OS2WinAscent: 964
OS2WinAOffset: 0
OS2WinDescent: 224
OS2WinDOffset: 0
HheadAscent: 964
HheadAOffset: 0
HheadDescent: -224
HheadDOffset: 0
OS2SubXSize: 700
OS2SubYSize: 650
OS2SubXOff: 0
OS2SubYOff: -163
OS2SupXSize: 700
OS2SupYSize: 650
OS2SupXOff: 0
OS2SupYOff: 435
OS2StrikeYSize: 50
OS2StrikeYPos: 250
OS2Vendor: 'pyrs'
OS2CodePages: 20000093.00000000
OS2UnicodeRanges: a00000ef.4000206a.00000000.00000000
Lookup: 1 0 0 "'aalt' Access All Alternates in Latin lookup 0"  {"'aalt' Access All Alternates in Latin lookup 0 subtable"  } ['aalt' ('latn' <'dflt' > ) ]
Lookup: 3 0 0 "'aalt' Access All Alternates in Latin lookup 1"  {"'aalt' Access All Alternates in Latin lookup 1 subtable"  } ['aalt' ('latn' <'dflt' > ) ]
Lookup: 4 0 1 "'liga' Standard Ligatures in Latin lookup 2"  {"'liga' Standard Ligatures in Latin lookup 2 subtable"  } ['liga' ('latn' <'dflt' > ) ]
Lookup: 1 0 0 "'zero' Slashed Zero in Latin lookup 3"  {"'zero' Slashed Zero in Latin lookup 3 subtable"  } ['locl' ('latn' <'ROM ' > ) 'zero' ('latn' <'dflt' > ) ]
Lookup: 1 0 0 "'locl' Localized Forms in Latin lookup 4"  {"'locl' Localized Forms in Latin lookup 4 subtable"  } ['locl' ('latn' <'ROM ' > ) ]

StartChar: .notdef
Encoding: 65536 -1 0
Width: 520
Flags: HMW
HStem: 0 46<79 441 79 490> 633 46<79 441 79 79>
VStem: 30 49<46 633 46 679 46 679> 441 49<46 633 633 633>
LayerCount: 2
Fore
SplineSet
490 0 m 1,0,-1
 30 0 l 1,1,-1
 30 679 l 1,2,-1
 490 679 l 1,3,-1
 490 0 l 1,0,-1
441 46 m 1,4,-1
 441 633 l 1,5,-1
 79 633 l 1,6,-1
 79 46 l 1,7,-1
 441 46 l 1,4,-1
EndSplineSet
EndChar

StartChar: AE
Encoding: 198 198 1
Width: 947
Flags: HMW
HStem: 0 51<551 551 551 862> 224 53<296 484 255 494> 320 53<608 755 598 758> 640 52
VStem: 775 37<237 243> 881 59<530 537>
LayerCount: 2
Fore
SplineSet
904 179 m 1,0,1
 894.610687023 99.1908396947 894.610687023 99.1908396947 862 0 c 1,2,-1
 375 0 l 1,3,-1
 376 39 l 1,4,5
 430 48 430 48 443.5 59 c 128,-1,6
 457 70 457 70 463 101 c 2,7,-1
 484 224 l 1,8,-1
 255 224 l 1,9,-1
 157 102 l 2,10,11
 134 73 134 73 134 63.5 c 128,-1,12
 134 54 134 54 150 50 c 2,13,-1
 187 39 l 1,14,-1
 182 0 l 1,15,-1
 -14 0 l 1,16,-1
 -14 40 l 1,17,18
 25 49 25 49 36 55.5 c 128,-1,19
 47 62 47 62 63 82 c 2,20,-1
 469 592 l 2,21,22
 479 606 479 606 479 616 c 0,23,24
 479 641 479 641 414 654 c 1,25,-1
 420 693 l 1,26,-1
 963 693 l 1,27,28
 963 642.142857143 963 642.142857143 940 537 c 1,29,-1
 881 530 l 1,30,31
 880 599 880 599 877 616.5 c 128,-1,32
 874 634 874 634 866 635 c 0,33,34
 842 638 842 638 806 639 c 2,35,-1
 655 642 l 1,36,-1
 608 373 l 1,37,-1
 758 373 l 2,38,39
 766.21875 373 766.21875 373 777.109375 393.5 c 128,-1,40
 788 414 788 414 802 444 c 1,41,-1
 833 441 l 1,42,43
 816 347 816 347 812 243 c 1,44,-1
 775 237 l 1,45,46
 769 292 769 292 765.5 306 c 128,-1,47
 762 320 762 320 755 320 c 2,48,-1
 598 320 l 1,49,-1
 551 51 l 1,50,-1
 640 52 l 1,51,52
 741.082474227 54.7319587629 741.082474227 54.7319587629 758.041237113 58.3659793814 c 128,-1,53
 775 62 775 62 785 66 c 1,54,55
 803 71 803 71 849 184 c 1,56,-1
 904 179 l 1,0,1
494 277 m 1,57,-1
 548 587 l 1,58,-1
 539 587 l 1,59,-1
 296 277 l 1,60,-1
 494 277 l 1,57,-1
EndSplineSet
Position2: "'cpsp' Capital Spacing in Latin lookup 0 subtable" dx=5 dy=0 dh=10 dv=0
EndChar

StartChar: Aacute
Encoding: 193 193 2
Width: 669
Flags: HMW
HStem: 0 40<-18 178 -18 -18> 224 53<228 451 228 459 200 451> 587 115<394 404 394 394>
VStem: -18 659<39 39 39 40 39 40>
LayerCount: 2
Fore
SplineSet
614 842 m 1,0,-1
 396 749 l 1,1,-1
 372 785 l 1,2,-1
 570 914 l 1,3,-1
 626 863 l 1,4,-1
 614 842 l 1,0,-1
636 0 m 1,5,-1
 396 0 l 1,6,-1
 396 40 l 1,7,8
 440 49 440 49 459.5 57 c 128,-1,9
 479 65 479 65 479 77 c 128,-1,11
 479 89 479 89 478 94 c 2,12,-1
 459 224 l 1,13,-1
 200 224 l 1,14,-1
 121 80 l 2,15,16
 114 66 114 66 114 64 c 0,17,18
 114 59 114 59 119 58 c 2,19,-1
 183 39 l 1,20,-1
 178 0 l 1,21,-1
 -18 0 l 1,22,-1
 -18 40 l 1,23,24
 22 50 22 50 32 56 c 128,-1,25
 42 62 42 62 53 83 c 2,26,-1
 392 702 l 1,27,-1
 475 702 l 1,28,-1
 586 64 l 2,29,30
 589 49 589 49 641 39 c 1,31,-1
 636 0 l 1,5,-1
451 277 m 1,32,-1
 405 558 l 2,33,34
 404 570 404 570 404 587 c 1,35,-1
 394 587 l 1,36,-1
 228 277 l 1,37,-1
 451 277 l 1,32,-1
EndSplineSet
Position2: "'cpsp' Capital Spacing in Latin lookup 0 subtable" dx=5 dy=0 dh=10 dv=0
EndChar

StartChar: acute.cap
Encoding: 65537 -1 3
Width: 240
Flags: HMW
HStem: 749 165
VStem: 101 254<785 863>
LayerCount: 2
Fore
SplineSet
343 842 m 1,0,-1
 125 749 l 1,1,-1
 101 785 l 1,2,-1
 299 914 l 1,3,-1
 355 863 l 1,4,-1
 343 842 l 1,0,-1
EndSplineSet
EndChar

StartChar: Abreve
Encoding: 258 258 4
Width: 669
Flags: HMW
HStem: 0 40<-18 178 -18 -18> 224 53<228 451 228 459 200 451> 587 115<394 404 394 394> 760 68<435.5 500.5 435.5 506>
VStem: -18 659<39 39 39 40 39 40>
LayerCount: 2
Fore
SplineSet
594 900 m 1,0,-1
 631 900 l 1,1,2
 616 838 616 838 571.5 799 c 128,-1,3
 527 760 527 760 460 760 c 128,-1,5
 393 760 393 760 362.5 792 c 128,-1,6
 332 824 332 824 332 876 c 0,7,8
 332 892 332 892 333 900 c 1,9,-1
 370 900 l 1,10,11
 373 828 373 828 468 828 c 128,-1,12
 563 828 563 828 594 900 c 1,0,-1
636 0 m 1,13,-1
 396 0 l 1,14,-1
 396 40 l 1,15,16
 440 49 440 49 459.5 57 c 128,-1,17
 479 65 479 65 479 77 c 128,-1,19
 479 89 479 89 478 94 c 2,20,-1
 459 224 l 1,21,-1
 200 224 l 1,22,-1
 121 80 l 2,23,24
 114 66 114 66 114 64 c 0,25,26
 114 59 114 59 119 58 c 2,27,-1
 183 39 l 1,28,-1
 178 0 l 1,29,-1
 -18 0 l 1,30,-1
 -18 40 l 1,31,32
 22 50 22 50 32 56 c 128,-1,33
 42 62 42 62 53 83 c 2,34,-1
 392 702 l 1,35,-1
 475 702 l 1,36,-1
 586 64 l 2,37,38
 589 49 589 49 641 39 c 1,39,-1
 636 0 l 1,13,-1
451 277 m 1,40,-1
 405 558 l 2,41,42
 404 570 404 570 404 587 c 1,43,-1
 394 587 l 1,44,-1
 228 277 l 1,45,-1
 451 277 l 1,40,-1
EndSplineSet
Position2: "'cpsp' Capital Spacing in Latin lookup 0 subtable" dx=5 dy=0 dh=10 dv=0
EndChar

StartChar: breve.cap
Encoding: 65538 -1 5
Width: 298
Flags: HMW
HStem: 760 68<224.5 289.5 224.5 295>
VStem: 121 299<843.5 900>
LayerCount: 2
Fore
SplineSet
383 900 m 1,0,-1
 420 900 l 1,1,2
 405 838 405 838 360.5 799 c 128,-1,3
 316 760 316 760 249 760 c 0,4,5
 182 760 182 760 151.5 792 c 128,-1,6
 121 824 121 824 121 876 c 0,7,8
 121 892 121 892 122 900 c 1,9,-1
 159 900 l 1,10,11
 162 828 162 828 257 828 c 128,-1,12
 352 828 352 828 383 900 c 1,0,-1
EndSplineSet
EndChar

StartChar: Acircumflex
Encoding: 194 194 6
Width: 669
Flags: HMW
HStem: 0 40<-18 178 -18 -18> 224 53<228 451 228 459 200 451> 587 115<394 404 394 394>
VStem: -18 659<39 39 39 40 39 40>
LayerCount: 2
Fore
SplineSet
624 775 m 1,0,-1
 594 749 l 1,1,-1
 472 840 l 1,2,-1
 316 749 l 1,3,-1
 296 775 l 1,4,-1
 452 914 l 1,5,-1
 508 914 l 1,6,-1
 624 775 l 1,0,-1
636 0 m 1,7,-1
 396 0 l 1,8,-1
 396 40 l 1,9,10
 440 49 440 49 459.5 57 c 128,-1,11
 479 65 479 65 479 77 c 128,-1,13
 479 89 479 89 478 94 c 2,14,-1
 459 224 l 1,15,-1
 200 224 l 1,16,-1
 121 80 l 2,17,18
 114 66 114 66 114 64 c 0,19,20
 114 59 114 59 119 58 c 2,21,-1
 183 39 l 1,22,-1
 178 0 l 1,23,-1
 -18 0 l 1,24,-1
 -18 40 l 1,25,26
 22 50 22 50 32 56 c 128,-1,27
 42 62 42 62 53 83 c 2,28,-1
 392 702 l 1,29,-1
 475 702 l 1,30,-1
 586 64 l 2,31,32
 589 49 589 49 641 39 c 1,33,-1
 636 0 l 1,7,-1
451 277 m 1,34,-1
 405 558 l 2,35,36
 404 570 404 570 404 587 c 1,37,-1
 394 587 l 1,38,-1
 228 277 l 1,39,-1
 451 277 l 1,34,-1
EndSplineSet
Position2: "'cpsp' Capital Spacing in Latin lookup 0 subtable" dx=5 dy=0 dh=10 dv=0
EndChar

StartChar: circumflex.cap
Encoding: 65539 -1 7
Width: 328
Flags: HMW
HStem: 749 165<119 311 255 397>
VStem: 99 328<775 775>
LayerCount: 2
Fore
SplineSet
427 775 m 1,0,-1
 397 749 l 1,1,-1
 275 840 l 1,2,-1
 119 749 l 1,3,-1
 99 775 l 1,4,-1
 255 914 l 1,5,-1
 311 914 l 1,6,-1
 427 775 l 1,0,-1
EndSplineSet
EndChar

StartChar: Adieresis
Encoding: 196 196 8
Width: 669
Flags: HMW
HStem: 0 40<-18 178 -18 -18> 224 53<228 451 228 459 200 451> 587 115<394 404 394 394> 775 110<344 364 537 557>
VStem: 300 108<823 838> 493 108<823 838>
LayerCount: 2
Fore
SplineSet
540 775 m 0,0,1
 493 775 493 775 493 821 c 0,2,3
 493 847 493 847 511 866 c 128,-1,4
 529 885 529 885 554 885 c 0,5,6
 601 885 601 885 601 840 c 0,7,8
 601 814 601 814 583 794.5 c 128,-1,9
 565 775 565 775 540 775 c 0,0,1
347 775 m 0,10,11
 300 775 300 775 300 821 c 0,12,13
 300 847 300 847 318 866 c 128,-1,14
 336 885 336 885 361 885 c 0,15,16
 408 885 408 885 408 840 c 0,17,18
 408 814 408 814 390 794.5 c 128,-1,19
 372 775 372 775 347 775 c 0,10,11
636 0 m 1,20,-1
 396 0 l 1,21,-1
 396 40 l 1,22,23
 440 49 440 49 459.5 57 c 128,-1,24
 479 65 479 65 479 77 c 128,-1,26
 479 89 479 89 478 94 c 2,27,-1
 459 224 l 1,28,-1
 200 224 l 1,29,-1
 121 80 l 2,30,31
 114 66 114 66 114 64 c 0,32,33
 114 59 114 59 119 58 c 2,34,-1
 183 39 l 1,35,-1
 178 0 l 1,36,-1
 -18 0 l 1,37,-1
 -18 40 l 1,38,39
 22 50 22 50 32 56 c 128,-1,40
 42 62 42 62 53 83 c 2,41,-1
 392 702 l 1,42,-1
 475 702 l 1,43,-1
 586 64 l 2,44,45
 589 49 589 49 641 39 c 1,46,-1
 636 0 l 1,20,-1
451 277 m 1,47,-1
 405 558 l 2,48,49
 404 570 404 570 404 587 c 1,50,-1
 394 587 l 1,51,-1
 228 277 l 1,52,-1
 451 277 l 1,47,-1
EndSplineSet
Position2: "'cpsp' Capital Spacing in Latin lookup 0 subtable" dx=5 dy=0 dh=10 dv=0
EndChar

StartChar: dieresis.cap
Encoding: 65540 -1 9
Width: 299
Flags: HMW
HStem: 775 110<152 172 345 365>
VStem: 108 108<823 838> 301 108<823 838>
LayerCount: 2
Fore
SplineSet
348 775 m 0,0,1
 301 775 301 775 301 821 c 0,2,3
 301 847 301 847 319 866 c 128,-1,4
 337 885 337 885 362 885 c 0,5,6
 409 885 409 885 409 840 c 0,7,8
 409 814 409 814 391 794.5 c 128,-1,9
 373 775 373 775 348 775 c 0,0,1
155 775 m 0,10,11
 108 775 108 775 108 821 c 0,12,13
 108 847 108 847 126 866 c 128,-1,14
 144 885 144 885 169 885 c 0,15,16
 216 885 216 885 216 840 c 0,17,18
 216 814 216 814 198 794.5 c 128,-1,19
 180 775 180 775 155 775 c 0,10,11
EndSplineSet
EndChar

StartChar: Agrave
Encoding: 192 192 10
Width: 669
Flags: HMW
HStem: 0 40<-18 178 -18 -18> 224 53<228 451 228 459 200 451> 587 115<394 404 394 394>
VStem: -18 659<39 39 39 40 39 40>
LayerCount: 2
Fore
SplineSet
489 749 m 1,0,-1
 305 842 l 1,1,-1
 301 863 l 1,2,-1
 365 914 l 1,3,-1
 515 785 l 1,4,-1
 489 749 l 1,0,-1
636 0 m 1,5,-1
 396 0 l 1,6,-1
 396 40 l 1,7,8
 440 49 440 49 459.5 57 c 128,-1,9
 479 65 479 65 479 77 c 128,-1,11
 479 89 479 89 478 94 c 2,12,-1
 459 224 l 1,13,-1
 200 224 l 1,14,-1
 121 80 l 2,15,16
 114 66 114 66 114 64 c 0,17,18
 114 59 114 59 119 58 c 2,19,-1
 183 39 l 1,20,-1
 178 0 l 1,21,-1
 -18 0 l 1,22,-1
 -18 40 l 1,23,24
 22 50 22 50 32 56 c 128,-1,25
 42 62 42 62 53 83 c 2,26,-1
 392 702 l 1,27,-1
 475 702 l 1,28,-1
 586 64 l 2,29,30
 589 49 589 49 641 39 c 1,31,-1
 636 0 l 1,5,-1
451 277 m 1,32,-1
 405 558 l 2,33,34
 404 570 404 570 404 587 c 1,35,-1
 394 587 l 1,36,-1
 228 277 l 1,37,-1
 451 277 l 1,32,-1
EndSplineSet
Position2: "'cpsp' Capital Spacing in Latin lookup 0 subtable" dx=5 dy=0 dh=10 dv=0
EndChar

StartChar: grave.cap
Encoding: 65541 -1 11
Width: 228
Flags: HMW
HStem: 749 165<179 303>
VStem: 115 214<785 863>
LayerCount: 2
Fore
SplineSet
303 749 m 1,0,-1
 119 842 l 1,1,-1
 115 863 l 1,2,-1
 179 914 l 1,3,-1
 329 785 l 1,4,-1
 303 749 l 1,0,-1
EndSplineSet
EndChar

StartChar: Amacron
Encoding: 256 256 12
Width: 669
Flags: HMW
HStem: 0 40<-18 178 -18 -18> 224 53<228 451 228 459 200 451> 587 115<394 404 394 394> 804 60<343 581 332 592>
VStem: -18 659<39 39 39 40 39 40>
LayerCount: 2
Fore
SplineSet
581 804 m 1,0,-1
 332 804 l 1,1,-1
 343 864 l 1,2,-1
 592 864 l 1,3,-1
 581 804 l 1,0,-1
636 0 m 1,4,-1
 396 0 l 1,5,-1
 396 40 l 1,6,7
 440 49 440 49 459.5 57 c 128,-1,8
 479 65 479 65 479 77 c 128,-1,10
 479 89 479 89 478 94 c 2,11,-1
 459 224 l 1,12,-1
 200 224 l 1,13,-1
 121 80 l 2,14,15
 114 66 114 66 114 64 c 0,16,17
 114 59 114 59 119 58 c 2,18,-1
 183 39 l 1,19,-1
 178 0 l 1,20,-1
 -18 0 l 1,21,-1
 -18 40 l 1,22,23
 22 50 22 50 32 56 c 128,-1,24
 42 62 42 62 53 83 c 2,25,-1
 392 702 l 1,26,-1
 475 702 l 1,27,-1
 586 64 l 2,28,29
 589 49 589 49 641 39 c 1,30,-1
 636 0 l 1,4,-1
451 277 m 1,31,-1
 405 558 l 2,32,33
 404 570 404 570 404 587 c 1,34,-1
 394 587 l 1,35,-1
 228 277 l 1,36,-1
 451 277 l 1,31,-1
EndSplineSet
Position2: "'cpsp' Capital Spacing in Latin lookup 0 subtable" dx=5 dy=0 dh=10 dv=0
EndChar

StartChar: macron.cap
Encoding: 65542 -1 13
Width: 249
Flags: HMW
HStem: 804 60<112 350 101 361>
VStem: 101 260<804 864>
LayerCount: 2
Fore
SplineSet
350 804 m 1,0,-1
 101 804 l 1,1,-1
 112 864 l 1,2,-1
 361 864 l 1,3,-1
 350 804 l 1,0,-1
EndSplineSet
EndChar

StartChar: Aogonek
Encoding: 260 260 14
Width: 669
Flags: HMW
HStem: -215 56<409.5 493.5> 0 40<-18 178 -18 -18> 224 53<228 451 228 459 200 451> 587 115<394 404 394 394>
VStem: 349 85<-130 -113.5>
LayerCount: 2
Fore
SplineSet
434 -116 m 0,0,1
 434 -159 434 -159 486 -159 c 0,2,3
 512 -159 512 -159 542 -149 c 1,4,-1
 551 -169 l 1,5,6
 491 -215 491 -215 432 -215 c 0,7,8
 397 -215 397 -215 373 -193.5 c 128,-1,9
 349 -172 349 -172 349 -136 c 128,-1,10
 349 -100 349 -100 381 -61.5 c 128,-1,11
 413 -23 413 -23 468 0 c 1,12,-1
 396 0 l 1,13,-1
 396 40 l 1,14,15
 440 49 440 49 459.5 57 c 128,-1,16
 479 65 479 65 479 77 c 128,-1,17
 479 89 479 89 478 94 c 2,18,-1
 459 224 l 1,19,-1
 200 224 l 1,20,-1
 121 80 l 2,21,22
 114 66 114 66 114 64 c 0,23,24
 114 59 114 59 119 58 c 2,25,-1
 183 39 l 1,26,-1
 178 0 l 1,27,-1
 -18 0 l 1,28,-1
 -18 40 l 1,29,30
 22 50 22 50 32 56 c 128,-1,31
 42 62 42 62 53 83 c 2,32,-1
 392 702 l 1,33,-1
 475 702 l 1,34,-1
 586 64 l 2,35,36
 589 49 589 49 641 39 c 1,37,-1
 636 0 l 1,38,-1
 597 0 l 2,39,40
 532 0 532 0 483 -34.5 c 128,-1,41
 434 -69 434 -69 434 -116 c 0,0,1
451 277 m 1,42,-1
 405 558 l 2,43,44
 404 570 404 570 404 587 c 1,45,-1
 394 587 l 1,46,-1
 228 277 l 1,47,-1
 451 277 l 1,42,-1
EndSplineSet
Position2: "'cpsp' Capital Spacing in Latin lookup 0 subtable" dx=5 dy=0 dh=10 dv=0
EndChar

StartChar: Aring
Encoding: 197 197 15
Width: 669
Flags: HMW
HStem: 0 40<-18 178 -18 -18> 224 53<228 451 228 459 200 451> 587 115<394 404 394 394> 739 43<431.5 460.5 431.5 467.5> 876 43<442 474.5>
VStem: 353 49<808.5 836 808.5 847> 503 51<822 849.5>
LayerCount: 2
Fore
SplineSet
529.5 897.5 m 128,-1,1
 554 876 554 876 554 837 c 128,-1,2
 554 798 554 798 519 768.5 c 128,-1,3
 484 739 484 739 442.5 739 c 128,-1,4
 401 739 401 739 377 760 c 128,-1,5
 353 781 353 781 353 821 c 128,-1,6
 353 861 353 861 387.5 890 c 128,-1,7
 422 919 422 919 463.5 919 c 128,-1,0
 505 919 505 919 529.5 897.5 c 128,-1,1
402 824 m 0,8,9
 402 782 402 782 447 782 c 0,10,11
 469 782 469 782 486 798 c 128,-1,12
 503 814 503 814 503 834.5 c 0,13,14
 503 876 503 876 457 876 c 0,15,16
 433 876 433 876 417.5 860.5 c 128,-1,17
 402 845 402 845 402 824 c 0,8,9
636 0 m 1,18,-1
 396 0 l 1,19,-1
 396 40 l 1,20,21
 440 49 440 49 459.5 57 c 128,-1,22
 479 65 479 65 479 77 c 128,-1,23
 479 89 479 89 478 94 c 2,24,-1
 459 224 l 1,25,-1
 200 224 l 1,26,-1
 121 80 l 2,27,28
 114 66 114 66 114 64 c 0,29,30
 114 59 114 59 119 58 c 2,31,-1
 183 39 l 1,32,-1
 178 0 l 1,33,-1
 -18 0 l 1,34,-1
 -18 40 l 1,35,36
 22 50 22 50 32 56 c 128,-1,37
 42 62 42 62 53 83 c 2,38,-1
 392 702 l 1,39,-1
 475 702 l 1,40,-1
 586 64 l 2,41,42
 589 49 589 49 641 39 c 1,43,-1
 636 0 l 1,18,-1
451 277 m 1,44,-1
 405 558 l 2,45,46
 404 570 404 570 404 587 c 1,47,-1
 394 587 l 1,48,-1
 228 277 l 1,49,-1
 451 277 l 1,44,-1
EndSplineSet
Position2: "'cpsp' Capital Spacing in Latin lookup 0 subtable" dx=5 dy=0 dh=10 dv=0
EndChar

StartChar: ring.cap
Encoding: 65543 -1 16
Width: 200
Flags: HMW
HStem: 739 43<186.5 215.5 186.5 222.5> 876 43<197 229.5>
VStem: 108 49<808.5 836 808.5 847> 258 51<822 849.5>
LayerCount: 2
Fore
SplineSet
284.5 897.5 m 128,-1,1
 309 876 309 876 309 837 c 128,-1,2
 309 798 309 798 274 768.5 c 128,-1,3
 239 739 239 739 197.5 739 c 128,-1,4
 156 739 156 739 132 760 c 128,-1,5
 108 781 108 781 108 821 c 128,-1,6
 108 861 108 861 142.5 890 c 128,-1,7
 177 919 177 919 218.5 919 c 128,-1,0
 260 919 260 919 284.5 897.5 c 128,-1,1
157 824 m 0,8,9
 157 782 157 782 202 782 c 0,10,11
 224 782 224 782 241 798 c 128,-1,12
 258 814 258 814 258 834.5 c 0,13,14
 258 876 258 876 212 876 c 0,15,16
 188 876 188 876 172.5 860.5 c 128,-1,17
 157 845 157 845 157 824 c 0,8,9
EndSplineSet
EndChar

StartChar: Atilde
Encoding: 195 195 17
Width: 669
Flags: HMW
HStem: 0 40<-18 178 -18 -18> 224 53<228 451 228 459 200 451> 587 115<394 404 394 394> 778 78<534 556> 805 78<372.5 389>
VStem: -18 664
LayerCount: 2
Fore
SplineSet
623 891 m 1,0,-1
 646 879 l 1,1,2
 581 778 581 778 535 778 c 0,3,4
 518 778 518 778 454 791.5 c 128,-1,5
 390 805 390 805 359 805 c 128,-1,7
 328 805 328 805 288 771 c 1,8,-1
 268 787 l 1,9,10
 310 840 310 840 337 861.5 c 128,-1,11
 364 883 364 883 387 883 c 128,-1,13
 410 883 410 883 472 869.5 c 128,-1,14
 534 856 534 856 558.5 856 c 128,-1,16
 583 856 583 856 623 891 c 1,0,-1
636 0 m 1,17,-1
 396 0 l 1,18,-1
 396 40 l 1,19,20
 440 49 440 49 459.5 57 c 128,-1,21
 479 65 479 65 479 77 c 128,-1,23
 479 89 479 89 478 94 c 2,24,-1
 459 224 l 1,25,-1
 200 224 l 1,26,-1
 121 80 l 2,27,28
 114 66 114 66 114 64 c 0,29,30
 114 59 114 59 119 58 c 2,31,-1
 183 39 l 1,32,-1
 178 0 l 1,33,-1
 -18 0 l 1,34,-1
 -18 40 l 1,35,36
 22 50 22 50 32 56 c 128,-1,37
 42 62 42 62 53 83 c 2,38,-1
 392 702 l 1,39,-1
 475 702 l 1,40,-1
 586 64 l 2,41,42
 589 49 589 49 641 39 c 1,43,-1
 636 0 l 1,17,-1
451 277 m 1,44,-1
 405 558 l 2,45,46
 404 570 404 570 404 587 c 1,47,-1
 394 587 l 1,48,-1
 228 277 l 1,49,-1
 451 277 l 1,44,-1
EndSplineSet
Position2: "'cpsp' Capital Spacing in Latin lookup 0 subtable" dx=5 dy=0 dh=10 dv=0
EndChar

StartChar: tilde.cap
Encoding: 65544 -1 18
Width: 361
Flags: HMW
HStem: 778 78<367 389> 805 78<205.5 222>
VStem: 101 378<787 879>
LayerCount: 2
Fore
SplineSet
456 891 m 1,0,-1
 479 879 l 1,1,2
 414 778 414 778 368 778 c 0,3,4
 351 778 351 778 287 791.5 c 128,-1,5
 223 805 223 805 192 805 c 0,6,7
 161 805 161 805 121 771 c 1,8,-1
 101 787 l 1,9,10
 143 840 143 840 170 861.5 c 128,-1,11
 197 883 197 883 220 883 c 0,12,13
 243 883 243 883 305 869.5 c 128,-1,14
 367 856 367 856 391.5 856 c 0,15,16
 416 856 416 856 456 891 c 1,0,-1
EndSplineSet
EndChar

StartChar: B
Encoding: 66 66 19
Width: 622
Flags: HMW
HStem: 0 50<269.5 310> 333 56<253 329 329 341 244 329> 640 53<295 365 295 295>
VStem: 479 110<154 244 154 256> 494 110<493.5 558>
LayerCount: 2
Fore
SplineSet
310 0 m 2,0,-1
 23 0 l 1,1,-1
 23 39 l 1,2,3
 89.7931034483 49.275862069 89.7931034483 49.275862069 100.5 69.5 c 0,4,5
 105 78 105 78 109 101 c 2,6,-1
 193 592 l 2,7,8
 196 606 196 606 196 618.5 c 128,-1,9
 196 631 196 631 182.5 638.5 c 128,-1,10
 169 646 169 646 128 654 c 1,11,-1
 134 693 l 1,12,-1
 409 693 l 2,13,14
 501 693 501 693 552.5 652 c 128,-1,15
 604 611 604 611 604 543.5 c 128,-1,16
 604 476 604 476 559 426.5 c 128,-1,17
 514 377 514 377 466 362 c 1,18,-1
 466 355 l 1,19,20
 523 340 523 340 556 301.5 c 128,-1,21
 589 263 589 263 589 202 c 0,22,23
 589 123.524590164 589 123.524590164 529.5 65 c 0,24,25
 499 35 499 35 442.5 17.5 c 128,-1,26
 386 0 386 0 310 0 c 2,0,-1
253 389 m 1,27,-1
 329 389 l 2,28,29
 407 389 407 389 450.5 424 c 128,-1,30
 494 459 494 459 494 529 c 0,31,32
 494 640 494 640 365 640 c 2,33,-1
 295 640 l 1,34,-1
 253 389 l 1,27,-1
341 333 m 2,35,-1
 244 333 l 1,36,-1
 206 97 l 2,37,38
 203 81 203 81 204 73.5 c 128,-1,39
 205 66 205 66 214 62 c 0,40,41
 238 50 238 50 292 50 c 0,42,43
 479 50 479 50 479 200 c 0,44,45
 479 280.636363636 479 280.636363636 431 309 c 0,46,47
 390.384615385 333 390.384615385 333 341 333 c 2,35,-1
EndSplineSet
Position2: "'cpsp' Capital Spacing in Latin lookup 0 subtable" dx=5 dy=0 dh=10 dv=0
EndChar

StartChar: C
Encoding: 67 67 20
Width: 588
Flags: HMW
HStem: -9 56<309 367.5> 649 53<332 439.5> 654 20G
VStem: 59 114<203 362.5>
LayerCount: 2
Fore
SplineSet
512 200 m 1,0,-1
 567 198 l 1,1,2
 559 113 559 113 543 36 c 1,3,4
 510 19 510 19 447.5 5 c 128,-1,5
 385 -9 385 -9 322 -9 c 0,6,7
 197 -9 197 -9 128 71 c 128,-1,8
 59 151 59 151 59 273.178571429 c 128,-1,10
 59 395.357142857 59 395.357142857 110 501 c 0,11,12
 138 559 138 559 180 602.5 c 128,-1,13
 222 646 222 646 289.5 674 c 128,-1,14
 357 702 357 702 424.5 702 c 128,-1,15
 492 702 492 702 547.5 692 c 128,-1,16
 603 682 603 682 619 674 c 1,17,18
 619 608 619 608 599 506 c 1,19,-1
 541 498 l 1,20,21
 535 612 535 612 520 626 c 0,22,23
 513 633 513 633 480.5 641 c 128,-1,24
 448 649 448 649 416 649 c 0,25,26
 355 649 355 649 307.5 619.5 c 128,-1,27
 260 590 260 590 231 539 c 0,28,29
 173 437 173 437 173 289 c 0,30,31
 173 168 173 168 226 107.5 c 128,-1,32
 279 47 279 47 356 47 c 0,33,34
 390 47 390 47 420.5 56 c 128,-1,35
 451 65 451 65 460 72 c 1,36,37
 474 81 474 81 512 200 c 1,0,-1
EndSplineSet
Position2: "'cpsp' Capital Spacing in Latin lookup 0 subtable" dx=5 dy=0 dh=10 dv=0
EndChar

StartChar: Cacute
Encoding: 262 262 21
Width: 588
Flags: HMW
HStem: -9 56<309 367.5> 649 53<332 439.5> 654 20G
VStem: 59 114<203 362.5>
LayerCount: 2
Fore
SplineSet
614 842 m 1,0,-1
 396 749 l 1,1,-1
 372 785 l 1,2,-1
 570 914 l 1,3,-1
 626 863 l 1,4,-1
 614 842 l 1,0,-1
512 200 m 1,5,-1
 567 198 l 1,6,7
 559 113 559 113 543 36 c 1,8,9
 510 19 510 19 447.5 5 c 128,-1,10
 385 -9 385 -9 322 -9 c 0,11,12
 197 -9 197 -9 128 71 c 128,-1,13
 59 151 59 151 59 273.178571429 c 128,-1,15
 59 395.357142857 59 395.357142857 110 501 c 0,16,17
 138 559 138 559 180 602.5 c 128,-1,18
 222 646 222 646 289.5 674 c 128,-1,19
 357 702 357 702 424.5 702 c 128,-1,20
 492 702 492 702 547.5 692 c 128,-1,21
 603 682 603 682 619 674 c 1,22,23
 619 608 619 608 599 506 c 1,24,-1
 541 498 l 1,25,26
 535 612 535 612 520 626 c 0,27,28
 513 633 513 633 480.5 641 c 128,-1,29
 448 649 448 649 416 649 c 0,30,31
 355 649 355 649 307.5 619.5 c 128,-1,32
 260 590 260 590 231 539 c 0,33,34
 173 437 173 437 173 289 c 0,35,36
 173 168 173 168 226 107.5 c 128,-1,37
 279 47 279 47 356 47 c 0,38,39
 390 47 390 47 420.5 56 c 128,-1,40
 451 65 451 65 460 72 c 1,41,42
 474 81 474 81 512 200 c 1,5,-1
EndSplineSet
Position2: "'cpsp' Capital Spacing in Latin lookup 0 subtable" dx=5 dy=0 dh=10 dv=0
EndChar

StartChar: Ccaron
Encoding: 268 268 22
Width: 588
Flags: HMW
HStem: -9 56<309 367.5> 649 53<332 439.5> 654 20G
VStem: 59 114<203 362.5>
LayerCount: 2
Fore
SplineSet
625 891 m 1,0,-1
 468 752 l 1,1,-1
 412 752 l 1,2,-1
 297 891 l 1,3,-1
 327 917 l 1,4,-1
 449 826 l 1,5,-1
 605 917 l 1,6,-1
 625 891 l 1,0,-1
512 200 m 1,7,-1
 567 198 l 1,8,9
 559 113 559 113 543 36 c 1,10,11
 510 19 510 19 447.5 5 c 128,-1,12
 385 -9 385 -9 322 -9 c 0,13,14
 197 -9 197 -9 128 71 c 128,-1,15
 59 151 59 151 59 273.178571429 c 128,-1,17
 59 395.357142857 59 395.357142857 110 501 c 0,18,19
 138 559 138 559 180 602.5 c 128,-1,20
 222 646 222 646 289.5 674 c 128,-1,21
 357 702 357 702 424.5 702 c 128,-1,22
 492 702 492 702 547.5 692 c 128,-1,23
 603 682 603 682 619 674 c 1,24,25
 619 608 619 608 599 506 c 1,26,-1
 541 498 l 1,27,28
 535 612 535 612 520 626 c 0,29,30
 513 633 513 633 480.5 641 c 128,-1,31
 448 649 448 649 416 649 c 0,32,33
 355 649 355 649 307.5 619.5 c 128,-1,34
 260 590 260 590 231 539 c 0,35,36
 173 437 173 437 173 289 c 0,37,38
 173 168 173 168 226 107.5 c 128,-1,39
 279 47 279 47 356 47 c 0,40,41
 390 47 390 47 420.5 56 c 128,-1,42
 451 65 451 65 460 72 c 1,43,44
 474 81 474 81 512 200 c 1,7,-1
EndSplineSet
Position2: "'cpsp' Capital Spacing in Latin lookup 0 subtable" dx=5 dy=0 dh=10 dv=0
EndChar

StartChar: caron.cap
Encoding: 65545 -1 23
Width: 328
Flags: HMW
HStem: 752 165<150 291 150 235>
VStem: 120 328<891 891>
LayerCount: 2
Fore
SplineSet
448 891 m 1,0,-1
 291 752 l 1,1,-1
 235 752 l 1,2,-1
 120 891 l 1,3,-1
 150 917 l 1,4,-1
 272 826 l 1,5,-1
 428 917 l 1,6,-1
 448 891 l 1,0,-1
EndSplineSet
EndChar

StartChar: Ccedilla
Encoding: 199 199 24
Width: 588
Flags: HMW
HStem: -217 31<238 240> -90 45<299.5 382> -8 55<295 381.5 348 348> 649 53<332 439.5> 654 20G
VStem: 59 114<203 362.5> 346 86<-127.5 -113.5>
LayerCount: 2
Fore
SplineSet
238 -217 m 1,0,-1
 240 -186 l 1,1,2
 288 -180 288 -180 317 -163 c 128,-1,3
 346 -146 346 -146 346 -122 c 0,4,5
 346 -90 346 -90 306 -90 c 0,6,7
 285 -90 285 -90 263 -100 c 1,8,-1
 257 -89 l 1,9,-1
 295 -8 l 1,10,11
 182 1 182 1 120.5 79.5 c 128,-1,12
 59 158 59 158 59 276.678571429 c 128,-1,14
 59 395.357142857 59 395.357142857 110 501 c 0,15,16
 138 559 138 559 180 602.5 c 128,-1,17
 222 646 222 646 289.5 674 c 128,-1,18
 357 702 357 702 424.5 702 c 128,-1,19
 492 702 492 702 547.5 692 c 128,-1,20
 603 682 603 682 619 674 c 1,21,22
 619 608 619 608 599 506 c 1,23,-1
 541 498 l 1,24,25
 535 612 535 612 520 626 c 0,26,27
 513 633 513 633 480.5 641 c 128,-1,28
 448 649 448 649 416 649 c 0,29,30
 355 649 355 649 307.5 619.5 c 128,-1,31
 260 590 260 590 231 539 c 0,32,33
 173 437 173 437 173 289 c 0,34,35
 173 168 173 168 226 107.5 c 128,-1,36
 279 47 279 47 356 47 c 0,37,38
 390 47 390 47 420.5 56 c 128,-1,39
 451 65 451 65 460 72 c 1,40,41
 474 81 474 81 512 200 c 1,42,-1
 567 198 l 1,43,44
 559 113 559 113 543 36 c 1,45,46
 464 -2 464 -2 348 -8 c 1,47,-1
 330 -47 l 1,48,49
 340 -45 340 -45 367 -45 c 128,-1,50
 394 -45 394 -45 413 -59.5 c 128,-1,51
 432 -74 432 -74 432 -99 c 0,52,53
 432 -144 432 -144 379 -178.5 c 128,-1,54
 326 -213 326 -213 238 -217 c 1,0,-1
EndSplineSet
Position2: "'cpsp' Capital Spacing in Latin lookup 0 subtable" dx=5 dy=0 dh=10 dv=0
EndChar

StartChar: Ccircumflex
Encoding: 264 264 25
Width: 588
Flags: HMW
HStem: -9 56<309 367.5> 649 53<332 439.5> 654 20G
VStem: 59 114<203 362.5>
LayerCount: 2
Fore
SplineSet
624 775 m 1,0,-1
 594 749 l 1,1,-1
 472 840 l 1,2,-1
 316 749 l 1,3,-1
 296 775 l 1,4,-1
 452 914 l 1,5,-1
 508 914 l 1,6,-1
 624 775 l 1,0,-1
512 200 m 1,7,-1
 567 198 l 1,8,9
 559 113 559 113 543 36 c 1,10,11
 510 19 510 19 447.5 5 c 128,-1,12
 385 -9 385 -9 322 -9 c 0,13,14
 197 -9 197 -9 128 71 c 128,-1,15
 59 151 59 151 59 273.178571429 c 128,-1,17
 59 395.357142857 59 395.357142857 110 501 c 0,18,19
 138 559 138 559 180 602.5 c 128,-1,20
 222 646 222 646 289.5 674 c 128,-1,21
 357 702 357 702 424.5 702 c 128,-1,22
 492 702 492 702 547.5 692 c 128,-1,23
 603 682 603 682 619 674 c 1,24,25
 619 608 619 608 599 506 c 1,26,-1
 541 498 l 1,27,28
 535 612 535 612 520 626 c 0,29,30
 513 633 513 633 480.5 641 c 128,-1,31
 448 649 448 649 416 649 c 0,32,33
 355 649 355 649 307.5 619.5 c 128,-1,34
 260 590 260 590 231 539 c 0,35,36
 173 437 173 437 173 289 c 0,37,38
 173 168 173 168 226 107.5 c 128,-1,39
 279 47 279 47 356 47 c 0,40,41
 390 47 390 47 420.5 56 c 128,-1,42
 451 65 451 65 460 72 c 1,43,44
 474 81 474 81 512 200 c 1,7,-1
EndSplineSet
Position2: "'cpsp' Capital Spacing in Latin lookup 0 subtable" dx=5 dy=0 dh=10 dv=0
EndChar

StartChar: Cdotaccent
Encoding: 266 266 26
Width: 588
Flags: HMW
HStem: -9 56<309 367.5> 649 53<332 439.5> 654 20G 783 111<450.5 482 449 483.5>
VStem: 59 114<203 362.5> 412 112<824 853.5>
LayerCount: 2
Fore
SplineSet
508 880.5 m 128,-1,1
 524 867 524 867 524 841.5 c 128,-1,2
 524 816 524 816 508 799.5 c 128,-1,3
 492 783 492 783 466 783 c 0,4,5
 412 783 412 783 412 839 c 0,6,7
 412 862 412 862 426.5 878 c 128,-1,8
 441 894 441 894 466.5 894 c 128,-1,0
 492 894 492 894 508 880.5 c 128,-1,1
512 200 m 1,9,-1
 567 198 l 1,10,11
 559 113 559 113 543 36 c 1,12,13
 510 19 510 19 447.5 5 c 128,-1,14
 385 -9 385 -9 322 -9 c 0,15,16
 197 -9 197 -9 128 71 c 128,-1,17
 59 151 59 151 59 273.178571429 c 128,-1,19
 59 395.357142857 59 395.357142857 110 501 c 0,20,21
 138 559 138 559 180 602.5 c 128,-1,22
 222 646 222 646 289.5 674 c 128,-1,23
 357 702 357 702 424.5 702 c 128,-1,24
 492 702 492 702 547.5 692 c 128,-1,25
 603 682 603 682 619 674 c 1,26,27
 619 608 619 608 599 506 c 1,28,-1
 541 498 l 1,29,30
 535 612 535 612 520 626 c 0,31,32
 513 633 513 633 480.5 641 c 128,-1,33
 448 649 448 649 416 649 c 0,34,35
 355 649 355 649 307.5 619.5 c 128,-1,36
 260 590 260 590 231 539 c 0,37,38
 173 437 173 437 173 289 c 0,39,40
 173 168 173 168 226 107.5 c 128,-1,41
 279 47 279 47 356 47 c 0,42,43
 390 47 390 47 420.5 56 c 128,-1,44
 451 65 451 65 460 72 c 1,45,46
 474 81 474 81 512 200 c 1,9,-1
EndSplineSet
Position2: "'cpsp' Capital Spacing in Latin lookup 0 subtable" dx=5 dy=0 dh=10 dv=0
EndChar

StartChar: D
Encoding: 68 68 27
Width: 690
Flags: HMW
HStem: 0 53<301.5 311> 640 53<300 395 300 300>
VStem: 589 114<326 493 326 495.5>
LayerCount: 2
Fore
SplineSet
311 0 m 2,0,-1
 22 0 l 1,1,-1
 22 39 l 1,2,3
 76 48 76 48 89 59 c 128,-1,4
 102 70 102 70 108 101 c 2,5,-1
 195 592 l 2,6,7
 198 607 198 607 198 619 c 128,-1,8
 198 631 198 631 184.5 639 c 128,-1,9
 171 647 171 647 129 654 c 1,10,-1
 135 693 l 1,11,-1
 426 693 l 2,12,13
 499 693 499 693 554 670.5 c 128,-1,14
 609 648 609 648 640.5 609.5 c 0,15,16
 703 533.111111111 703 533.111111111 703 424 c 0,17,18
 703 265.692307692 703 265.692307692 611.5 139 c 0,19,20
 566 76 566 76 488 38 c 128,-1,21
 410 0 410 0 311 0 c 2,0,-1
395 640 m 2,22,-1
 300 640 l 1,23,-1
 206 109 l 2,24,25
 203 88 203 88 203 87 c 0,26,27
 203 71 203 71 220 67 c 0,28,29
 287 53 287 53 322 53 c 0,30,31
 453 53 453 53 521 151 c 128,-1,32
 589 249 589 249 589 405 c 0,33,34
 589 469 589 469 570.5 517.5 c 128,-1,35
 552 566 552 566 522 591 c 0,36,37
 463.2 640 463.2 640 395 640 c 2,22,-1
EndSplineSet
Position2: "'cpsp' Capital Spacing in Latin lookup 0 subtable" dx=5 dy=0 dh=10 dv=0
EndChar

StartChar: Dcaron
Encoding: 270 270 28
Width: 690
Flags: HMW
HStem: 0 53<301.5 311> 640 53<300 395 300 300>
VStem: 589 114<326 493 326 495.5>
LayerCount: 2
Fore
SplineSet
620 891 m 1,0,-1
 463 752 l 1,1,-1
 407 752 l 1,2,-1
 292 891 l 1,3,-1
 322 917 l 1,4,-1
 444 826 l 1,5,-1
 600 917 l 1,6,-1
 620 891 l 1,0,-1
311 0 m 2,7,-1
 22 0 l 1,8,-1
 22 39 l 1,9,10
 76 48 76 48 89 59 c 128,-1,11
 102 70 102 70 108 101 c 2,12,-1
 195 592 l 2,13,14
 198 607 198 607 198 619 c 128,-1,15
 198 631 198 631 184.5 639 c 128,-1,16
 171 647 171 647 129 654 c 1,17,-1
 135 693 l 1,18,-1
 426 693 l 2,19,20
 499 693 499 693 554 670.5 c 128,-1,21
 609 648 609 648 640.5 609.5 c 0,22,23
 703 533.111111111 703 533.111111111 703 424 c 0,24,25
 703 265.692307692 703 265.692307692 611.5 139 c 0,26,27
 566 76 566 76 488 38 c 128,-1,28
 410 0 410 0 311 0 c 2,7,-1
395 640 m 2,29,-1
 300 640 l 1,30,-1
 206 109 l 2,31,32
 203 88 203 88 203 87 c 0,33,34
 203 71 203 71 220 67 c 0,35,36
 287 53 287 53 322 53 c 0,37,38
 453 53 453 53 521 151 c 128,-1,39
 589 249 589 249 589 405 c 0,40,41
 589 469 589 469 570.5 517.5 c 128,-1,42
 552 566 552 566 522 591 c 0,43,44
 463.2 640 463.2 640 395 640 c 2,29,-1
EndSplineSet
Position2: "'cpsp' Capital Spacing in Latin lookup 0 subtable" dx=5 dy=0 dh=10 dv=0
EndChar

StartChar: Dcroat
Encoding: 272 272 29
Width: 690
Flags: HMW
HStem: 0 53<301.5 311> 640 53<300 395 300 300> 804 60<338 576 327 587>
VStem: 589 114<326 493 326 495.5>
LayerCount: 2
Fore
SplineSet
576 804 m 1,0,-1
 327 804 l 1,1,-1
 338 864 l 1,2,-1
 587 864 l 1,3,-1
 576 804 l 1,0,-1
311 0 m 2,4,-1
 22 0 l 1,5,-1
 22 39 l 1,6,7
 76 48 76 48 89 59 c 128,-1,8
 102 70 102 70 108 101 c 2,9,-1
 195 592 l 2,10,11
 198 607 198 607 198 619 c 128,-1,12
 198 631 198 631 184.5 639 c 128,-1,13
 171 647 171 647 129 654 c 1,14,-1
 135 693 l 1,15,-1
 426 693 l 2,16,17
 499 693 499 693 554 670.5 c 128,-1,18
 609 648 609 648 640.5 609.5 c 0,19,20
 703 533.111111111 703 533.111111111 703 424 c 0,21,22
 703 265.692307692 703 265.692307692 611.5 139 c 0,23,24
 566 76 566 76 488 38 c 128,-1,25
 410 0 410 0 311 0 c 2,4,-1
395 640 m 2,26,-1
 300 640 l 1,27,-1
 206 109 l 2,28,29
 203 88 203 88 203 87 c 0,30,31
 203 71 203 71 220 67 c 0,32,33
 287 53 287 53 322 53 c 0,34,35
 453 53 453 53 521 151 c 128,-1,36
 589 249 589 249 589 405 c 0,37,38
 589 469 589 469 570.5 517.5 c 128,-1,39
 552 566 552 566 522 591 c 0,40,41
 463.2 640 463.2 640 395 640 c 2,26,-1
EndSplineSet
Position2: "'cpsp' Capital Spacing in Latin lookup 0 subtable" dx=5 dy=0 dh=10 dv=0
EndChar

StartChar: E
Encoding: 69 69 30
Width: 592
Flags: HMW
HStem: 0 51<196 196 196 507> 320 53<253 400 243 403> 640 52
VStem: 420 37<237 243> 526 59<530 537>
LayerCount: 2
Fore
SplineSet
549 179 m 1,0,1
 539.610687023 99.1908396947 539.610687023 99.1908396947 507 0 c 1,2,-1
 20 0 l 1,3,-1
 20 39 l 1,4,5
 74 48 74 48 88 59 c 128,-1,6
 102 70 102 70 108 101 c 2,7,-1
 194 592 l 2,8,9
 197 606 197 606 197 618.5 c 128,-1,10
 197 631 197 631 183.5 639 c 128,-1,11
 170 647 170 647 129 654 c 1,12,-1
 135 693 l 1,13,-1
 608 693 l 1,14,15
 608 642.142857143 608 642.142857143 585 537 c 1,16,-1
 526 530 l 1,17,18
 525 599 525 599 522 616.5 c 128,-1,19
 519 634 519 634 511 635 c 0,20,21
 487 638 487 638 451 639 c 2,22,-1
 300 642 l 1,23,-1
 253 373 l 1,24,-1
 403 373 l 2,25,26
 411.21875 373 411.21875 373 422.109375 393.5 c 128,-1,27
 433 414 433 414 447 444 c 1,28,-1
 478 441 l 1,29,30
 461 347 461 347 457 243 c 1,31,-1
 420 237 l 1,32,33
 414 292 414 292 410.5 306 c 128,-1,34
 407 320 407 320 400 320 c 2,35,-1
 243 320 l 1,36,-1
 196 51 l 1,37,-1
 285 52 l 1,38,39
 386.082474227 54.7319587629 386.082474227 54.7319587629 403.041237113 58.3659793814 c 128,-1,40
 420 62 420 62 430 66 c 1,41,42
 448 71 448 71 494 184 c 1,43,-1
 549 179 l 1,0,1
EndSplineSet
Position2: "'cpsp' Capital Spacing in Latin lookup 0 subtable" dx=5 dy=0 dh=10 dv=0
EndChar

StartChar: Eacute
Encoding: 201 201 31
Width: 592
Flags: HMW
HStem: 0 51<196 196 196 507> 320 53<253 400 243 403> 640 52
VStem: 420 37<237 243> 526 59<530 537>
LayerCount: 2
Fore
SplineSet
569 842 m 1,0,-1
 351 749 l 1,1,-1
 327 785 l 1,2,-1
 525 914 l 1,3,-1
 581 863 l 1,4,-1
 569 842 l 1,0,-1
549 179 m 1,5,6
 539.610687023 99.1908396947 539.610687023 99.1908396947 507 0 c 1,7,-1
 20 0 l 1,8,-1
 20 39 l 1,9,10
 74 48 74 48 88 59 c 128,-1,11
 102 70 102 70 108 101 c 2,12,-1
 194 592 l 2,13,14
 197 606 197 606 197 618.5 c 128,-1,15
 197 631 197 631 183.5 639 c 128,-1,16
 170 647 170 647 129 654 c 1,17,-1
 135 693 l 1,18,-1
 608 693 l 1,19,20
 608 642.142857143 608 642.142857143 585 537 c 1,21,-1
 526 530 l 1,22,23
 525 599 525 599 522 616.5 c 128,-1,24
 519 634 519 634 511 635 c 0,25,26
 487 638 487 638 451 639 c 2,27,-1
 300 642 l 1,28,-1
 253 373 l 1,29,-1
 403 373 l 2,30,31
 411.21875 373 411.21875 373 422.109375 393.5 c 128,-1,32
 433 414 433 414 447 444 c 1,33,-1
 478 441 l 1,34,35
 461 347 461 347 457 243 c 1,36,-1
 420 237 l 1,37,38
 414 292 414 292 410.5 306 c 128,-1,39
 407 320 407 320 400 320 c 2,40,-1
 243 320 l 1,41,-1
 196 51 l 1,42,-1
 285 52 l 1,43,44
 386.082474227 54.7319587629 386.082474227 54.7319587629 403.041237113 58.3659793814 c 128,-1,45
 420 62 420 62 430 66 c 1,46,47
 448 71 448 71 494 184 c 1,48,-1
 549 179 l 1,5,6
EndSplineSet
Position2: "'cpsp' Capital Spacing in Latin lookup 0 subtable" dx=5 dy=0 dh=10 dv=0
EndChar

StartChar: Ecaron
Encoding: 282 282 32
Width: 592
Flags: HMW
HStem: 0 51<196 196 196 507> 320 53<253 400 243 403> 640 52
VStem: 420 37<237 243> 526 59<530 537>
LayerCount: 2
Fore
SplineSet
580 891 m 1,0,-1
 423 752 l 1,1,-1
 367 752 l 1,2,-1
 252 891 l 1,3,-1
 282 917 l 1,4,-1
 404 826 l 1,5,-1
 560 917 l 1,6,-1
 580 891 l 1,0,-1
549 179 m 1,7,8
 539.610687023 99.1908396947 539.610687023 99.1908396947 507 0 c 1,9,-1
 20 0 l 1,10,-1
 20 39 l 1,11,12
 74 48 74 48 88 59 c 128,-1,13
 102 70 102 70 108 101 c 2,14,-1
 194 592 l 2,15,16
 197 606 197 606 197 618.5 c 128,-1,17
 197 631 197 631 183.5 639 c 128,-1,18
 170 647 170 647 129 654 c 1,19,-1
 135 693 l 1,20,-1
 608 693 l 1,21,22
 608 642.142857143 608 642.142857143 585 537 c 1,23,-1
 526 530 l 1,24,25
 525 599 525 599 522 616.5 c 128,-1,26
 519 634 519 634 511 635 c 0,27,28
 487 638 487 638 451 639 c 2,29,-1
 300 642 l 1,30,-1
 253 373 l 1,31,-1
 403 373 l 2,32,33
 411.21875 373 411.21875 373 422.109375 393.5 c 128,-1,34
 433 414 433 414 447 444 c 1,35,-1
 478 441 l 1,36,37
 461 347 461 347 457 243 c 1,38,-1
 420 237 l 1,39,40
 414 292 414 292 410.5 306 c 128,-1,41
 407 320 407 320 400 320 c 2,42,-1
 243 320 l 1,43,-1
 196 51 l 1,44,-1
 285 52 l 1,45,46
 386.082474227 54.7319587629 386.082474227 54.7319587629 403.041237113 58.3659793814 c 128,-1,47
 420 62 420 62 430 66 c 1,48,49
 448 71 448 71 494 184 c 1,50,-1
 549 179 l 1,7,8
EndSplineSet
Position2: "'cpsp' Capital Spacing in Latin lookup 0 subtable" dx=5 dy=0 dh=10 dv=0
EndChar

StartChar: Ecircumflex
Encoding: 202 202 33
Width: 592
Flags: HMW
HStem: 0 51<196 196 196 507> 320 53<253 400 243 403> 640 52
VStem: 420 37<237 243> 526 59<530 537>
LayerCount: 2
Fore
SplineSet
579 775 m 1,0,-1
 549 749 l 1,1,-1
 427 840 l 1,2,-1
 271 749 l 1,3,-1
 251 775 l 1,4,-1
 407 914 l 1,5,-1
 463 914 l 1,6,-1
 579 775 l 1,0,-1
549 179 m 1,7,8
 539.610687023 99.1908396947 539.610687023 99.1908396947 507 0 c 1,9,-1
 20 0 l 1,10,-1
 20 39 l 1,11,12
 74 48 74 48 88 59 c 128,-1,13
 102 70 102 70 108 101 c 2,14,-1
 194 592 l 2,15,16
 197 606 197 606 197 618.5 c 128,-1,17
 197 631 197 631 183.5 639 c 128,-1,18
 170 647 170 647 129 654 c 1,19,-1
 135 693 l 1,20,-1
 608 693 l 1,21,22
 608 642.142857143 608 642.142857143 585 537 c 1,23,-1
 526 530 l 1,24,25
 525 599 525 599 522 616.5 c 128,-1,26
 519 634 519 634 511 635 c 0,27,28
 487 638 487 638 451 639 c 2,29,-1
 300 642 l 1,30,-1
 253 373 l 1,31,-1
 403 373 l 2,32,33
 411.21875 373 411.21875 373 422.109375 393.5 c 128,-1,34
 433 414 433 414 447 444 c 1,35,-1
 478 441 l 1,36,37
 461 347 461 347 457 243 c 1,38,-1
 420 237 l 1,39,40
 414 292 414 292 410.5 306 c 128,-1,41
 407 320 407 320 400 320 c 2,42,-1
 243 320 l 1,43,-1
 196 51 l 1,44,-1
 285 52 l 1,45,46
 386.082474227 54.7319587629 386.082474227 54.7319587629 403.041237113 58.3659793814 c 128,-1,47
 420 62 420 62 430 66 c 1,48,49
 448 71 448 71 494 184 c 1,50,-1
 549 179 l 1,7,8
EndSplineSet
Position2: "'cpsp' Capital Spacing in Latin lookup 0 subtable" dx=5 dy=0 dh=10 dv=0
EndChar

StartChar: Edieresis
Encoding: 203 203 34
Width: 592
Flags: HMW
HStem: 0 51<196 196 196 507> 320 53<253 400 243 403> 640 52 775 110<309 329 502 522>
VStem: 265 108<823 838> 420 37<237 243> 458 108<823 838> 526 59<530 537>
LayerCount: 2
Fore
SplineSet
505 775 m 0,0,1
 458 775 458 775 458 821 c 0,2,3
 458 847 458 847 476 866 c 128,-1,4
 494 885 494 885 519 885 c 0,5,6
 566 885 566 885 566 840 c 0,7,8
 566 814 566 814 548 794.5 c 128,-1,9
 530 775 530 775 505 775 c 0,0,1
312 775 m 0,10,11
 265 775 265 775 265 821 c 0,12,13
 265 847 265 847 283 866 c 128,-1,14
 301 885 301 885 326 885 c 0,15,16
 373 885 373 885 373 840 c 0,17,18
 373 814 373 814 355 794.5 c 128,-1,19
 337 775 337 775 312 775 c 0,10,11
549 179 m 1,20,21
 539.610687023 99.1908396947 539.610687023 99.1908396947 507 0 c 1,22,-1
 20 0 l 1,23,-1
 20 39 l 1,24,25
 74 48 74 48 88 59 c 128,-1,26
 102 70 102 70 108 101 c 2,27,-1
 194 592 l 2,28,29
 197 606 197 606 197 618.5 c 128,-1,30
 197 631 197 631 183.5 639 c 128,-1,31
 170 647 170 647 129 654 c 1,32,-1
 135 693 l 1,33,-1
 608 693 l 1,34,35
 608 642.142857143 608 642.142857143 585 537 c 1,36,-1
 526 530 l 1,37,38
 525 599 525 599 522 616.5 c 128,-1,39
 519 634 519 634 511 635 c 0,40,41
 487 638 487 638 451 639 c 2,42,-1
 300 642 l 1,43,-1
 253 373 l 1,44,-1
 403 373 l 2,45,46
 411.21875 373 411.21875 373 422.109375 393.5 c 128,-1,47
 433 414 433 414 447 444 c 1,48,-1
 478 441 l 1,49,50
 461 347 461 347 457 243 c 1,51,-1
 420 237 l 1,52,53
 414 292 414 292 410.5 306 c 128,-1,54
 407 320 407 320 400 320 c 2,55,-1
 243 320 l 1,56,-1
 196 51 l 1,57,-1
 285 52 l 1,58,59
 386.082474227 54.7319587629 386.082474227 54.7319587629 403.041237113 58.3659793814 c 128,-1,60
 420 62 420 62 430 66 c 1,61,62
 448 71 448 71 494 184 c 1,63,-1
 549 179 l 1,20,21
EndSplineSet
Position2: "'cpsp' Capital Spacing in Latin lookup 0 subtable" dx=5 dy=0 dh=10 dv=0
EndChar

StartChar: Edotaccent
Encoding: 278 278 35
Width: 592
Flags: HMW
HStem: 0 51<196 196 196 507> 320 53<253 400 243 403> 640 52 783 111<391.5 423 390 424.5>
VStem: 353 112<824 853.5> 420 37<237 243> 526 59<530 537>
LayerCount: 2
Fore
SplineSet
449 880.5 m 128,-1,1
 465 867 465 867 465 841.5 c 128,-1,2
 465 816 465 816 449 799.5 c 128,-1,3
 433 783 433 783 407 783 c 0,4,5
 353 783 353 783 353 839 c 0,6,7
 353 862 353 862 367.5 878 c 128,-1,8
 382 894 382 894 407.5 894 c 128,-1,0
 433 894 433 894 449 880.5 c 128,-1,1
549 179 m 1,9,10
 539.610687023 99.1908396947 539.610687023 99.1908396947 507 0 c 1,11,-1
 20 0 l 1,12,-1
 20 39 l 1,13,14
 74 48 74 48 88 59 c 128,-1,15
 102 70 102 70 108 101 c 2,16,-1
 194 592 l 2,17,18
 197 606 197 606 197 618.5 c 128,-1,19
 197 631 197 631 183.5 639 c 128,-1,20
 170 647 170 647 129 654 c 1,21,-1
 135 693 l 1,22,-1
 608 693 l 1,23,24
 608 642.142857143 608 642.142857143 585 537 c 1,25,-1
 526 530 l 1,26,27
 525 599 525 599 522 616.5 c 128,-1,28
 519 634 519 634 511 635 c 0,29,30
 487 638 487 638 451 639 c 2,31,-1
 300 642 l 1,32,-1
 253 373 l 1,33,-1
 403 373 l 2,34,35
 411.21875 373 411.21875 373 422.109375 393.5 c 128,-1,36
 433 414 433 414 447 444 c 1,37,-1
 478 441 l 1,38,39
 461 347 461 347 457 243 c 1,40,-1
 420 237 l 1,41,42
 414 292 414 292 410.5 306 c 128,-1,43
 407 320 407 320 400 320 c 2,44,-1
 243 320 l 1,45,-1
 196 51 l 1,46,-1
 285 52 l 1,47,48
 386.082474227 54.7319587629 386.082474227 54.7319587629 403.041237113 58.3659793814 c 128,-1,49
 420 62 420 62 430 66 c 1,50,51
 448 71 448 71 494 184 c 1,52,-1
 549 179 l 1,9,10
EndSplineSet
Position2: "'cpsp' Capital Spacing in Latin lookup 0 subtable" dx=5 dy=0 dh=10 dv=0
EndChar

StartChar: Egrave
Encoding: 200 200 36
Width: 592
Flags: HMW
HStem: 0 51<196 196 196 507> 320 53<253 400 243 403> 640 52
VStem: 420 37<237 243> 526 59<530 537>
LayerCount: 2
Fore
SplineSet
444 749 m 1,0,-1
 260 842 l 1,1,-1
 256 863 l 1,2,-1
 320 914 l 1,3,-1
 470 785 l 1,4,-1
 444 749 l 1,0,-1
549 179 m 1,5,6
 539.610687023 99.1908396947 539.610687023 99.1908396947 507 0 c 1,7,-1
 20 0 l 1,8,-1
 20 39 l 1,9,10
 74 48 74 48 88 59 c 128,-1,11
 102 70 102 70 108 101 c 2,12,-1
 194 592 l 2,13,14
 197 606 197 606 197 618.5 c 128,-1,15
 197 631 197 631 183.5 639 c 128,-1,16
 170 647 170 647 129 654 c 1,17,-1
 135 693 l 1,18,-1
 608 693 l 1,19,20
 608 642.142857143 608 642.142857143 585 537 c 1,21,-1
 526 530 l 1,22,23
 525 599 525 599 522 616.5 c 128,-1,24
 519 634 519 634 511 635 c 0,25,26
 487 638 487 638 451 639 c 2,27,-1
 300 642 l 1,28,-1
 253 373 l 1,29,-1
 403 373 l 2,30,31
 411.21875 373 411.21875 373 422.109375 393.5 c 128,-1,32
 433 414 433 414 447 444 c 1,33,-1
 478 441 l 1,34,35
 461 347 461 347 457 243 c 1,36,-1
 420 237 l 1,37,38
 414 292 414 292 410.5 306 c 128,-1,39
 407 320 407 320 400 320 c 2,40,-1
 243 320 l 1,41,-1
 196 51 l 1,42,-1
 285 52 l 1,43,44
 386.082474227 54.7319587629 386.082474227 54.7319587629 403.041237113 58.3659793814 c 128,-1,45
 420 62 420 62 430 66 c 1,46,47
 448 71 448 71 494 184 c 1,48,-1
 549 179 l 1,5,6
EndSplineSet
Position2: "'cpsp' Capital Spacing in Latin lookup 0 subtable" dx=5 dy=0 dh=10 dv=0
EndChar

StartChar: Emacron
Encoding: 274 274 37
Width: 592
Flags: HMW
HStem: 0 51<196 196 196 507> 320 53<253 400 243 403> 640 52 804 60<298 536 287 547>
VStem: 420 37<237 243> 526 59<530 537>
LayerCount: 2
Fore
SplineSet
536 804 m 1,0,-1
 287 804 l 1,1,-1
 298 864 l 1,2,-1
 547 864 l 1,3,-1
 536 804 l 1,0,-1
549 179 m 1,4,5
 539.610687023 99.1908396947 539.610687023 99.1908396947 507 0 c 1,6,-1
 20 0 l 1,7,-1
 20 39 l 1,8,9
 74 48 74 48 88 59 c 128,-1,10
 102 70 102 70 108 101 c 2,11,-1
 194 592 l 2,12,13
 197 606 197 606 197 618.5 c 128,-1,14
 197 631 197 631 183.5 639 c 128,-1,15
 170 647 170 647 129 654 c 1,16,-1
 135 693 l 1,17,-1
 608 693 l 1,18,19
 608 642.142857143 608 642.142857143 585 537 c 1,20,-1
 526 530 l 1,21,22
 525 599 525 599 522 616.5 c 128,-1,23
 519 634 519 634 511 635 c 0,24,25
 487 638 487 638 451 639 c 2,26,-1
 300 642 l 1,27,-1
 253 373 l 1,28,-1
 403 373 l 2,29,30
 411.21875 373 411.21875 373 422.109375 393.5 c 128,-1,31
 433 414 433 414 447 444 c 1,32,-1
 478 441 l 1,33,34
 461 347 461 347 457 243 c 1,35,-1
 420 237 l 1,36,37
 414 292 414 292 410.5 306 c 128,-1,38
 407 320 407 320 400 320 c 2,39,-1
 243 320 l 1,40,-1
 196 51 l 1,41,-1
 285 52 l 1,42,43
 386.082474227 54.7319587629 386.082474227 54.7319587629 403.041237113 58.3659793814 c 128,-1,44
 420 62 420 62 430 66 c 1,45,46
 448 71 448 71 494 184 c 1,47,-1
 549 179 l 1,4,5
EndSplineSet
Position2: "'cpsp' Capital Spacing in Latin lookup 0 subtable" dx=5 dy=0 dh=10 dv=0
EndChar

StartChar: Eng
Encoding: 330 330 38
Width: 737
Flags: HMW
HStem: -129 107<397 410.5 391.5 471> 0 44 654 39<129 333 786 786>
VStem: 21 151<0 80 39 80> 21 768<0 693 39 693> 627 160
LayerCount: 2
Fore
SplineSet
518 21 m 1,0,-1
 269 592 l 1,1,-1
 261 592 l 1,2,-1
 174 95 l 2,3,4
 172 85 172 85 172 77 c 0,5,6
 172 52 172 52 195 50 c 1,7,-1
 278 39 l 1,8,-1
 273 0 l 1,9,-1
 21 0 l 1,10,-1
 21 39 l 1,11,12
 75 48 75 48 88.5 59 c 128,-1,13
 102 70 102 70 108 101 c 2,14,-1
 194 592 l 2,15,16
 197 606 197 606 197 618.5 c 128,-1,17
 197 631 197 631 183.5 639 c 128,-1,18
 170 647 170 647 129 654 c 1,19,-1
 135 693 l 1,20,-1
 333 693 l 1,21,-1
 548 189 l 1,22,-1
 555 189 l 1,23,-1
 624 580 l 2,24,25
 627 595 627 595 627 609.5 c 128,-1,26
 627 624 627 624 613 634.5 c 128,-1,27
 599 645 599 645 584.5 648 c 128,-1,28
 570 651 570 651 541 654 c 1,29,-1
 547 693 l 1,30,-1
 789 693 l 1,31,-1
 786 654 l 1,32,-1
 722 642 l 2,33,34
 705.105263158 638.245614035 705.105263158 638.245614035 700.5 627.5 c 0,35,36
 699 624 699 624 698 616 c 2,37,-1
 615 149 l 2,38,39
 565 -129 565 -129 405 -129 c 0,40,41
 359 -129 359 -129 359 -106 c 0,42,43
 359 -80 359 -80 373 -51 c 128,-1,44
 387 -22 387 -22 400 -22 c 0,45,46
 410 -22 410 -22 435 -28.5 c 128,-1,47
 460 -35 460 -35 473 -35 c 0,48,49
 499 -35 499 -35 518 21 c 1,0,-1
EndSplineSet
Position2: "'cpsp' Capital Spacing in Latin lookup 0 subtable" dx=5 dy=0 dh=10 dv=0
EndChar

StartChar: Eogonek
Encoding: 280 280 39
Width: 592
Flags: HMW
HStem: -215 56<319.5 403.5> 0 52<196 285 196 378> 320 53<253 400 243 403> 640 52
VStem: 259 85<-130 -113.5> 420 37<237 243> 526 59<530 537>
LayerCount: 2
Fore
SplineSet
344 -116 m 0,0,1
 344 -159 344 -159 396 -159 c 0,2,3
 422 -159 422 -159 452 -149 c 1,4,-1
 461 -169 l 1,5,6
 401 -215 401 -215 342 -215 c 0,7,8
 307 -215 307 -215 283 -193.5 c 128,-1,9
 259 -172 259 -172 259 -136 c 128,-1,10
 259 -100 259 -100 291 -61.5 c 128,-1,11
 323 -23 323 -23 378 0 c 1,12,-1
 21 0 l 1,13,-1
 21 39 l 1,14,15
 75 48 75 48 88.5 59 c 128,-1,16
 102 70 102 70 108 101 c 2,17,-1
 194 592 l 2,18,19
 197 606 197 606 197 618.5 c 128,-1,20
 197 631 197 631 183.5 639 c 128,-1,21
 170 647 170 647 129 654 c 1,22,-1
 135 693 l 1,23,-1
 608 693 l 1,24,25
 608 642.142857143 608 642.142857143 585 537 c 1,26,-1
 526 530 l 1,27,28
 525 599 525 599 522 616.5 c 128,-1,29
 519 634 519 634 511 635 c 0,30,31
 487 638 487 638 451 639 c 2,32,-1
 300 642 l 1,33,-1
 253 373 l 1,34,-1
 403 373 l 2,35,36
 411.21875 373 411.21875 373 422.109375 393.5 c 128,-1,37
 433 414 433 414 447 444 c 1,38,-1
 478 441 l 1,39,40
 461 347 461 347 457 243 c 1,41,-1
 420 237 l 1,42,43
 414 292 414 292 410.5 306 c 128,-1,44
 407 320 407 320 400 320 c 2,45,-1
 243 320 l 1,46,-1
 196 52 l 1,47,-1
 285 52 l 1,48,49
 386.082474227 54.7319587629 386.082474227 54.7319587629 403.041237113 58.3659793814 c 128,-1,50
 420 62 420 62 430 66 c 1,51,52
 448 71 448 71 494 184 c 1,53,-1
 549 179 l 1,54,55
 539.610687023 99.1908396947 539.610687023 99.1908396947 507 0 c 1,56,57
 442 -2 442 -2 393 -35.5 c 128,-1,58
 344 -69 344 -69 344 -116 c 0,0,1
EndSplineSet
Position2: "'cpsp' Capital Spacing in Latin lookup 0 subtable" dx=5 dy=0 dh=10 dv=0
EndChar

StartChar: Eth
Encoding: 208 208 40
Width: 690
Flags: HMW
HStem: 0 53<301.5 311> 338 60<65 150 49 160 257 406> 640 53<300 395 300 300>
VStem: 589 114<326 493 326 495.5>
LayerCount: 2
Fore
SplineSet
311 0 m 2,0,-1
 22 0 l 1,1,-1
 22 39 l 1,2,3
 76 48 76 48 89 59 c 128,-1,4
 102 70 102 70 108 101 c 2,5,-1
 150 338 l 1,6,-1
 49 338 l 1,7,-1
 65 398 l 1,8,-1
 160 398 l 1,9,-1
 195 592 l 2,10,11
 198 607 198 607 198 619 c 128,-1,12
 198 631 198 631 184.5 639 c 128,-1,13
 171 647 171 647 129 654 c 1,14,-1
 135 693 l 1,15,-1
 426 693 l 2,16,17
 499 693 499 693 554 670.5 c 128,-1,18
 609 648 609 648 640.5 609.5 c 0,19,20
 703 533.111111111 703 533.111111111 703 424 c 0,21,22
 703 265.692307692 703 265.692307692 611.5 139 c 0,23,24
 566 76 566 76 488 38 c 128,-1,25
 410 0 410 0 311 0 c 2,0,-1
406 338 m 1,26,-1
 246 338 l 1,27,-1
 206 109 l 2,28,29
 203 88 203 88 203 87 c 0,30,31
 203 71 203 71 220 67 c 0,32,33
 287 53 287 53 322 53 c 0,34,35
 453 53 453 53 521 151 c 128,-1,36
 589 249 589 249 589 405 c 0,37,38
 589 469 589 469 570.5 517.5 c 128,-1,39
 552 566 552 566 522 591 c 0,40,41
 463.2 640 463.2 640 395 640 c 2,42,-1
 300 640 l 1,43,-1
 257 398 l 1,44,-1
 422 398 l 1,45,-1
 406 338 l 1,26,-1
EndSplineSet
Position2: "'cpsp' Capital Spacing in Latin lookup 0 subtable" dx=5 dy=0 dh=10 dv=0
EndChar

StartChar: F
Encoding: 70 70 41
Width: 546
Flags: HMW
HStem: 0 44 311 53<251 403 242 405> 640 52
VStem: 434 37<228 234> 526 59<530 537>
LayerCount: 2
Fore
SplineSet
310 0 m 1,0,-1
 20 0 l 1,1,-1
 20 39 l 1,2,3
 74 48 74 48 88 59 c 128,-1,4
 102 70 102 70 108 101 c 2,5,-1
 194 592 l 2,6,7
 197 606 197 606 197 618.5 c 128,-1,8
 197 631 197 631 183.5 639 c 128,-1,9
 170 647 170 647 129 654 c 1,10,-1
 135 693 l 1,11,-1
 608 693 l 1,12,13
 608 642.142857143 608 642.142857143 585 537 c 1,14,-1
 526 530 l 1,15,16
 525 599 525 599 522 616.5 c 128,-1,17
 519 634 519 634 511 635 c 0,18,19
 487 638 487 638 451 639 c 2,20,-1
 300 642 l 1,21,-1
 251 364 l 1,22,-1
 405 364 l 2,23,24
 430 364 430 364 462 435 c 1,25,-1
 492 432 l 1,26,27
 475 338 475 338 471 234 c 1,28,-1
 434 228 l 1,29,30
 425 311 425 311 403 311 c 2,31,-1
 242 311 l 1,32,-1
 204 95 l 2,33,34
 202 85 202 85 202 77 c 0,35,36
 202 52 202 52 225 50 c 2,37,-1
 315 39 l 1,38,-1
 310 0 l 1,0,-1
EndSplineSet
Position2: "'cpsp' Capital Spacing in Latin lookup 0 subtable" dx=5 dy=0 dh=10 dv=0
EndChar

StartChar: G
Encoding: 71 71 42
Width: 649
Flags: HMW
HStem: -9 56<308.5 365> 264 39<396 640 407 640> 649 53<332 441.5> 654 20G
VStem: 60 114<207 362> 465 175<220 303>
LayerCount: 2
Fore
SplineSet
443 63 m 1,0,-1
 463 202 l 2,1,2
 465 218 465 218 465 229 c 128,-1,3
 465 240 465 240 451.5 248.5 c 128,-1,4
 438 257 438 257 396 264 c 1,5,-1
 407 303 l 1,6,-1
 640 303 l 1,7,-1
 640 264 l 1,8,-1
 587 252 l 2,9,10
 567 248 567 248 563 226 c 2,11,-1
 536 37 l 1,12,13
 503 20 503 20 442.5 5.5 c 128,-1,14
 382 -9 382 -9 321 -9 c 0,15,16
 192 -9 192 -9 126 72.5 c 128,-1,17
 60 154 60 154 60 276.114035088 c 128,-1,19
 60 398.228070175 60 398.228070175 110.5 501 c 0,20,21
 139 559 139 559 181 602.5 c 128,-1,22
 223 646 223 646 290.5 674 c 128,-1,23
 358 702 358 702 425.5 702 c 128,-1,24
 493 702 493 702 548.5 692 c 128,-1,25
 604 682 604 682 620 674 c 1,26,27
 620 607 620 607 601 506 c 1,28,-1
 543 498 l 1,29,30
 536 614 536 614 522 626 c 0,31,32
 515 633 515 633 482.5 641 c 128,-1,33
 450 649 450 649 418 649 c 0,34,35
 336 649 336 649 279 597 c 0,36,37
 174 501.210526316 174 501.210526316 174 290 c 0,38,39
 174 172 174 172 226.5 109.5 c 128,-1,40
 279 47 279 47 358 47 c 0,41,42
 405 47 405 47 443 63 c 1,0,-1
EndSplineSet
Position2: "'cpsp' Capital Spacing in Latin lookup 0 subtable" dx=5 dy=0 dh=10 dv=0
EndChar

StartChar: Gbreve
Encoding: 286 286 43
Width: 649
Flags: HMW
HStem: -9 56<308.5 365> 264 39<396 640 407 640> 649 53<332 441.5> 654 20G 760 68<443.5 508.5 443.5 514>
VStem: 60 114<207 362> 465 175<220 303>
LayerCount: 2
Fore
SplineSet
602 900 m 1,0,-1
 639 900 l 1,1,2
 624 838 624 838 579.5 799 c 128,-1,3
 535 760 535 760 468 760 c 128,-1,4
 401 760 401 760 370.5 792 c 128,-1,5
 340 824 340 824 340 876 c 0,6,7
 340 892 340 892 341 900 c 1,8,-1
 378 900 l 1,9,10
 381 828 381 828 476 828 c 128,-1,11
 571 828 571 828 602 900 c 1,0,-1
443 63 m 1,12,-1
 463 202 l 2,13,14
 465 218 465 218 465 229 c 128,-1,15
 465 240 465 240 451.5 248.5 c 128,-1,16
 438 257 438 257 396 264 c 1,17,-1
 407 303 l 1,18,-1
 640 303 l 1,19,-1
 640 264 l 1,20,-1
 587 252 l 2,21,22
 567 248 567 248 563 226 c 2,23,-1
 536 37 l 1,24,25
 503 20 503 20 442.5 5.5 c 128,-1,26
 382 -9 382 -9 321 -9 c 0,27,28
 192 -9 192 -9 126 72.5 c 128,-1,29
 60 154 60 154 60 276.114035088 c 128,-1,31
 60 398.228070175 60 398.228070175 110.5 501 c 0,32,33
 139 559 139 559 181 602.5 c 128,-1,34
 223 646 223 646 290.5 674 c 128,-1,35
 358 702 358 702 425.5 702 c 128,-1,36
 493 702 493 702 548.5 692 c 128,-1,37
 604 682 604 682 620 674 c 1,38,39
 620 607 620 607 601 506 c 1,40,-1
 543 498 l 1,41,42
 536 614 536 614 522 626 c 0,43,44
 515 633 515 633 482.5 641 c 128,-1,45
 450 649 450 649 418 649 c 0,46,47
 336 649 336 649 279 597 c 0,48,49
 174 501.210526316 174 501.210526316 174 290 c 0,50,51
 174 172 174 172 226.5 109.5 c 128,-1,52
 279 47 279 47 358 47 c 0,53,54
 405 47 405 47 443 63 c 1,12,-1
EndSplineSet
Position2: "'cpsp' Capital Spacing in Latin lookup 0 subtable" dx=5 dy=0 dh=10 dv=0
EndChar

StartChar: Gcaron
Encoding: 486 486 44
Width: 649
Flags: HMW
HStem: -9 56<308.5 365> 264 39<396 640 407 640> 649 53<332 441.5> 654 20G
VStem: 60 114<207 362> 465 175<220 303>
LayerCount: 2
Fore
SplineSet
633 891 m 1,0,-1
 476 752 l 1,1,-1
 420 752 l 1,2,-1
 305 891 l 1,3,-1
 335 917 l 1,4,-1
 457 826 l 1,5,-1
 613 917 l 1,6,-1
 633 891 l 1,0,-1
443 63 m 1,7,-1
 463 202 l 2,8,9
 465 218 465 218 465 229 c 128,-1,10
 465 240 465 240 451.5 248.5 c 128,-1,11
 438 257 438 257 396 264 c 1,12,-1
 407 303 l 1,13,-1
 640 303 l 1,14,-1
 640 264 l 1,15,-1
 587 252 l 2,16,17
 567 248 567 248 563 226 c 2,18,-1
 536 37 l 1,19,20
 503 20 503 20 442.5 5.5 c 128,-1,21
 382 -9 382 -9 321 -9 c 0,22,23
 192 -9 192 -9 126 72.5 c 128,-1,24
 60 154 60 154 60 276.114035088 c 0,25,26
 60 398.228070175 60 398.228070175 110.5 501 c 0,27,28
 139 559 139 559 181 602.5 c 128,-1,29
 223 646 223 646 290.5 674 c 128,-1,30
 358 702 358 702 425.5 702 c 128,-1,31
 493 702 493 702 548.5 692 c 128,-1,32
 604 682 604 682 620 674 c 1,33,34
 620 607 620 607 601 506 c 1,35,-1
 543 498 l 1,36,37
 536 614 536 614 522 626 c 0,38,39
 515 633 515 633 482.5 641 c 128,-1,40
 450 649 450 649 418 649 c 0,41,42
 336 649 336 649 279 597 c 0,43,44
 174 501.210526316 174 501.210526316 174 290 c 0,45,46
 174 172 174 172 226.5 109.5 c 128,-1,47
 279 47 279 47 358 47 c 0,48,49
 405 47 405 47 443 63 c 1,7,-1
EndSplineSet
Position2: "'cpsp' Capital Spacing in Latin lookup 0 subtable" dx=5 dy=0 dh=10 dv=0
EndChar

StartChar: Gcircumflex
Encoding: 284 284 45
Width: 649
Flags: HMW
HStem: -9 56<308.5 365> 264 39<396 640 407 640> 649 53<332 441.5> 654 20G
VStem: 60 114<207 362> 465 175<220 303>
LayerCount: 2
Fore
SplineSet
624 775 m 1,0,-1
 594 749 l 1,1,-1
 472 840 l 1,2,-1
 316 749 l 1,3,-1
 296 775 l 1,4,-1
 452 914 l 1,5,-1
 508 914 l 1,6,-1
 624 775 l 1,0,-1
443 63 m 1,7,-1
 463 202 l 2,8,9
 465 218 465 218 465 229 c 128,-1,10
 465 240 465 240 451.5 248.5 c 128,-1,11
 438 257 438 257 396 264 c 1,12,-1
 407 303 l 1,13,-1
 640 303 l 1,14,-1
 640 264 l 1,15,-1
 587 252 l 2,16,17
 567 248 567 248 563 226 c 2,18,-1
 536 37 l 1,19,20
 503 20 503 20 442.5 5.5 c 128,-1,21
 382 -9 382 -9 321 -9 c 0,22,23
 192 -9 192 -9 126 72.5 c 128,-1,24
 60 154 60 154 60 276.114035088 c 128,-1,26
 60 398.228070175 60 398.228070175 110.5 501 c 0,27,28
 139 559 139 559 181 602.5 c 128,-1,29
 223 646 223 646 290.5 674 c 128,-1,30
 358 702 358 702 425.5 702 c 128,-1,31
 493 702 493 702 548.5 692 c 128,-1,32
 604 682 604 682 620 674 c 1,33,34
 620 607 620 607 601 506 c 1,35,-1
 543 498 l 1,36,37
 536 614 536 614 522 626 c 0,38,39
 515 633 515 633 482.5 641 c 128,-1,40
 450 649 450 649 418 649 c 0,41,42
 336 649 336 649 279 597 c 0,43,44
 174 501.210526316 174 501.210526316 174 290 c 0,45,46
 174 172 174 172 226.5 109.5 c 128,-1,47
 279 47 279 47 358 47 c 0,48,49
 405 47 405 47 443 63 c 1,7,-1
EndSplineSet
Position2: "'cpsp' Capital Spacing in Latin lookup 0 subtable" dx=5 dy=0 dh=10 dv=0
EndChar

StartChar: Gcommaaccent
Encoding: 290 290 46
Width: 649
Flags: HMW
HStem: -210 21G<251 251> -9 56<308.5 365> 264 39<396 640 407 640> 649 53<332 441.5> 654 20G
VStem: 60 114<207 362> 274 95<-79.5 -57.5 -95.5 -55> 465 175<220 303>
LayerCount: 2
Fore
SplineSet
443 63 m 1,0,-1
 463 202 l 2,1,2
 465 218 465 218 465 229 c 128,-1,3
 465 240 465 240 451.5 248.5 c 128,-1,4
 438 257 438 257 396 264 c 1,5,-1
 407 303 l 1,6,-1
 640 303 l 1,7,-1
 640 264 l 1,8,-1
 587 252 l 2,9,10
 567 248 567 248 563 226 c 2,11,-1
 536 37 l 1,12,13
 503 20 503 20 442.5 5.5 c 128,-1,14
 382 -9 382 -9 321 -9 c 0,15,16
 192 -9 192 -9 126 72.5 c 128,-1,17
 60 154 60 154 60 276.114035088 c 128,-1,19
 60 398.228070175 60 398.228070175 110.5 501 c 0,20,21
 139 559 139 559 181 602.5 c 128,-1,22
 223 646 223 646 290.5 674 c 128,-1,23
 358 702 358 702 425.5 702 c 128,-1,24
 493 702 493 702 548.5 692 c 128,-1,25
 604 682 604 682 620 674 c 1,26,27
 620 607 620 607 601 506 c 1,28,-1
 543 498 l 1,29,30
 536 614 536 614 522 626 c 0,31,32
 515 633 515 633 482.5 641 c 128,-1,33
 450 649 450 649 418 649 c 0,34,35
 336 649 336 649 279 597 c 0,36,37
 174 501.210526316 174 501.210526316 174 290 c 0,38,39
 174 172 174 172 226.5 109.5 c 128,-1,40
 279 47 279 47 358 47 c 0,41,42
 405 47 405 47 443 63 c 1,0,-1
251 -210 m 1,43,-1
 230 -185 l 1,44,45
 287 -149 287 -149 287 -117 c 0,46,47
 287 -108 287 -108 280.5 -94 c 128,-1,48
 274 -80 274 -80 274 -64 c 128,-1,49
 274 -48 274 -48 288.5 -34.5 c 128,-1,50
 303 -21 303 -21 323 -21 c 128,-1,51
 343 -21 343 -21 356 -35.5 c 128,-1,52
 369 -50 369 -50 369 -79 c 128,-1,53
 369 -108 369 -108 338 -144.5 c 128,-1,54
 307 -181 307 -181 251 -210 c 1,43,-1
EndSplineSet
Position2: "'cpsp' Capital Spacing in Latin lookup 0 subtable" dx=5 dy=0 dh=10 dv=0
EndChar

StartChar: commaaccent
Encoding: 806 806 47
Width: 120
Flags: HMW
HStem: -210 21G<-58 -58>
VStem: -35 95<-79.5 -57.5 -95.5 -55>
LayerCount: 2
Fore
SplineSet
-58 -210 m 1,0,-1
 -79 -185 l 1,1,2
 -22 -149 -22 -149 -22 -117 c 0,3,4
 -22 -108 -22 -108 -28.5 -94 c 128,-1,5
 -35 -80 -35 -80 -35 -64 c 0,6,7
 -35 -48 -35 -48 -20.5 -34.5 c 128,-1,8
 -6 -21 -6 -21 14 -21 c 128,-1,9
 34 -21 34 -21 47 -35.5 c 128,-1,10
 60 -50 60 -50 60 -79 c 0,11,12
 60 -108 60 -108 29 -144.5 c 128,-1,13
 -2 -181 -2 -181 -58 -210 c 1,0,-1
EndSplineSet
EndChar

StartChar: Gdotaccent
Encoding: 288 288 48
Width: 649
Flags: HMW
HStem: -9 56<308.5 365> 264 39<396 640 407 640> 649 53<332 441.5> 654 20G 783 111<455.5 487 454 488.5>
VStem: 60 114<207 362> 417 112<824 853.5> 465 175<220 303>
LayerCount: 2
Fore
SplineSet
513 880.5 m 128,-1,1
 529 867 529 867 529 841.5 c 128,-1,2
 529 816 529 816 513 799.5 c 128,-1,3
 497 783 497 783 471 783 c 0,4,5
 417 783 417 783 417 839 c 0,6,7
 417 862 417 862 431.5 878 c 128,-1,8
 446 894 446 894 471.5 894 c 128,-1,0
 497 894 497 894 513 880.5 c 128,-1,1
443 63 m 1,9,-1
 463 202 l 2,10,11
 465 218 465 218 465 229 c 128,-1,12
 465 240 465 240 451.5 248.5 c 128,-1,13
 438 257 438 257 396 264 c 1,14,-1
 407 303 l 1,15,-1
 640 303 l 1,16,-1
 640 264 l 1,17,-1
 587 252 l 2,18,19
 567 248 567 248 563 226 c 2,20,-1
 536 37 l 1,21,22
 503 20 503 20 442.5 5.5 c 128,-1,23
 382 -9 382 -9 321 -9 c 0,24,25
 192 -9 192 -9 126 72.5 c 128,-1,26
 60 154 60 154 60 276.114035088 c 128,-1,28
 60 398.228070175 60 398.228070175 110.5 501 c 0,29,30
 139 559 139 559 181 602.5 c 128,-1,31
 223 646 223 646 290.5 674 c 128,-1,32
 358 702 358 702 425.5 702 c 128,-1,33
 493 702 493 702 548.5 692 c 128,-1,34
 604 682 604 682 620 674 c 1,35,36
 620 607 620 607 601 506 c 1,37,-1
 543 498 l 1,38,39
 536 614 536 614 522 626 c 0,40,41
 515 633 515 633 482.5 641 c 128,-1,42
 450 649 450 649 418 649 c 0,43,44
 336 649 336 649 279 597 c 0,45,46
 174 501.210526316 174 501.210526316 174 290 c 0,47,48
 174 172 174 172 226.5 109.5 c 128,-1,49
 279 47 279 47 358 47 c 0,50,51
 405 47 405 47 443 63 c 1,9,-1
EndSplineSet
Position2: "'cpsp' Capital Spacing in Latin lookup 0 subtable" dx=5 dy=0 dh=10 dv=0
EndChar

StartChar: H
Encoding: 72 72 49
Width: 746
Flags: HMW
HStem: 0 39<22 271 22 22> 327 60<255 557 245 567> 654 39<129 387 384 384 793 793>
VStem: 22 774<0 693 39 693>
LayerCount: 2
Fore
SplineSet
680 0 m 1,0,-1
 431 0 l 1,1,-1
 431 39 l 1,2,3
 485 48 485 48 498 59 c 128,-1,4
 511 70 511 70 517 101 c 2,5,-1
 557 327 l 1,6,-1
 245 327 l 1,7,-1
 205 103 l 2,8,9
 202 91 202 91 202 72.5 c 128,-1,10
 202 54 202 54 225 49 c 2,11,-1
 276 39 l 1,12,-1
 271 0 l 1,13,-1
 22 0 l 1,14,-1
 22 39 l 1,15,16
 76 48 76 48 89 59 c 128,-1,17
 102 70 102 70 108 101 c 2,18,-1
 194 592 l 2,19,20
 197 606 197 606 197 618.5 c 128,-1,21
 197 631 197 631 183.5 639 c 128,-1,22
 170 647 170 647 129 654 c 1,23,-1
 135 693 l 1,24,-1
 387 693 l 1,25,-1
 384 654 l 1,26,-1
 320 642 l 2,27,28
 303.105263158 638.245614035 303.105263158 638.245614035 298.5 627.5 c 0,29,30
 297 624 297 624 296 616 c 2,31,-1
 255 387 l 1,32,-1
 567 387 l 1,33,-1
 603 592 l 2,34,35
 606 606 606 606 606 618.5 c 128,-1,36
 606 631 606 631 592.5 639 c 128,-1,37
 579 647 579 647 538 654 c 1,38,-1
 544 693 l 1,39,-1
 796 693 l 1,40,-1
 793 654 l 1,41,-1
 729 642 l 2,42,43
 712.105263158 638.245614035 712.105263158 638.245614035 707.5 627.5 c 0,44,45
 706 624 706 624 705 616 c 2,46,-1
 614 101 l 2,47,48
 611 83 611 83 611 78 c 0,49,50
 611 55 611 55 631 50 c 2,51,-1
 685 39 l 1,52,-1
 680 0 l 1,0,-1
EndSplineSet
Position2: "'cpsp' Capital Spacing in Latin lookup 0 subtable" dx=5 dy=0 dh=10 dv=0
EndChar

StartChar: Hbar
Encoding: 294 294 50
Width: 746
Flags: HMW
HStem: 0 39<22 271 22 22> 327 60<255 557 245 567> 473 60<94 173 78 184 281 582 690 775> 654 39<129 387 384 384 793 793>
VStem: 22 774<0 693 39 693>
LayerCount: 2
Fore
SplineSet
680 0 m 1,0,-1
 431 0 l 1,1,-1
 431 39 l 1,2,3
 485 48 485 48 498 59 c 128,-1,4
 511 70 511 70 517 101 c 2,5,-1
 557 327 l 1,6,-1
 245 327 l 1,7,-1
 205 103 l 2,8,9
 202 91 202 91 202 72.5 c 128,-1,10
 202 54 202 54 225 49 c 2,11,-1
 276 39 l 1,12,-1
 271 0 l 1,13,-1
 22 0 l 1,14,-1
 22 39 l 1,15,16
 76 48 76 48 89 59 c 128,-1,17
 102 70 102 70 108 101 c 2,18,-1
 173 473 l 1,19,-1
 78 473 l 1,20,-1
 94 533 l 1,21,-1
 184 533 l 1,22,-1
 194 592 l 2,23,24
 197 606 197 606 197 618.5 c 128,-1,25
 197 631 197 631 183.5 639 c 128,-1,26
 170 647 170 647 129 654 c 1,27,-1
 135 693 l 1,28,-1
 387 693 l 1,29,-1
 384 654 l 1,30,-1
 320 642 l 2,31,32
 303.105263158 638.245614035 303.105263158 638.245614035 298.5 627.5 c 0,33,34
 297 624 297 624 296 616 c 2,35,-1
 281 533 l 1,36,-1
 593 533 l 1,37,-1
 603 592 l 2,38,39
 606 606 606 606 606 618.5 c 128,-1,40
 606 631 606 631 592.5 639 c 128,-1,41
 579 647 579 647 538 654 c 1,42,-1
 544 693 l 1,43,-1
 796 693 l 1,44,-1
 793 654 l 1,45,-1
 729 642 l 2,46,47
 712.105263158 638.245614035 712.105263158 638.245614035 707.5 627.5 c 0,48,49
 706 624 706 624 705 616 c 2,50,-1
 690 533 l 1,51,-1
 791 533 l 1,52,-1
 775 473 l 1,53,-1
 680 473 l 1,54,-1
 614 101 l 2,55,56
 611 83 611 83 611 78 c 0,57,58
 611 55 611 55 631 50 c 2,59,-1
 685 39 l 1,60,-1
 680 0 l 1,0,-1
567 387 m 1,61,-1
 582 473 l 1,62,-1
 270 473 l 1,63,-1
 255 387 l 1,64,-1
 567 387 l 1,61,-1
EndSplineSet
Position2: "'cpsp' Capital Spacing in Latin lookup 0 subtable" dx=5 dy=0 dh=10 dv=0
EndChar

StartChar: Hcircumflex
Encoding: 292 292 51
Width: 746
Flags: HMW
HStem: 0 39<22 271 22 22> 327 60<255 557 245 567> 654 39<129 387 384 384 793 793>
VStem: 22 774<0 693 39 693>
LayerCount: 2
Fore
SplineSet
643 775 m 1,0,-1
 613 749 l 1,1,-1
 491 840 l 1,2,-1
 335 749 l 1,3,-1
 315 775 l 1,4,-1
 471 914 l 1,5,-1
 527 914 l 1,6,-1
 643 775 l 1,0,-1
680 0 m 1,7,-1
 431 0 l 1,8,-1
 431 39 l 1,9,10
 485 48 485 48 498 59 c 128,-1,11
 511 70 511 70 517 101 c 2,12,-1
 557 327 l 1,13,-1
 245 327 l 1,14,-1
 205 103 l 2,15,16
 202 91 202 91 202 72.5 c 128,-1,17
 202 54 202 54 225 49 c 2,18,-1
 276 39 l 1,19,-1
 271 0 l 1,20,-1
 22 0 l 1,21,-1
 22 39 l 1,22,23
 76 48 76 48 89 59 c 128,-1,24
 102 70 102 70 108 101 c 2,25,-1
 194 592 l 2,26,27
 197 606 197 606 197 618.5 c 128,-1,28
 197 631 197 631 183.5 639 c 128,-1,29
 170 647 170 647 129 654 c 1,30,-1
 135 693 l 1,31,-1
 387 693 l 1,32,-1
 384 654 l 1,33,-1
 320 642 l 2,34,35
 303.105263158 638.245614035 303.105263158 638.245614035 298.5 627.5 c 0,36,37
 297 624 297 624 296 616 c 2,38,-1
 255 387 l 1,39,-1
 567 387 l 1,40,-1
 603 592 l 2,41,42
 606 606 606 606 606 618.5 c 128,-1,43
 606 631 606 631 592.5 639 c 128,-1,44
 579 647 579 647 538 654 c 1,45,-1
 544 693 l 1,46,-1
 796 693 l 1,47,-1
 793 654 l 1,48,-1
 729 642 l 2,49,50
 712.105263158 638.245614035 712.105263158 638.245614035 707.5 627.5 c 0,51,52
 706 624 706 624 705 616 c 2,53,-1
 614 101 l 2,54,55
 611 83 611 83 611 78 c 0,56,57
 611 55 611 55 631 50 c 2,58,-1
 685 39 l 1,59,-1
 680 0 l 1,7,-1
EndSplineSet
Position2: "'cpsp' Capital Spacing in Latin lookup 0 subtable" dx=5 dy=0 dh=10 dv=0
EndChar

StartChar: I
Encoding: 73 73 52
Width: 337
Flags: HMW
HStem: 0 39<22 271 22 22> 654 39<130 388 385 385>
VStem: 22 366
LayerCount: 2
Fore
SplineSet
195 592 m 1,0,-1
 198 615 l 1,1,2
 198 631 198 631 184.5 639 c 128,-1,3
 171 647 171 647 130 654 c 1,4,-1
 136 693 l 1,5,-1
 388 693 l 1,6,-1
 385 654 l 1,7,-1
 321 642 l 2,8,9
 300 638 300 638 296 616 c 2,10,-1
 205 102 l 2,11,12
 202 86 202 86 202 76 c 0,13,14
 202 53 202 53 229 48 c 2,15,-1
 276 39 l 1,16,-1
 271 0 l 1,17,-1
 22 0 l 1,18,-1
 22 39 l 1,19,20
 76 48 76 48 89 59 c 128,-1,21
 102 70 102 70 108 101 c 2,22,-1
 195 592 l 1,0,-1
EndSplineSet
Position2: "'cpsp' Capital Spacing in Latin lookup 0 subtable" dx=5 dy=0 dh=10 dv=0
EndChar

StartChar: IJ
Encoding: 306 306 53
Width: 674
Flags: HMW
HStem: -129 94<368.5 379> 0 39<22 271 22 22> 654 39<130 388 385 385 734 734>
VStem: 22 715<0 693 39 693>
LayerCount: 2
Fore
SplineSet
467 210 m 2,0,-1
 534 592 l 2,1,2
 536 604 536 604 536 609 c 0,3,4
 536 628 536 628 520 637 c 128,-1,5
 504 646 504 646 459 654 c 1,6,-1
 465 693 l 1,7,-1
 737 693 l 1,8,-1
 734 654 l 1,9,-1
 660 642 l 2,10,11
 639 638 639 638 637 622 c 2,12,-1
 568 234 l 2,13,14
 538 64 538 64 473.5 -32.5 c 128,-1,15
 409 -129 409 -129 313 -129 c 0,16,17
 267 -129 267 -129 267 -106 c 0,18,19
 267 -80 267 -80 281 -51 c 128,-1,20
 295 -22 295 -22 308 -22 c 0,21,22
 318 -22 318 -22 343 -28.5 c 128,-1,23
 368 -35 368 -35 382 -35 c 0,24,25
 411.609756098 -35 411.609756098 -35 430.087486744 33.871541502 c 128,-1,26
 448.565217391 102.743083004 448.565217391 102.743083004 467 210 c 2,0,-1
195 592 m 1,27,-1
 198 615 l 1,28,29
 198 631 198 631 184.5 639 c 128,-1,30
 171 647 171 647 130 654 c 1,31,-1
 136 693 l 1,32,-1
 388 693 l 1,33,-1
 385 654 l 1,34,-1
 321 642 l 2,35,36
 300 638 300 638 296 616 c 2,37,-1
 205 102 l 2,38,39
 202 86 202 86 202 76 c 0,40,41
 202 53 202 53 229 48 c 2,42,-1
 276 39 l 1,43,-1
 271 0 l 1,44,-1
 22 0 l 1,45,-1
 22 39 l 1,46,47
 76 48 76 48 89 59 c 128,-1,48
 102 70 102 70 108 101 c 2,49,-1
 195 592 l 1,27,-1
EndSplineSet
Position2: "'cpsp' Capital Spacing in Latin lookup 0 subtable" dx=5 dy=0 dh=10 dv=0
EndChar

StartChar: J
Encoding: 74 74 54
Width: 334
Flags: HMW
HStem: -129 94<28.5 39> 654 39<119 397 394 394>
VStem: -73 470
LayerCount: 2
Fore
SplineSet
127 210 m 2,0,-1
 194 592 l 2,1,2
 196 604 196 604 196 609 c 0,3,4
 196 628 196 628 180 637 c 128,-1,5
 164 646 164 646 119 654 c 1,6,-1
 125 693 l 1,7,-1
 397 693 l 1,8,-1
 394 654 l 1,9,-1
 320 642 l 2,10,11
 299 638 299 638 297 622 c 2,12,-1
 228 234 l 2,13,14
 198 64 198 64 133.5 -32.5 c 128,-1,15
 69 -129 69 -129 -27 -129 c 0,16,17
 -73 -129 -73 -129 -73 -106 c 0,18,19
 -73 -80 -73 -80 -59 -51 c 128,-1,20
 -45 -22 -45 -22 -32 -22 c 0,21,22
 -22 -22 -22 -22 3 -28.5 c 128,-1,23
 28 -35 28 -35 42 -35 c 0,24,25
 71.6097560976 -35 71.6097560976 -35 90.0874867444 33.871541502 c 128,-1,26
 108.565217391 102.743083004 108.565217391 102.743083004 127 210 c 2,0,-1
EndSplineSet
Position2: "'cpsp' Capital Spacing in Latin lookup 0 subtable" dx=5 dy=0 dh=10 dv=0
EndChar

StartChar: Iacute
Encoding: 205 205 55
Width: 337
Flags: HMW
HStem: 0 39<22 271 22 22> 654 39<130 388 385 385>
VStem: 22 425
LayerCount: 2
Fore
SplineSet
435 842 m 1,0,-1
 217 749 l 1,1,-1
 193 785 l 1,2,-1
 391 914 l 1,3,-1
 447 863 l 1,4,-1
 435 842 l 1,0,-1
195 592 m 1,5,-1
 198 615 l 1,6,7
 198 631 198 631 184.5 639 c 128,-1,8
 171 647 171 647 130 654 c 1,9,-1
 136 693 l 1,10,-1
 388 693 l 1,11,-1
 385 654 l 1,12,-1
 321 642 l 2,13,14
 300 638 300 638 296 616 c 2,15,-1
 205 102 l 2,16,17
 202 86 202 86 202 76 c 0,18,19
 202 53 202 53 229 48 c 2,20,-1
 276 39 l 1,21,-1
 271 0 l 1,22,-1
 22 0 l 1,23,-1
 22 39 l 1,24,25
 76 48 76 48 89 59 c 128,-1,26
 102 70 102 70 108 101 c 2,27,-1
 195 592 l 1,5,-1
EndSplineSet
Position2: "'cpsp' Capital Spacing in Latin lookup 0 subtable" dx=5 dy=0 dh=10 dv=0
EndChar

StartChar: Icircumflex
Encoding: 206 206 56
Width: 337
Flags: HMW
HStem: 0 39<22 271 22 22> 654 39<130 388 385 385>
VStem: 22 423
LayerCount: 2
Fore
SplineSet
445 775 m 1,0,-1
 415 749 l 1,1,-1
 293 840 l 1,2,-1
 137 749 l 1,3,-1
 117 775 l 1,4,-1
 273 914 l 1,5,-1
 329 914 l 1,6,-1
 445 775 l 1,0,-1
195 592 m 1,7,-1
 198 615 l 1,8,9
 198 631 198 631 184.5 639 c 128,-1,10
 171 647 171 647 130 654 c 1,11,-1
 136 693 l 1,12,-1
 388 693 l 1,13,-1
 385 654 l 1,14,-1
 321 642 l 2,15,16
 300 638 300 638 296 616 c 2,17,-1
 205 102 l 2,18,19
 202 86 202 86 202 76 c 0,20,21
 202 53 202 53 229 48 c 2,22,-1
 276 39 l 1,23,-1
 271 0 l 1,24,-1
 22 0 l 1,25,-1
 22 39 l 1,26,27
 76 48 76 48 89 59 c 128,-1,28
 102 70 102 70 108 101 c 2,29,-1
 195 592 l 1,7,-1
EndSplineSet
Position2: "'cpsp' Capital Spacing in Latin lookup 0 subtable" dx=5 dy=0 dh=10 dv=0
EndChar

StartChar: Idieresis
Encoding: 207 207 57
Width: 337
Flags: HMW
HStem: 0 39<22 271 22 22> 654 39<130 388 385 385> 775 110<175 195 368 388>
VStem: 131 108<823 838> 324 108<823 838>
LayerCount: 2
Fore
SplineSet
371 775 m 0,0,1
 324 775 324 775 324 821 c 0,2,3
 324 847 324 847 342 866 c 128,-1,4
 360 885 360 885 385 885 c 0,5,6
 432 885 432 885 432 840 c 0,7,8
 432 814 432 814 414 794.5 c 128,-1,9
 396 775 396 775 371 775 c 0,0,1
178 775 m 0,10,11
 131 775 131 775 131 821 c 0,12,13
 131 847 131 847 149 866 c 128,-1,14
 167 885 167 885 192 885 c 0,15,16
 239 885 239 885 239 840 c 0,17,18
 239 814 239 814 221 794.5 c 128,-1,19
 203 775 203 775 178 775 c 0,10,11
195 592 m 1,20,-1
 198 615 l 1,21,22
 198 631 198 631 184.5 639 c 128,-1,23
 171 647 171 647 130 654 c 1,24,-1
 136 693 l 1,25,-1
 388 693 l 1,26,-1
 385 654 l 1,27,-1
 321 642 l 2,28,29
 300 638 300 638 296 616 c 2,30,-1
 205 102 l 2,31,32
 202 86 202 86 202 76 c 0,33,34
 202 53 202 53 229 48 c 2,35,-1
 276 39 l 1,36,-1
 271 0 l 1,37,-1
 22 0 l 1,38,-1
 22 39 l 1,39,40
 76 48 76 48 89 59 c 128,-1,41
 102 70 102 70 108 101 c 2,42,-1
 195 592 l 1,20,-1
EndSplineSet
Position2: "'cpsp' Capital Spacing in Latin lookup 0 subtable" dx=5 dy=0 dh=10 dv=0
EndChar

StartChar: Idotaccent
Encoding: 304 304 58
Width: 337
Flags: HMW
HStem: 0 39<22 271 22 22> 654 39<130 388 385 385> 783 111<271.5 303 270 304.5>
VStem: 233 112<824 853.5>
LayerCount: 2
Fore
SplineSet
329 880.5 m 128,-1,1
 345 867 345 867 345 841.5 c 128,-1,2
 345 816 345 816 329 799.5 c 128,-1,3
 313 783 313 783 287 783 c 0,4,5
 233 783 233 783 233 839 c 0,6,7
 233 862 233 862 247.5 878 c 128,-1,8
 262 894 262 894 287.5 894 c 128,-1,0
 313 894 313 894 329 880.5 c 128,-1,1
195 592 m 1,9,-1
 198 615 l 1,10,11
 198 631 198 631 184.5 639 c 128,-1,12
 171 647 171 647 130 654 c 1,13,-1
 136 693 l 1,14,-1
 388 693 l 1,15,-1
 385 654 l 1,16,-1
 321 642 l 2,17,18
 300 638 300 638 296 616 c 2,19,-1
 205 102 l 2,20,21
 202 86 202 86 202 76 c 0,22,23
 202 53 202 53 229 48 c 2,24,-1
 276 39 l 1,25,-1
 271 0 l 1,26,-1
 22 0 l 1,27,-1
 22 39 l 1,28,29
 76 48 76 48 89 59 c 128,-1,30
 102 70 102 70 108 101 c 2,31,-1
 195 592 l 1,9,-1
EndSplineSet
Position2: "'cpsp' Capital Spacing in Latin lookup 0 subtable" dx=5 dy=0 dh=10 dv=0
EndChar

StartChar: Igrave
Encoding: 204 204 59
Width: 337
Flags: HMW
HStem: 0 39<22 271 22 22> 654 39<130 388 385 385>
VStem: 22 366
LayerCount: 2
Fore
SplineSet
310 749 m 1,0,-1
 126 842 l 1,1,-1
 122 863 l 1,2,-1
 186 914 l 1,3,-1
 336 785 l 1,4,-1
 310 749 l 1,0,-1
195 592 m 1,5,-1
 198 615 l 1,6,7
 198 631 198 631 184.5 639 c 128,-1,8
 171 647 171 647 130 654 c 1,9,-1
 136 693 l 1,10,-1
 388 693 l 1,11,-1
 385 654 l 1,12,-1
 321 642 l 2,13,14
 300 638 300 638 296 616 c 2,15,-1
 205 102 l 2,16,17
 202 86 202 86 202 76 c 0,18,19
 202 53 202 53 229 48 c 2,20,-1
 276 39 l 1,21,-1
 271 0 l 1,22,-1
 22 0 l 1,23,-1
 22 39 l 1,24,25
 76 48 76 48 89 59 c 128,-1,26
 102 70 102 70 108 101 c 2,27,-1
 195 592 l 1,5,-1
EndSplineSet
Position2: "'cpsp' Capital Spacing in Latin lookup 0 subtable" dx=5 dy=0 dh=10 dv=0
EndChar

StartChar: Imacron
Encoding: 298 298 60
Width: 337
Flags: HMW
HStem: 0 39<22 271 22 22> 654 39<130 388 385 385> 804 60<164 402 153 413>
VStem: 22 391
LayerCount: 2
Fore
SplineSet
402 804 m 1,0,-1
 153 804 l 1,1,-1
 164 864 l 1,2,-1
 413 864 l 1,3,-1
 402 804 l 1,0,-1
195 592 m 1,4,-1
 198 615 l 1,5,6
 198 631 198 631 184.5 639 c 128,-1,7
 171 647 171 647 130 654 c 1,8,-1
 136 693 l 1,9,-1
 388 693 l 1,10,-1
 385 654 l 1,11,-1
 321 642 l 2,12,13
 300 638 300 638 296 616 c 2,14,-1
 205 102 l 2,15,16
 202 86 202 86 202 76 c 0,17,18
 202 53 202 53 229 48 c 2,19,-1
 276 39 l 1,20,-1
 271 0 l 1,21,-1
 22 0 l 1,22,-1
 22 39 l 1,23,24
 76 48 76 48 89 59 c 128,-1,25
 102 70 102 70 108 101 c 2,26,-1
 195 592 l 1,4,-1
EndSplineSet
Position2: "'cpsp' Capital Spacing in Latin lookup 0 subtable" dx=5 dy=0 dh=10 dv=0
EndChar

StartChar: Iogonek
Encoding: 302 302 61
Width: 336
Flags: HMW
HStem: -215 56<82.5 166.5> 0 39<21 141 21 21> 654 39<129 387 384 384>
VStem: 22 85<-130 -113.5>
LayerCount: 2
Fore
SplineSet
107 -116 m 0,0,1
 107 -159 107 -159 159 -159 c 0,2,3
 185 -159 185 -159 215 -149 c 1,4,-1
 224 -169 l 1,5,6
 164 -215 164 -215 105 -215 c 0,7,8
 70 -215 70 -215 46 -193.5 c 128,-1,9
 22 -172 22 -172 22 -136 c 128,-1,10
 22 -100 22 -100 54 -61.5 c 128,-1,11
 86 -23 86 -23 141 0 c 1,12,-1
 21 0 l 1,13,-1
 21 39 l 1,14,15
 75 48 75 48 88 59 c 128,-1,16
 101 70 101 70 107 101 c 2,17,-1
 194 592 l 1,18,-1
 197 615 l 1,19,20
 197 631 197 631 183.5 639 c 128,-1,21
 170 647 170 647 129 654 c 1,22,-1
 135 693 l 1,23,-1
 387 693 l 1,24,-1
 384 654 l 1,25,-1
 320 642 l 2,26,27
 299 638 299 638 295 616 c 2,28,-1
 204 102 l 2,29,30
 201 86 201 86 201 76 c 0,31,32
 201 53 201 53 228 48 c 2,33,-1
 275 39 l 1,34,-1
 270 0 l 1,35,36
 205 -2 205 -2 156 -35.5 c 128,-1,37
 107 -69 107 -69 107 -116 c 0,0,1
EndSplineSet
Position2: "'cpsp' Capital Spacing in Latin lookup 0 subtable" dx=5 dy=0 dh=10 dv=0
EndChar

StartChar: Itilde
Encoding: 296 296 62
Width: 337
Flags: HMW
HStem: 0 39<22 271 22 22> 654 39<130 388 385 385> 778 78<365 387> 805 78<203.5 220>
VStem: 22 455
LayerCount: 2
Fore
SplineSet
454 891 m 1,0,-1
 477 879 l 1,1,2
 412 778 412 778 366 778 c 0,3,4
 349 778 349 778 285 791.5 c 128,-1,5
 221 805 221 805 190 805 c 128,-1,6
 159 805 159 805 119 771 c 1,7,-1
 99 787 l 1,8,9
 141 840 141 840 168 861.5 c 128,-1,10
 195 883 195 883 218 883 c 128,-1,11
 241 883 241 883 303 869.5 c 128,-1,12
 365 856 365 856 389.5 856 c 128,-1,13
 414 856 414 856 454 891 c 1,0,-1
195 592 m 1,14,-1
 198 615 l 1,15,16
 198 631 198 631 184.5 639 c 128,-1,17
 171 647 171 647 130 654 c 1,18,-1
 136 693 l 1,19,-1
 388 693 l 1,20,-1
 385 654 l 1,21,-1
 321 642 l 2,22,23
 300 638 300 638 296 616 c 2,24,-1
 205 102 l 2,25,26
 202 86 202 86 202 76 c 0,27,28
 202 53 202 53 229 48 c 2,29,-1
 276 39 l 1,30,-1
 271 0 l 1,31,-1
 22 0 l 1,32,-1
 22 39 l 1,33,34
 76 48 76 48 89 59 c 128,-1,35
 102 70 102 70 108 101 c 2,36,-1
 195 592 l 1,14,-1
EndSplineSet
Position2: "'cpsp' Capital Spacing in Latin lookup 0 subtable" dx=5 dy=0 dh=10 dv=0
EndChar

StartChar: Jcircumflex
Encoding: 308 308 63
Width: 334
Flags: HMW
HStem: -129 94<28.5 39> 654 39<119 397 394 394>
VStem: -73 519
LayerCount: 2
Fore
SplineSet
446 775 m 1,0,-1
 416 749 l 1,1,-1
 294 840 l 1,2,-1
 138 749 l 1,3,-1
 118 775 l 1,4,-1
 274 914 l 1,5,-1
 330 914 l 1,6,-1
 446 775 l 1,0,-1
127 210 m 2,7,-1
 194 592 l 2,8,9
 196 604 196 604 196 609 c 0,10,11
 196 628 196 628 180 637 c 128,-1,12
 164 646 164 646 119 654 c 1,13,-1
 125 693 l 1,14,-1
 397 693 l 1,15,-1
 394 654 l 1,16,-1
 320 642 l 2,17,18
 299 638 299 638 297 622 c 2,19,-1
 228 234 l 2,20,21
 198 64 198 64 133.5 -32.5 c 128,-1,22
 69 -129 69 -129 -27 -129 c 0,23,24
 -73 -129 -73 -129 -73 -106 c 0,25,26
 -73 -80 -73 -80 -59 -51 c 128,-1,27
 -45 -22 -45 -22 -32 -22 c 0,28,29
 -22 -22 -22 -22 3 -28.5 c 128,-1,30
 28 -35 28 -35 42 -35 c 0,31,32
 71.6097560976 -35 71.6097560976 -35 90.0874867444 33.871541502 c 128,-1,33
 108.565217391 102.743083004 108.565217391 102.743083004 127 210 c 2,7,-1
EndSplineSet
Position2: "'cpsp' Capital Spacing in Latin lookup 0 subtable" dx=5 dy=0 dh=10 dv=0
EndChar

StartChar: K
Encoding: 75 75 64
Width: 668
Flags: HMW
HStem: 0 39<20 264 20 20> 654 39<129 387 384 384>
VStem: 20 717<0 693 39 693>
LayerCount: 2
Fore
SplineSet
644 0 m 1,0,-1
 494 0 l 1,1,-1
 289 302 l 1,2,-1
 232 253 l 1,3,-1
 205 102 l 2,4,5
 202 86 202 86 202 76 c 0,6,7
 202 53 202 53 229 48 c 1,8,-1
 269 39 l 1,9,-1
 264 0 l 1,10,-1
 20 0 l 1,11,-1
 20 39 l 1,12,13
 74 48 74 48 88 59 c 128,-1,14
 102 70 102 70 108 101 c 2,15,-1
 194 592 l 2,16,17
 197 606 197 606 197 618.5 c 128,-1,18
 197 631 197 631 183.5 639 c 128,-1,19
 170 647 170 647 129 654 c 1,20,-1
 135 693 l 1,21,-1
 387 693 l 1,22,-1
 384 654 l 1,23,-1
 320 642 l 2,24,25
 303.105263158 638.245614035 303.105263158 638.245614035 298.5 627.5 c 0,26,27
 297 624 297 624 296 616 c 2,28,-1
 249 352 l 1,29,-1
 556 608 l 2,30,31
 576 625 576 625 576 634 c 0,32,33
 576 650 576 650 512 653 c 1,34,-1
 518 693 l 1,35,-1
 737 693 l 1,36,-1
 734 651 l 1,37,38
 697.536585366 648.195121951 697.536585366 648.195121951 676.518292683 631.847560976 c 128,-1,40
 655.5 615.5 655.5 615.5 648 608 c 2,41,-1
 366 367 l 1,42,-1
 564 80 l 2,43,44
 577 60 577 60 594.5 51 c 128,-1,45
 612 42 612 42 649 39 c 1,46,-1
 644 0 l 1,0,-1
EndSplineSet
Position2: "'cpsp' Capital Spacing in Latin lookup 0 subtable" dx=5 dy=0 dh=10 dv=0
EndChar

StartChar: Kcommaaccent
Encoding: 310 310 65
Width: 668
Flags: HMW
HStem: -210 21G<260 260> 0 39<20 264 20 20> 654 39<129 387 384 384>
VStem: 283 95<-79.5 -57.5 -95.5 -55>
LayerCount: 2
Fore
SplineSet
644 0 m 1,0,-1
 494 0 l 1,1,-1
 289 302 l 1,2,-1
 232 253 l 1,3,-1
 205 102 l 2,4,5
 202 86 202 86 202 76 c 0,6,7
 202 53 202 53 229 48 c 1,8,-1
 269 39 l 1,9,-1
 264 0 l 1,10,-1
 20 0 l 1,11,-1
 20 39 l 1,12,13
 74 48 74 48 88 59 c 128,-1,14
 102 70 102 70 108 101 c 2,15,-1
 194 592 l 2,16,17
 197 606 197 606 197 618.5 c 128,-1,18
 197 631 197 631 183.5 639 c 128,-1,19
 170 647 170 647 129 654 c 1,20,-1
 135 693 l 1,21,-1
 387 693 l 1,22,-1
 384 654 l 1,23,-1
 320 642 l 2,24,25
 303.105263158 638.245614035 303.105263158 638.245614035 298.5 627.5 c 0,26,27
 297 624 297 624 296 616 c 2,28,-1
 249 352 l 1,29,-1
 556 608 l 2,30,31
 576 625 576 625 576 634 c 0,32,33
 576 650 576 650 512 653 c 1,34,-1
 518 693 l 1,35,-1
 737 693 l 1,36,-1
 734 651 l 1,37,38
 697.536585366 648.195121951 697.536585366 648.195121951 676.518292683 631.847560976 c 0,39,40
 655.5 615.5 655.5 615.5 648 608 c 2,41,-1
 366 367 l 1,42,-1
 564 80 l 2,43,44
 577 60 577 60 594.5 51 c 128,-1,45
 612 42 612 42 649 39 c 1,46,-1
 644 0 l 1,0,-1
260 -210 m 1,47,-1
 239 -185 l 1,48,49
 296 -149 296 -149 296 -117 c 0,50,51
 296 -108 296 -108 289.5 -94 c 128,-1,52
 283 -80 283 -80 283 -64 c 128,-1,53
 283 -48 283 -48 297.5 -34.5 c 128,-1,54
 312 -21 312 -21 332 -21 c 128,-1,55
 352 -21 352 -21 365 -35.5 c 128,-1,56
 378 -50 378 -50 378 -79 c 128,-1,57
 378 -108 378 -108 347 -144.5 c 128,-1,58
 316 -181 316 -181 260 -210 c 1,47,-1
EndSplineSet
Position2: "'cpsp' Capital Spacing in Latin lookup 0 subtable" dx=5 dy=0 dh=10 dv=0
EndChar

StartChar: L
Encoding: 76 76 66
Width: 558
Flags: HMW
HStem: 0 51<196 196 196 507> 654 39<129 387 384 384>
VStem: 20 534<0 208 39 208>
LayerCount: 2
Fore
SplineSet
554 208 m 1,0,1
 543.343065693 117.416058394 543.343065693 117.416058394 507 0 c 1,2,-1
 20 0 l 1,3,-1
 20 39 l 1,4,5
 74 48 74 48 88 59 c 128,-1,6
 102 70 102 70 108 101 c 2,7,-1
 194 592 l 2,8,9
 197 606 197 606 197 618.5 c 128,-1,10
 197 631 197 631 183.5 639 c 128,-1,11
 170 647 170 647 129 654 c 1,12,-1
 135 693 l 1,13,-1
 387 693 l 1,14,-1
 384 654 l 1,15,-1
 320 642 l 2,16,17
 303.105263158 638.245614035 303.105263158 638.245614035 298.5 627.5 c 0,18,19
 297 624 297 624 296 616 c 2,20,-1
 196 51 l 1,21,-1
 285 52 l 2,22,23
 397 54 397 54 416.231707317 59.743902439 c 128,-1,25
 435.463414634 65.487804878 435.463414634 65.487804878 500 213 c 1,26,-1
 554 208 l 1,0,1
EndSplineSet
Position2: "'cpsp' Capital Spacing in Latin lookup 0 subtable" dx=5 dy=0 dh=10 dv=0
EndChar

StartChar: Lacute
Encoding: 313 313 67
Width: 558
Flags: HMW
HStem: 0 51<196 196 196 507> 654 39<129 387 384 384>
VStem: 20 534<0 208 39 208>
LayerCount: 2
Fore
SplineSet
440 842 m 1,0,-1
 222 749 l 1,1,-1
 198 785 l 1,2,-1
 396 914 l 1,3,-1
 452 863 l 1,4,-1
 440 842 l 1,0,-1
554 208 m 1,5,6
 543.343065693 117.416058394 543.343065693 117.416058394 507 0 c 1,7,-1
 20 0 l 1,8,-1
 20 39 l 1,9,10
 74 48 74 48 88 59 c 128,-1,11
 102 70 102 70 108 101 c 2,12,-1
 194 592 l 2,13,14
 197 606 197 606 197 618.5 c 128,-1,15
 197 631 197 631 183.5 639 c 128,-1,16
 170 647 170 647 129 654 c 1,17,-1
 135 693 l 1,18,-1
 387 693 l 1,19,-1
 384 654 l 1,20,-1
 320 642 l 2,21,22
 303.105263158 638.245614035 303.105263158 638.245614035 298.5 627.5 c 0,23,24
 297 624 297 624 296 616 c 2,25,-1
 196 51 l 1,26,-1
 285 52 l 2,27,28
 397 54 397 54 416.231707317 59.743902439 c 0,29,30
 435.463414634 65.487804878 435.463414634 65.487804878 500 213 c 1,31,-1
 554 208 l 1,5,6
EndSplineSet
Position2: "'cpsp' Capital Spacing in Latin lookup 0 subtable" dx=5 dy=0 dh=10 dv=0
EndChar

StartChar: Lcaron
Encoding: 317 317 68
Width: 558
Flags: HMW
HStem: 0 51<196 196 196 507> 654 39<129 387 384 384>
VStem: 20 562
LayerCount: 2
Fore
SplineSet
484 577 m 1,0,-1
 445 591 l 1,1,2
 481 678 481 678 484 752 c 1,3,-1
 573 774 l 1,4,-1
 582 755 l 1,5,6
 554 658 554 658 484 577 c 1,0,-1
554 208 m 1,7,8
 543.343065693 117.416058394 543.343065693 117.416058394 507 0 c 1,9,-1
 20 0 l 1,10,-1
 20 39 l 1,11,12
 74 48 74 48 88 59 c 128,-1,13
 102 70 102 70 108 101 c 2,14,-1
 194 592 l 2,15,16
 197 606 197 606 197 618.5 c 128,-1,17
 197 631 197 631 183.5 639 c 128,-1,18
 170 647 170 647 129 654 c 1,19,-1
 135 693 l 1,20,-1
 387 693 l 1,21,-1
 384 654 l 1,22,-1
 320 642 l 2,23,24
 303.105263158 638.245614035 303.105263158 638.245614035 298.5 627.5 c 0,25,26
 297 624 297 624 296 616 c 2,27,-1
 196 51 l 1,28,-1
 285 52 l 2,29,30
 397 54 397 54 416.231707317 59.743902439 c 0,31,32
 435.463414634 65.487804878 435.463414634 65.487804878 500 213 c 1,33,-1
 554 208 l 1,7,8
EndSplineSet
Position2: "'cpsp' Capital Spacing in Latin lookup 0 subtable" dx=5 dy=0 dh=10 dv=0
EndChar

StartChar: caron.alt
Encoding: 65546 -1 69
Width: 107
Flags: HMW
HStem: 577 197<54 143>
VStem: 15 137
LayerCount: 2
Fore
SplineSet
54 577 m 1,0,-1
 15 591 l 1,1,2
 51 678 51 678 54 752 c 1,3,-1
 143 774 l 1,4,-1
 152 755 l 1,5,6
 124 658 124 658 54 577 c 1,0,-1
EndSplineSet
EndChar

StartChar: Lcommaaccent
Encoding: 315 315 70
Width: 558
Flags: HMW
HStem: -210 21G<205 205> 0 51<196 196 196 507> 654 39<129 387 384 384>
VStem: 228 95<-79.5 -57.5 -95.5 -55>
LayerCount: 2
Fore
SplineSet
554 208 m 1,0,1
 543.343065693 117.416058394 543.343065693 117.416058394 507 0 c 1,2,-1
 20 0 l 1,3,-1
 20 39 l 1,4,5
 74 48 74 48 88 59 c 128,-1,6
 102 70 102 70 108 101 c 2,7,-1
 194 592 l 2,8,9
 197 606 197 606 197 618.5 c 128,-1,10
 197 631 197 631 183.5 639 c 128,-1,11
 170 647 170 647 129 654 c 1,12,-1
 135 693 l 1,13,-1
 387 693 l 1,14,-1
 384 654 l 1,15,-1
 320 642 l 2,16,17
 303.105263158 638.245614035 303.105263158 638.245614035 298.5 627.5 c 0,18,19
 297 624 297 624 296 616 c 2,20,-1
 196 51 l 1,21,-1
 285 52 l 2,22,23
 397 54 397 54 416.231707317 59.743902439 c 0,24,25
 435.463414634 65.487804878 435.463414634 65.487804878 500 213 c 1,26,-1
 554 208 l 1,0,1
205 -210 m 1,27,-1
 184 -185 l 1,28,29
 241 -149 241 -149 241 -117 c 0,30,31
 241 -108 241 -108 234.5 -94 c 128,-1,32
 228 -80 228 -80 228 -64 c 128,-1,33
 228 -48 228 -48 242.5 -34.5 c 128,-1,34
 257 -21 257 -21 277 -21 c 128,-1,35
 297 -21 297 -21 310 -35.5 c 128,-1,36
 323 -50 323 -50 323 -79 c 128,-1,37
 323 -108 323 -108 292 -144.5 c 128,-1,38
 261 -181 261 -181 205 -210 c 1,27,-1
EndSplineSet
Position2: "'cpsp' Capital Spacing in Latin lookup 0 subtable" dx=5 dy=0 dh=10 dv=0
EndChar

StartChar: Ldotaccent
Encoding: 319 319 71
Width: 558
Flags: HMW
HStem: 0 51<196 196 196 507> 334 115<421.5 444.5> 654 39<129 387 384 384>
VStem: 374 118<384.5 401>
LayerCount: 2
Fore
SplineSet
554 208 m 1,0,1
 543.343065693 117.416058394 543.343065693 117.416058394 507 0 c 1,2,-1
 20 0 l 1,3,-1
 20 39 l 1,4,5
 74 48 74 48 88 59 c 128,-1,6
 102 70 102 70 108 101 c 2,7,-1
 194 592 l 2,8,9
 197 606 197 606 197 618.5 c 128,-1,10
 197 631 197 631 183.5 639 c 128,-1,11
 170 647 170 647 129 654 c 1,12,-1
 135 693 l 1,13,-1
 387 693 l 1,14,-1
 384 654 l 1,15,-1
 320 642 l 2,16,17
 303.105263158 638.245614035 303.105263158 638.245614035 298.5 627.5 c 0,18,19
 297 624 297 624 296 616 c 2,20,-1
 196 51 l 1,21,-1
 285 52 l 2,22,23
 397 54 397 54 416.231707317 59.743902439 c 0,24,25
 435.463414634 65.487804878 435.463414634 65.487804878 500 213 c 1,26,-1
 554 208 l 1,0,1
472.5 354.5 m 128,-1,28
 453 334 453 334 428 334 c 128,-1,29
 403 334 403 334 388.5 347 c 128,-1,30
 374 360 374 360 374 385 c 128,-1,31
 374 410 374 410 393.5 429.5 c 128,-1,32
 413 449 413 449 440 449 c 0,33,34
 492 449 492 449 492 402 c 0,35,27
 492 375 492 375 472.5 354.5 c 128,-1,28
EndSplineSet
Position2: "'cpsp' Capital Spacing in Latin lookup 0 subtable" dx=5 dy=0 dh=10 dv=0
EndChar

StartChar: Lslash
Encoding: 321 321 72
Width: 558
Flags: HMW
HStem: 0 51<196 196 196 507> 467 20G<427 427> 654 39<129 387 384 384>
VStem: 20 534<0 208 39 208>
LayerCount: 2
Fore
SplineSet
554 208 m 1,0,1
 543.343065693 117.416058394 543.343065693 117.416058394 507 0 c 1,2,-1
 20 0 l 1,3,-1
 20 39 l 1,4,5
 74 48 74 48 88 59 c 128,-1,6
 102 70 102 70 108 101 c 2,7,-1
 136 262 l 1,8,-1
 56 215 l 1,9,-1
 36 258 l 1,10,-1
 146 323 l 1,11,-1
 194 592 l 2,12,13
 197 606 197 606 197 618.5 c 128,-1,14
 197 631 197 631 183.5 639 c 128,-1,15
 170 647 170 647 129 654 c 1,16,-1
 135 693 l 1,17,-1
 387 693 l 1,18,-1
 384 654 l 1,19,-1
 320 642 l 2,20,21
 303.105263158 638.245614035 303.105263158 638.245614035 298.5 627.5 c 0,22,23
 297 624 297 624 296 616 c 2,24,-1
 255 386 l 1,25,-1
 427 487 l 1,26,-1
 447 444 l 1,27,-1
 244 325 l 1,28,-1
 196 51 l 1,29,-1
 285 52 l 2,30,31
 397 54 397 54 416.231707317 59.743902439 c 0,32,33
 435.463414634 65.487804878 435.463414634 65.487804878 500 213 c 1,34,-1
 554 208 l 1,0,1
EndSplineSet
Position2: "'cpsp' Capital Spacing in Latin lookup 0 subtable" dx=5 dy=0 dh=10 dv=0
EndChar

StartChar: M
Encoding: 77 77 73
Width: 872
Flags: HMW
HStem: 0 43 20 122<425 435 425 443 358 435> 654 39<123 338 885 885>
VStem: 109 64<68.5 101> 643 96<68.5 93>
LayerCount: 2
Fore
SplineSet
808 0 m 1,0,-1
 557 0 l 1,1,-1
 557 39 l 1,2,3
 608 48 608 48 623.5 58.5 c 128,-1,4
 639 69 639 69 643 93 c 2,5,-1
 711 550 l 2,6,7
 715 576 715 576 720 588 c 1,8,-1
 712 588 l 1,9,-1
 443 20 l 1,10,-1
 358 20 l 1,11,-1
 263 590 l 1,12,-1
 256 590 l 1,13,-1
 176 102 l 2,14,15
 173 86 173 86 173 76 c 0,16,17
 173 52 173 52 200 48 c 2,18,-1
 260 39 l 1,19,-1
 255 0 l 1,20,-1
 17 0 l 1,21,-1
 17 39 l 1,22,23
 73 49 73 49 88.5 60 c 128,-1,24
 104 71 104 71 109 101 c 2,25,-1
 189 592 l 2,26,27
 191 610 191 610 191 614 c 0,28,29
 191 630 191 630 177.5 638.5 c 128,-1,30
 164 647 164 647 123 654 c 1,31,-1
 128 693 l 1,32,-1
 338 693 l 1,33,-1
 422 167 l 2,34,35
 425 149 425 149 425 142 c 1,36,-1
 435 142 l 1,37,38
 436 146 436 146 437.5 149.5 c 128,-1,39
 439 153 439 153 440.5 157 c 128,-1,40
 442 161 442 161 443 162 c 2,41,-1
 690 693 l 1,42,-1
 887 693 l 1,43,-1
 885 654 l 1,44,-1
 841 642 l 2,45,46
 821 636 821 636 819 619 c 2,47,-1
 742 102 l 2,48,49
 739 85 739 85 739 76 c 0,50,51
 739 53 739 53 766 48 c 2,52,-1
 813 39 l 1,53,-1
 808 0 l 1,0,-1
EndSplineSet
Position2: "'cpsp' Capital Spacing in Latin lookup 0 subtable" dx=5 dy=0 dh=10 dv=0
EndChar

StartChar: N
Encoding: 78 78 74
Width: 737
Flags: HMW
HStem: 0 44 654 39<129 333 786 786>
VStem: 20 152<0 80 39 80> 20 769<0 693 39 693> 626 161
LayerCount: 2
Fore
SplineSet
589 0 m 1,0,-1
 527 0 l 1,1,-1
 269 592 l 1,2,-1
 261 592 l 1,3,-1
 174 95 l 2,4,5
 172 85 172 85 172 77 c 0,6,7
 172 52 172 52 195 50 c 1,8,-1
 278 39 l 1,9,-1
 273 0 l 1,10,-1
 20 0 l 1,11,-1
 20 39 l 1,12,13
 74 48 74 48 88 59 c 128,-1,14
 102 70 102 70 108 101 c 2,15,-1
 194 592 l 2,16,17
 197 606 197 606 197 618.5 c 128,-1,18
 197 631 197 631 183.5 639 c 128,-1,19
 170 647 170 647 129 654 c 1,20,-1
 135 693 l 1,21,-1
 333 693 l 1,22,-1
 548 189 l 1,23,-1
 555 189 l 1,24,-1
 623 572 l 2,25,26
 626 590 626 590 626 608.5 c 128,-1,27
 626 627 626 627 608.5 637.5 c 128,-1,28
 591 648 591 648 541 654 c 1,29,-1
 547 693 l 1,30,-1
 789 693 l 1,31,-1
 786 654 l 1,32,-1
 722 642 l 2,33,34
 705.105263158 638.245614035 705.105263158 638.245614035 700.5 627.5 c 0,35,36
 699 624 699 624 698 616 c 2,37,-1
 589 0 l 1,0,-1
EndSplineSet
Position2: "'cpsp' Capital Spacing in Latin lookup 0 subtable" dx=5 dy=0 dh=10 dv=0
EndChar

StartChar: Nacute
Encoding: 323 323 75
Width: 737
Flags: HMW
HStem: 0 44 654 39<129 333 786 786>
VStem: 20 152<0 80 39 80> 20 769<0 693 39 693> 626 161
LayerCount: 2
Fore
SplineSet
628 842 m 1,0,-1
 410 749 l 1,1,-1
 386 785 l 1,2,-1
 584 914 l 1,3,-1
 640 863 l 1,4,-1
 628 842 l 1,0,-1
589 0 m 1,5,-1
 527 0 l 1,6,-1
 269 592 l 1,7,-1
 261 592 l 1,8,-1
 174 95 l 2,9,10
 172 85 172 85 172 77 c 0,11,12
 172 52 172 52 195 50 c 1,13,-1
 278 39 l 1,14,-1
 273 0 l 1,15,-1
 20 0 l 1,16,-1
 20 39 l 1,17,18
 74 48 74 48 88 59 c 128,-1,19
 102 70 102 70 108 101 c 2,20,-1
 194 592 l 2,21,22
 197 606 197 606 197 618.5 c 128,-1,23
 197 631 197 631 183.5 639 c 128,-1,24
 170 647 170 647 129 654 c 1,25,-1
 135 693 l 1,26,-1
 333 693 l 1,27,-1
 548 189 l 1,28,-1
 555 189 l 1,29,-1
 623 572 l 2,30,31
 626 590 626 590 626 608.5 c 128,-1,32
 626 627 626 627 608.5 637.5 c 128,-1,33
 591 648 591 648 541 654 c 1,34,-1
 547 693 l 1,35,-1
 789 693 l 1,36,-1
 786 654 l 1,37,-1
 722 642 l 2,38,39
 705.105263158 638.245614035 705.105263158 638.245614035 700.5 627.5 c 0,40,41
 699 624 699 624 698 616 c 2,42,-1
 589 0 l 1,5,-1
EndSplineSet
Position2: "'cpsp' Capital Spacing in Latin lookup 0 subtable" dx=5 dy=0 dh=10 dv=0
EndChar

StartChar: Ncaron
Encoding: 327 327 76
Width: 737
Flags: HMW
HStem: 0 44 654 39<129 333 786 786>
VStem: 20 152<0 80 39 80> 20 769<0 693 39 693> 626 161
LayerCount: 2
Fore
SplineSet
633 891 m 1,0,-1
 476 752 l 1,1,-1
 420 752 l 1,2,-1
 305 891 l 1,3,-1
 335 917 l 1,4,-1
 457 826 l 1,5,-1
 613 917 l 1,6,-1
 633 891 l 1,0,-1
589 0 m 1,7,-1
 527 0 l 1,8,-1
 269 592 l 1,9,-1
 261 592 l 1,10,-1
 174 95 l 2,11,12
 172 85 172 85 172 77 c 0,13,14
 172 52 172 52 195 50 c 1,15,-1
 278 39 l 1,16,-1
 273 0 l 1,17,-1
 20 0 l 1,18,-1
 20 39 l 1,19,20
 74 48 74 48 88 59 c 128,-1,21
 102 70 102 70 108 101 c 2,22,-1
 194 592 l 2,23,24
 197 606 197 606 197 618.5 c 128,-1,25
 197 631 197 631 183.5 639 c 128,-1,26
 170 647 170 647 129 654 c 1,27,-1
 135 693 l 1,28,-1
 333 693 l 1,29,-1
 548 189 l 1,30,-1
 555 189 l 1,31,-1
 623 572 l 2,32,33
 626 590 626 590 626 608.5 c 128,-1,34
 626 627 626 627 608.5 637.5 c 128,-1,35
 591 648 591 648 541 654 c 1,36,-1
 547 693 l 1,37,-1
 789 693 l 1,38,-1
 786 654 l 1,39,-1
 722 642 l 2,40,41
 705.105263158 638.245614035 705.105263158 638.245614035 700.5 627.5 c 0,42,43
 699 624 699 624 698 616 c 2,44,-1
 589 0 l 1,7,-1
EndSplineSet
Position2: "'cpsp' Capital Spacing in Latin lookup 0 subtable" dx=5 dy=0 dh=10 dv=0
EndChar

StartChar: Ncommaaccent
Encoding: 325 325 77
Width: 737
Flags: HMW
HStem: -210 21G<295 295> 0 44 654 39<129 333 786 786>
VStem: 20 152<0 80 39 80> 318 95<-79.5 -57.5 -95.5 -55> 626 161
LayerCount: 2
Fore
SplineSet
589 0 m 1,0,-1
 527 0 l 1,1,-1
 269 592 l 1,2,-1
 261 592 l 1,3,-1
 174 95 l 2,4,5
 172 85 172 85 172 77 c 0,6,7
 172 52 172 52 195 50 c 1,8,-1
 278 39 l 1,9,-1
 273 0 l 1,10,-1
 20 0 l 1,11,-1
 20 39 l 1,12,13
 74 48 74 48 88 59 c 128,-1,14
 102 70 102 70 108 101 c 2,15,-1
 194 592 l 2,16,17
 197 606 197 606 197 618.5 c 128,-1,18
 197 631 197 631 183.5 639 c 128,-1,19
 170 647 170 647 129 654 c 1,20,-1
 135 693 l 1,21,-1
 333 693 l 1,22,-1
 548 189 l 1,23,-1
 555 189 l 1,24,-1
 623 572 l 2,25,26
 626 590 626 590 626 608.5 c 128,-1,27
 626 627 626 627 608.5 637.5 c 128,-1,28
 591 648 591 648 541 654 c 1,29,-1
 547 693 l 1,30,-1
 789 693 l 1,31,-1
 786 654 l 1,32,-1
 722 642 l 2,33,34
 705.105263158 638.245614035 705.105263158 638.245614035 700.5 627.5 c 0,35,36
 699 624 699 624 698 616 c 2,37,-1
 589 0 l 1,0,-1
295 -210 m 1,38,-1
 274 -185 l 1,39,40
 331 -149 331 -149 331 -117 c 0,41,42
 331 -108 331 -108 324.5 -94 c 128,-1,43
 318 -80 318 -80 318 -64 c 128,-1,44
 318 -48 318 -48 332.5 -34.5 c 128,-1,45
 347 -21 347 -21 367 -21 c 128,-1,46
 387 -21 387 -21 400 -35.5 c 128,-1,47
 413 -50 413 -50 413 -79 c 128,-1,48
 413 -108 413 -108 382 -144.5 c 128,-1,49
 351 -181 351 -181 295 -210 c 1,38,-1
EndSplineSet
Position2: "'cpsp' Capital Spacing in Latin lookup 0 subtable" dx=5 dy=0 dh=10 dv=0
EndChar

StartChar: Ntilde
Encoding: 209 209 78
Width: 737
Flags: HMW
HStem: 0 44 654 39<129 333 786 786> 778 78<568 590> 805 78<406.5 423>
VStem: 20 152<0 80 39 80> 20 769<0 693 39 693> 626 161
LayerCount: 2
Fore
SplineSet
657 891 m 1,0,-1
 680 879 l 1,1,2
 615 778 615 778 569 778 c 0,3,4
 552 778 552 778 488 791.5 c 128,-1,5
 424 805 424 805 393 805 c 128,-1,6
 362 805 362 805 322 771 c 1,7,-1
 302 787 l 1,8,9
 344 840 344 840 371 861.5 c 128,-1,10
 398 883 398 883 421 883 c 128,-1,11
 444 883 444 883 506 869.5 c 128,-1,12
 568 856 568 856 592.5 856 c 128,-1,13
 617 856 617 856 657 891 c 1,0,-1
589 0 m 1,14,-1
 527 0 l 1,15,-1
 269 592 l 1,16,-1
 261 592 l 1,17,-1
 174 95 l 2,18,19
 172 85 172 85 172 77 c 0,20,21
 172 52 172 52 195 50 c 1,22,-1
 278 39 l 1,23,-1
 273 0 l 1,24,-1
 20 0 l 1,25,-1
 20 39 l 1,26,27
 74 48 74 48 88 59 c 128,-1,28
 102 70 102 70 108 101 c 2,29,-1
 194 592 l 2,30,31
 197 606 197 606 197 618.5 c 128,-1,32
 197 631 197 631 183.5 639 c 128,-1,33
 170 647 170 647 129 654 c 1,34,-1
 135 693 l 1,35,-1
 333 693 l 1,36,-1
 548 189 l 1,37,-1
 555 189 l 1,38,-1
 623 572 l 2,39,40
 626 590 626 590 626 608.5 c 128,-1,41
 626 627 626 627 608.5 637.5 c 128,-1,42
 591 648 591 648 541 654 c 1,43,-1
 547 693 l 1,44,-1
 789 693 l 1,45,-1
 786 654 l 1,46,-1
 722 642 l 2,47,48
 705.105263158 638.245614035 705.105263158 638.245614035 700.5 627.5 c 0,49,50
 699 624 699 624 698 616 c 2,51,-1
 589 0 l 1,14,-1
EndSplineSet
Position2: "'cpsp' Capital Spacing in Latin lookup 0 subtable" dx=5 dy=0 dh=10 dv=0
EndChar

StartChar: O
Encoding: 79 79 79
Width: 670
Flags: HMW
HStem: -9 53<277 418.5 277 424.5> 649 53<313 453.5>
VStem: 60 112<218 362.5 218 397> 559 113<337 478.5>
LayerCount: 2
Fore
SplineSet
308 -9 m 0,0,1
 189 -9 189 -9 124.5 69.5 c 128,-1,2
 60 148 60 148 60 274 c 0,3,4
 60 464 60 464 156.5 583 c 128,-1,5
 253 702 253 702 423 702 c 0,6,7
 542 702 542 702 607 624.5 c 128,-1,8
 672 547 672 547 672 425 c 0,9,10
 672 234 672 234 575 112.5 c 128,-1,11
 478 -9 478 -9 308 -9 c 0,0,1
331 44 m 0,12,13
 393 44 393 44 440 79.5 c 128,-1,14
 487 115 487 115 511.5 172.5 c 0,15,16
 559 283.979591837 559 283.979591837 559 400.489795918 c 128,-1,17
 559 517 559 517 518 583 c 128,-1,18
 477 649 477 649 399 649 c 0,19,20
 349 649 349 649 309.5 626 c 0,21,22
 237.557197943 584.109254499 237.557197943 584.109254499 204.778598972 486.766748461 c 128,-1,23
 172 389.424242424 172 389.424242424 172 284.212121212 c 128,-1,24
 172 179 172 179 213 111.5 c 128,-1,25
 254 44 254 44 331 44 c 0,12,13
EndSplineSet
Substitution2: "'ordn' Ordinals in Latin lookup 16 subtable" ordmasculine
Substitution2: "'aalt' Access All Alternates in Latin lookup 0 subtable" ordmasculine
Position2: "'cpsp' Capital Spacing in Latin lookup 0 subtable" dx=5 dy=0 dh=10 dv=0
EndChar

StartChar: OE
Encoding: 338 338 80
Width: 966
Flags: HMW
HStem: -9 53<277 322> -9 60 320 53<627 774 617 777> 640 52 649 53<313 435.5 307 463>
VStem: 60 112<218 362.5 218 397> 794 37<237 243> 900 59<530 537>
LayerCount: 2
Fore
SplineSet
923 179 m 1,0,1
 913.610687023 99.1908396947 913.610687023 99.1908396947 881 0 c 1,2,3
 647 0 647 0 480.5 -4.5 c 128,-1,4
 314 -9 314 -9 308 -9 c 0,5,6
 189 -9 189 -9 124.5 69.5 c 128,-1,7
 60 148 60 148 60 274 c 0,8,9
 60 464 60 464 156.5 583 c 128,-1,10
 253 702 253 702 423 702 c 0,11,12
 427 702 427 702 622.75 697.5 c 128,-1,13
 818.5 693 818.5 693 982 693 c 1,14,15
 982 642.142857143 982 642.142857143 959 537 c 1,16,-1
 900 530 l 1,17,18
 899 599 899 599 896 616.5 c 128,-1,19
 893 634 893 634 885 635 c 0,20,21
 861 638 861 638 825 639 c 2,22,-1
 674 642 l 1,23,-1
 627 373 l 1,24,-1
 777 373 l 2,25,26
 785.21875 373 785.21875 373 796.109375 393.5 c 128,-1,27
 807 414 807 414 821 444 c 1,28,-1
 852 441 l 1,29,30
 835 347 835 347 831 243 c 1,31,-1
 794 237 l 1,32,33
 788 292 788 292 784.5 306 c 128,-1,34
 781 320 781 320 774 320 c 2,35,-1
 617 320 l 1,36,-1
 570 51 l 1,37,-1
 659 52 l 1,38,39
 760.082474227 54.7319587629 760.082474227 54.7319587629 777.041237113 58.3659793814 c 128,-1,40
 794 62 794 62 804 66 c 1,41,42
 822 71 822 71 868 184 c 1,43,-1
 923 179 l 1,0,1
498 192 m 2,44,-1
 550 490 l 2,45,46
 561 556 561 556 561 575 c 0,47,48
 561 622 561 622 529.5 635.5 c 128,-1,49
 498 649 498 649 399 649 c 0,50,51
 349 649 349 649 309.5 626 c 0,52,53
 237.557197943 584.109254499 237.557197943 584.109254499 204.778598972 486.766748461 c 128,-1,54
 172 389.424242424 172 389.424242424 172 284.212121212 c 128,-1,55
 172 179 172 179 213 111.5 c 128,-1,56
 254 44 254 44 337.5 44 c 128,-1,57
 421 44 421 44 451 68.5 c 128,-1,58
 481 93 481 93 498 192 c 2,44,-1
EndSplineSet
Position2: "'cpsp' Capital Spacing in Latin lookup 0 subtable" dx=5 dy=0 dh=10 dv=0
EndChar

StartChar: Oacute
Encoding: 211 211 81
Width: 670
Flags: HMW
HStem: -9 53<277 418.5 277 424.5> 649 53<313 453.5>
VStem: 60 112<218 362.5 218 397> 559 113<337 478.5>
LayerCount: 2
Fore
SplineSet
578 842 m 1,0,-1
 360 749 l 1,1,-1
 336 785 l 1,2,-1
 534 914 l 1,3,-1
 590 863 l 1,4,-1
 578 842 l 1,0,-1
308 -9 m 0,5,6
 189 -9 189 -9 124.5 69.5 c 128,-1,7
 60 148 60 148 60 274 c 0,8,9
 60 464 60 464 156.5 583 c 128,-1,10
 253 702 253 702 423 702 c 0,11,12
 542 702 542 702 607 624.5 c 128,-1,13
 672 547 672 547 672 425 c 0,14,15
 672 234 672 234 575 112.5 c 128,-1,16
 478 -9 478 -9 308 -9 c 0,5,6
331 44 m 0,17,18
 393 44 393 44 440 79.5 c 128,-1,19
 487 115 487 115 511.5 172.5 c 0,20,21
 559 283.979591837 559 283.979591837 559 400.489795918 c 128,-1,22
 559 517 559 517 518 583 c 128,-1,23
 477 649 477 649 399 649 c 0,24,25
 349 649 349 649 309.5 626 c 0,26,27
 237.557197943 584.109254499 237.557197943 584.109254499 204.778598972 486.766748461 c 128,-1,28
 172 389.424242424 172 389.424242424 172 284.212121212 c 128,-1,29
 172 179 172 179 213 111.5 c 128,-1,30
 254 44 254 44 331 44 c 0,17,18
EndSplineSet
Position2: "'cpsp' Capital Spacing in Latin lookup 0 subtable" dx=5 dy=0 dh=10 dv=0
EndChar

StartChar: Ocircumflex
Encoding: 212 212 82
Width: 670
Flags: HMW
HStem: -9 53<277 418.5 277 424.5> 649 53<313 453.5>
VStem: 60 112<218 362.5 218 397> 559 113<337 478.5>
LayerCount: 2
Fore
SplineSet
588 775 m 1,0,-1
 558 749 l 1,1,-1
 436 840 l 1,2,-1
 280 749 l 1,3,-1
 260 775 l 1,4,-1
 416 914 l 1,5,-1
 472 914 l 1,6,-1
 588 775 l 1,0,-1
308 -9 m 0,7,8
 189 -9 189 -9 124.5 69.5 c 128,-1,9
 60 148 60 148 60 274 c 0,10,11
 60 464 60 464 156.5 583 c 128,-1,12
 253 702 253 702 423 702 c 0,13,14
 542 702 542 702 607 624.5 c 128,-1,15
 672 547 672 547 672 425 c 0,16,17
 672 234 672 234 575 112.5 c 128,-1,18
 478 -9 478 -9 308 -9 c 0,7,8
331 44 m 0,19,20
 393 44 393 44 440 79.5 c 128,-1,21
 487 115 487 115 511.5 172.5 c 0,22,23
 559 283.979591837 559 283.979591837 559 400.489795918 c 128,-1,24
 559 517 559 517 518 583 c 128,-1,25
 477 649 477 649 399 649 c 0,26,27
 349 649 349 649 309.5 626 c 0,28,29
 237.557197943 584.109254499 237.557197943 584.109254499 204.778598972 486.766748461 c 128,-1,30
 172 389.424242424 172 389.424242424 172 284.212121212 c 128,-1,31
 172 179 172 179 213 111.5 c 128,-1,32
 254 44 254 44 331 44 c 0,19,20
EndSplineSet
Position2: "'cpsp' Capital Spacing in Latin lookup 0 subtable" dx=5 dy=0 dh=10 dv=0
EndChar

StartChar: Odieresis
Encoding: 214 214 83
Width: 670
Flags: HMW
HStem: -9 53<277 418.5 277 424.5> 649 53<313 453.5> 775 110<318 338 511 531>
VStem: 60 112<218 362.5 218 397> 274 108<823 838> 467 108<823 838> 559 113<337 478.5>
LayerCount: 2
Fore
SplineSet
514 775 m 0,0,1
 467 775 467 775 467 821 c 0,2,3
 467 847 467 847 485 866 c 128,-1,4
 503 885 503 885 528 885 c 0,5,6
 575 885 575 885 575 840 c 0,7,8
 575 814 575 814 557 794.5 c 128,-1,9
 539 775 539 775 514 775 c 0,0,1
321 775 m 0,10,11
 274 775 274 775 274 821 c 0,12,13
 274 847 274 847 292 866 c 128,-1,14
 310 885 310 885 335 885 c 0,15,16
 382 885 382 885 382 840 c 0,17,18
 382 814 382 814 364 794.5 c 128,-1,19
 346 775 346 775 321 775 c 0,10,11
308 -9 m 0,20,21
 189 -9 189 -9 124.5 69.5 c 128,-1,22
 60 148 60 148 60 274 c 0,23,24
 60 464 60 464 156.5 583 c 128,-1,25
 253 702 253 702 423 702 c 0,26,27
 542 702 542 702 607 624.5 c 128,-1,28
 672 547 672 547 672 425 c 0,29,30
 672 234 672 234 575 112.5 c 128,-1,31
 478 -9 478 -9 308 -9 c 0,20,21
331 44 m 0,32,33
 393 44 393 44 440 79.5 c 128,-1,34
 487 115 487 115 511.5 172.5 c 0,35,36
 559 283.979591837 559 283.979591837 559 400.489795918 c 128,-1,37
 559 517 559 517 518 583 c 128,-1,38
 477 649 477 649 399 649 c 0,39,40
 349 649 349 649 309.5 626 c 0,41,42
 237.557197943 584.109254499 237.557197943 584.109254499 204.778598972 486.766748461 c 128,-1,43
 172 389.424242424 172 389.424242424 172 284.212121212 c 128,-1,44
 172 179 172 179 213 111.5 c 128,-1,45
 254 44 254 44 331 44 c 0,32,33
EndSplineSet
Position2: "'cpsp' Capital Spacing in Latin lookup 0 subtable" dx=5 dy=0 dh=10 dv=0
EndChar

StartChar: Ograve
Encoding: 210 210 84
Width: 670
Flags: HMW
HStem: -9 53<277 418.5 277 424.5> 649 53<313 453.5>
VStem: 60 112<218 362.5 218 397> 559 113<337 478.5>
LayerCount: 2
Fore
SplineSet
453 749 m 1,0,-1
 269 842 l 1,1,-1
 265 863 l 1,2,-1
 329 914 l 1,3,-1
 479 785 l 1,4,-1
 453 749 l 1,0,-1
308 -9 m 0,5,6
 189 -9 189 -9 124.5 69.5 c 128,-1,7
 60 148 60 148 60 274 c 0,8,9
 60 464 60 464 156.5 583 c 128,-1,10
 253 702 253 702 423 702 c 0,11,12
 542 702 542 702 607 624.5 c 128,-1,13
 672 547 672 547 672 425 c 0,14,15
 672 234 672 234 575 112.5 c 128,-1,16
 478 -9 478 -9 308 -9 c 0,5,6
331 44 m 0,17,18
 393 44 393 44 440 79.5 c 128,-1,19
 487 115 487 115 511.5 172.5 c 0,20,21
 559 283.979591837 559 283.979591837 559 400.489795918 c 128,-1,22
 559 517 559 517 518 583 c 128,-1,23
 477 649 477 649 399 649 c 0,24,25
 349 649 349 649 309.5 626 c 0,26,27
 237.557197943 584.109254499 237.557197943 584.109254499 204.778598972 486.766748461 c 128,-1,28
 172 389.424242424 172 389.424242424 172 284.212121212 c 128,-1,29
 172 179 172 179 213 111.5 c 128,-1,30
 254 44 254 44 331 44 c 0,17,18
EndSplineSet
Position2: "'cpsp' Capital Spacing in Latin lookup 0 subtable" dx=5 dy=0 dh=10 dv=0
EndChar

StartChar: Ohungarumlaut
Encoding: 336 336 85
Width: 670
Flags: HMW
HStem: -9 53<277 418.5 277 424.5> 649 53<313 453.5>
VStem: 60 112<218 362.5 218 397> 559 113<337 478.5>
LayerCount: 2
Fore
SplineSet
705 862 m 1,0,-1
 507 751 l 1,1,-1
 477 776 l 1,2,-1
 620 915 l 1,3,-1
 709 885 l 1,4,-1
 705 862 l 1,0,-1
507 862 m 1,5,-1
 309 751 l 1,6,-1
 279 776 l 1,7,-1
 422 915 l 1,8,-1
 511 885 l 1,9,-1
 507 862 l 1,5,-1
308 -9 m 0,10,11
 189 -9 189 -9 124.5 69.5 c 128,-1,12
 60 148 60 148 60 274 c 0,13,14
 60 464 60 464 156.5 583 c 128,-1,15
 253 702 253 702 423 702 c 0,16,17
 542 702 542 702 607 624.5 c 128,-1,18
 672 547 672 547 672 425 c 0,19,20
 672 234 672 234 575 112.5 c 128,-1,21
 478 -9 478 -9 308 -9 c 0,10,11
331 44 m 0,22,23
 393 44 393 44 440 79.5 c 128,-1,24
 487 115 487 115 511.5 172.5 c 0,25,26
 559 283.979591837 559 283.979591837 559 400.489795918 c 128,-1,27
 559 517 559 517 518 583 c 128,-1,28
 477 649 477 649 399 649 c 0,29,30
 349 649 349 649 309.5 626 c 0,31,32
 237.557197943 584.109254499 237.557197943 584.109254499 204.778598972 486.766748461 c 128,-1,33
 172 389.424242424 172 389.424242424 172 284.212121212 c 128,-1,34
 172 179 172 179 213 111.5 c 128,-1,35
 254 44 254 44 331 44 c 0,22,23
EndSplineSet
Position2: "'cpsp' Capital Spacing in Latin lookup 0 subtable" dx=5 dy=0 dh=10 dv=0
EndChar

StartChar: hungarumlaut.cap
Encoding: 65547 -1 86
Width: 410
Flags: HMW
HStem: 751 164<129 242 242 327>
VStem: 99 430<776 885>
LayerCount: 2
Fore
SplineSet
525 862 m 1,0,-1
 327 751 l 1,1,-1
 297 776 l 1,2,-1
 440 915 l 1,3,-1
 529 885 l 1,4,-1
 525 862 l 1,0,-1
327 862 m 1,5,-1
 129 751 l 1,6,-1
 99 776 l 1,7,-1
 242 915 l 1,8,-1
 331 885 l 1,9,-1
 327 862 l 1,5,-1
EndSplineSet
EndChar

StartChar: Omacron
Encoding: 332 332 87
Width: 670
Flags: HMW
HStem: -9 53<277 418.5 277 424.5> 649 53<313 453.5> 804 60<307 545 296 556>
VStem: 60 112<218 362.5 218 397> 559 113<337 478.5>
LayerCount: 2
Fore
SplineSet
545 804 m 1,0,-1
 296 804 l 1,1,-1
 307 864 l 1,2,-1
 556 864 l 1,3,-1
 545 804 l 1,0,-1
308 -9 m 0,4,5
 189 -9 189 -9 124.5 69.5 c 128,-1,6
 60 148 60 148 60 274 c 0,7,8
 60 464 60 464 156.5 583 c 128,-1,9
 253 702 253 702 423 702 c 0,10,11
 542 702 542 702 607 624.5 c 128,-1,12
 672 547 672 547 672 425 c 0,13,14
 672 234 672 234 575 112.5 c 128,-1,15
 478 -9 478 -9 308 -9 c 0,4,5
331 44 m 0,16,17
 393 44 393 44 440 79.5 c 128,-1,18
 487 115 487 115 511.5 172.5 c 0,19,20
 559 283.979591837 559 283.979591837 559 400.489795918 c 128,-1,21
 559 517 559 517 518 583 c 128,-1,22
 477 649 477 649 399 649 c 0,23,24
 349 649 349 649 309.5 626 c 0,25,26
 237.557197943 584.109254499 237.557197943 584.109254499 204.778598972 486.766748461 c 128,-1,27
 172 389.424242424 172 389.424242424 172 284.212121212 c 128,-1,28
 172 179 172 179 213 111.5 c 128,-1,29
 254 44 254 44 331 44 c 0,16,17
EndSplineSet
Position2: "'cpsp' Capital Spacing in Latin lookup 0 subtable" dx=5 dy=0 dh=10 dv=0
EndChar

StartChar: Oslash
Encoding: 216 216 88
Width: 671
Flags: HMW
HStem: -9 53<310.5 419.5 310.5 425.5> 649 53<314 420> 656 20G<541 541>
VStem: 61 112<257 362.5 257 397> 560 113<337 441.5>
LayerCount: 2
Fore
SplineSet
121 -80 m 1,0,-1
 70 -60 l 1,1,-1
 142 52 l 1,2,3
 61 128 61 128 61 274 c 0,4,5
 61 464 61 464 157.5 583 c 128,-1,6
 254 702 254 702 424 702 c 0,7,8
 491 702 491 702 541 676 c 1,9,-1
 602 772 l 1,10,-1
 654 752 l 1,11,-1
 586 646 l 1,12,13
 673 571 673 571 673 425 c 0,14,15
 673 234 673 234 576 112.5 c 128,-1,16
 479 -9 479 -9 309 -9 c 0,17,18
 237 -9 237 -9 185 20 c 1,19,-1
 121 -80 l 1,0,-1
198 140 m 1,20,-1
 498 609 l 1,21,22
 458 649 458 649 404 649 c 128,-1,23
 350 649 350 649 310.5 626 c 0,24,25
 238.557197943 584.109254499 238.557197943 584.109254499 205.778598972 486.766748461 c 128,-1,26
 173 389.424242424 173 389.424242424 173 294.212121212 c 128,-1,27
 173 199 173 199 198 140 c 1,20,-1
531 560 m 1,28,-1
 230 90 l 1,29,30
 270 44 270 44 332 44 c 128,-1,31
 394 44 394 44 441 79.5 c 128,-1,32
 488 115 488 115 512.5 172.5 c 0,33,34
 560 283.979591837 560 283.979591837 560 414 c 0,35,36
 560 502 560 502 531 560 c 1,28,-1
EndSplineSet
Position2: "'cpsp' Capital Spacing in Latin lookup 0 subtable" dx=5 dy=0 dh=10 dv=0
EndChar

StartChar: Otilde
Encoding: 213 213 89
Width: 670
Flags: HMW
HStem: -9 53<277 418.5 277 424.5> 649 53<313 453.5> 778 78<518 540> 805 78<356.5 373>
VStem: 60 112<218 362.5 218 397> 559 113<337 478.5>
LayerCount: 2
Fore
SplineSet
607 891 m 1,0,-1
 630 879 l 1,1,2
 565 778 565 778 519 778 c 0,3,4
 502 778 502 778 438 791.5 c 128,-1,5
 374 805 374 805 343 805 c 128,-1,6
 312 805 312 805 272 771 c 1,7,-1
 252 787 l 1,8,9
 294 840 294 840 321 861.5 c 128,-1,10
 348 883 348 883 371 883 c 128,-1,11
 394 883 394 883 456 869.5 c 128,-1,12
 518 856 518 856 542.5 856 c 128,-1,13
 567 856 567 856 607 891 c 1,0,-1
308 -9 m 0,14,15
 189 -9 189 -9 124.5 69.5 c 128,-1,16
 60 148 60 148 60 274 c 0,17,18
 60 464 60 464 156.5 583 c 128,-1,19
 253 702 253 702 423 702 c 0,20,21
 542 702 542 702 607 624.5 c 128,-1,22
 672 547 672 547 672 425 c 0,23,24
 672 234 672 234 575 112.5 c 128,-1,25
 478 -9 478 -9 308 -9 c 0,14,15
331 44 m 0,26,27
 393 44 393 44 440 79.5 c 128,-1,28
 487 115 487 115 511.5 172.5 c 0,29,30
 559 283.979591837 559 283.979591837 559 400.489795918 c 128,-1,31
 559 517 559 517 518 583 c 128,-1,32
 477 649 477 649 399 649 c 0,33,34
 349 649 349 649 309.5 626 c 0,35,36
 237.557197943 584.109254499 237.557197943 584.109254499 204.778598972 486.766748461 c 128,-1,37
 172 389.424242424 172 389.424242424 172 284.212121212 c 128,-1,38
 172 179 172 179 213 111.5 c 128,-1,39
 254 44 254 44 331 44 c 0,26,27
EndSplineSet
Position2: "'cpsp' Capital Spacing in Latin lookup 0 subtable" dx=5 dy=0 dh=10 dv=0
EndChar

StartChar: P
Encoding: 80 80 90
Width: 566
Flags: HMW
HStem: 0 44 268 53<244 284 234 286> 640 53<310.5 320 320 374>
VStem: 484 110<470.5 573.5>
LayerCount: 2
Fore
SplineSet
310 0 m 1,0,-1
 21 0 l 1,1,-1
 21 39 l 1,2,3
 75 48 75 48 88.5 59 c 128,-1,4
 102 70 102 70 108 101 c 2,5,-1
 194 592 l 2,6,7
 197 606 197 606 197 618.5 c 128,-1,8
 197 631 197 631 183.5 639 c 128,-1,9
 170 647 170 647 129 654 c 1,10,-1
 135 693 l 1,11,-1
 410 693 l 2,12,13
 500 693 500 693 547 651 c 128,-1,14
 594 609 594 609 594 539 c 0,15,16
 594 428 594 428 512 348 c 128,-1,17
 430 268 430 268 284 268 c 2,18,-1
 234 268 l 1,19,-1
 204 95 l 2,20,21
 202 85 202 85 202 77 c 0,22,23
 202 52 202 52 225 50 c 2,24,-1
 315 39 l 1,25,-1
 310 0 l 1,0,-1
244 321 m 1,26,-1
 286 321 l 2,27,28
 359.428571429 321 359.428571429 321 417 360 c 0,29,30
 484 405.387096774 484 405.387096774 484 527.5 c 0,31,32
 484 589 484 589 450.5 614.5 c 128,-1,33
 417 640 417 640 374 640 c 2,34,-1
 320 640 l 2,35,36
 300 640 300 640 296 616 c 2,37,-1
 244 321 l 1,26,-1
EndSplineSet
Position2: "'cpsp' Capital Spacing in Latin lookup 0 subtable" dx=5 dy=0 dh=10 dv=0
EndChar

StartChar: Q
Encoding: 81 81 91
Width: 671
Flags: HMW
HStem: -152 78<455 555.5> 10 34<280 424> 649 53<315.5 453>
VStem: 62 113<215.5 362.5 215.5 396.5> 560 113<336 481>
LayerCount: 2
Fore
SplineSet
606 -59 m 1,0,-1
 624 -95 l 1,1,2
 546 -152 546 -152 501.884615385 -152 c 128,-1,3
 457.769230769 -152 457.769230769 -152 422 -105.5 c 0,4,5
 407 -86 407 -86 390 -65.5 c 0,6,7
 349.397480756 -16.5381385584 349.397480756 -16.5381385584 275 -7 c 0,8,9
 174 5 174 5 118 79 c 128,-1,10
 62 153 62 153 62 273 c 0,11,12
 62 463 62 463 158.5 582.5 c 128,-1,13
 255 702 255 702 424 702 c 0,14,15
 539 702 539 702 606 626 c 128,-1,16
 673 550 673 550 673 425 c 0,17,18
 673 269 673 269 606 156.5 c 128,-1,19
 539 44 539 44 424 10 c 1,20,-1
 423 6 l 1,21,22
 440 -1 440 -1 481 -37.5 c 128,-1,23
 522 -74 522 -74 543.5 -74 c 128,-1,24
 565 -74 565 -74 606 -59 c 1,0,-1
335 44 m 0,25,26
 384 44 384 44 423 67.5 c 0,27,28
 492.135205748 109.158393207 492.135205748 109.158393207 526.067602874 207.961549545 c 128,-1,29
 560 306.764705882 560 306.764705882 560 412.382352941 c 128,-1,30
 560 518 560 518 518.5 583.5 c 128,-1,31
 477 649 477 649 401 649 c 0,32,33
 340 649 340 649 294 615 c 128,-1,34
 248 581 248 581 223.5 525 c 0,35,36
 175 414.142857143 175 414.142857143 175 295.071428571 c 128,-1,37
 175 176 175 176 215.5 110 c 128,-1,38
 256 44 256 44 335 44 c 0,25,26
EndSplineSet
Position2: "'cpsp' Capital Spacing in Latin lookup 0 subtable" dx=5 dy=0 dh=10 dv=0
EndChar

StartChar: R
Encoding: 82 82 92
Width: 612
Flags: HMW
HStem: 0 39<21 264 21 21> 304 51<250 295 295 296 241 295> 640 53<310.5 320 320 361>
VStem: 479 109<481 570.5>
LayerCount: 2
Fore
SplineSet
577 0 m 1,0,-1
 433 0 l 1,1,-1
 296 304 l 1,2,-1
 241 304 l 1,3,-1
 205 99 l 2,4,5
 202 84 202 84 202 76 c 0,6,7
 202 55 202 55 221 50 c 2,8,-1
 269 39 l 1,9,-1
 264 0 l 1,10,-1
 21 0 l 1,11,-1
 21 39 l 1,12,13
 75 48 75 48 88.5 59 c 128,-1,14
 102 70 102 70 108 101 c 2,15,-1
 194 592 l 2,16,17
 197 606 197 606 197 618.5 c 128,-1,19
 197 631 197 631 183.5 638.5 c 128,-1,20
 170 646 170 646 129 654 c 1,21,-1
 135 693 l 1,22,-1
 401 693 l 2,23,24
 492 693 492 693 540 652.5 c 128,-1,25
 588 612 588 612 588 533.5 c 128,-1,27
 588 455 588 455 532.5 395 c 128,-1,28
 477 335 477 335 393 319 c 1,29,-1
 392 314 l 1,30,31
 402 311 402 311 410 292 c 2,32,-1
 507 80 l 2,33,34
 517 58 517 58 531.5 50 c 128,-1,35
 546 42 546 42 582 39 c 1,36,-1
 577 0 l 1,0,-1
250 355 m 1,37,-1
 295 355 l 2,38,39
 381 355 381 355 430 398.5 c 128,-1,40
 479 442 479 442 479 515.5 c 128,-1,42
 479 589 479 589 446.5 614.5 c 128,-1,43
 414 640 414 640 361 640 c 2,44,-1
 320 640 l 2,45,46
 300 640 300 640 296 616 c 2,47,-1
 250 355 l 1,37,-1
EndSplineSet
Position2: "'cpsp' Capital Spacing in Latin lookup 0 subtable" dx=5 dy=0 dh=10 dv=0
EndChar

StartChar: Racute
Encoding: 340 340 93
Width: 612
Flags: HMW
HStem: 0 39<21 264 21 21> 304 51<250 295 295 296 241 295> 640 53<310.5 320 320 361>
VStem: 479 109<481 570.5>
LayerCount: 2
Fore
SplineSet
565 842 m 1,0,-1
 347 749 l 1,1,-1
 323 785 l 1,2,-1
 521 914 l 1,3,-1
 577 863 l 1,4,-1
 565 842 l 1,0,-1
577 0 m 1,5,-1
 433 0 l 1,6,-1
 296 304 l 1,7,-1
 241 304 l 1,8,-1
 205 99 l 2,9,10
 202 84 202 84 202 76 c 0,11,12
 202 55 202 55 221 50 c 2,13,-1
 269 39 l 1,14,-1
 264 0 l 1,15,-1
 21 0 l 1,16,-1
 21 39 l 1,17,18
 75 48 75 48 88.5 59 c 128,-1,19
 102 70 102 70 108 101 c 2,20,-1
 194 592 l 2,21,22
 197 606 197 606 197 618.5 c 0,23,24
 197 631 197 631 183.5 638.5 c 128,-1,25
 170 646 170 646 129 654 c 1,26,-1
 135 693 l 1,27,-1
 401 693 l 2,28,29
 492 693 492 693 540 652.5 c 128,-1,30
 588 612 588 612 588 533.5 c 0,31,32
 588 455 588 455 532.5 395 c 128,-1,33
 477 335 477 335 393 319 c 1,34,-1
 392 314 l 1,35,36
 402 311 402 311 410 292 c 2,37,-1
 507 80 l 2,38,39
 517 58 517 58 531.5 50 c 128,-1,40
 546 42 546 42 582 39 c 1,41,-1
 577 0 l 1,5,-1
250 355 m 1,42,-1
 295 355 l 2,43,44
 381 355 381 355 430 398.5 c 128,-1,45
 479 442 479 442 479 515.5 c 0,46,47
 479 589 479 589 446.5 614.5 c 128,-1,48
 414 640 414 640 361 640 c 2,49,-1
 320 640 l 2,50,51
 300 640 300 640 296 616 c 2,52,-1
 250 355 l 1,42,-1
EndSplineSet
Position2: "'cpsp' Capital Spacing in Latin lookup 0 subtable" dx=5 dy=0 dh=10 dv=0
EndChar

StartChar: Rcaron
Encoding: 344 344 94
Width: 612
Flags: HMW
HStem: 0 39<21 264 21 21> 304 51<250 295 295 296 241 295> 640 53<310.5 320 320 361>
VStem: 479 109<481 570.5>
LayerCount: 2
Fore
SplineSet
576 891 m 1,0,-1
 419 752 l 1,1,-1
 363 752 l 1,2,-1
 248 891 l 1,3,-1
 278 917 l 1,4,-1
 400 826 l 1,5,-1
 556 917 l 1,6,-1
 576 891 l 1,0,-1
577 0 m 1,7,-1
 433 0 l 1,8,-1
 296 304 l 1,9,-1
 241 304 l 1,10,-1
 205 99 l 2,11,12
 202 84 202 84 202 76 c 0,13,14
 202 55 202 55 221 50 c 2,15,-1
 269 39 l 1,16,-1
 264 0 l 1,17,-1
 21 0 l 1,18,-1
 21 39 l 1,19,20
 75 48 75 48 88.5 59 c 128,-1,21
 102 70 102 70 108 101 c 2,22,-1
 194 592 l 2,23,24
 197 606 197 606 197 618.5 c 0,25,26
 197 631 197 631 183.5 638.5 c 128,-1,27
 170 646 170 646 129 654 c 1,28,-1
 135 693 l 1,29,-1
 401 693 l 2,30,31
 492 693 492 693 540 652.5 c 128,-1,32
 588 612 588 612 588 533.5 c 0,33,34
 588 455 588 455 532.5 395 c 128,-1,35
 477 335 477 335 393 319 c 1,36,-1
 392 314 l 1,37,38
 402 311 402 311 410 292 c 2,39,-1
 507 80 l 2,40,41
 517 58 517 58 531.5 50 c 128,-1,42
 546 42 546 42 582 39 c 1,43,-1
 577 0 l 1,7,-1
250 355 m 1,44,-1
 295 355 l 2,45,46
 381 355 381 355 430 398.5 c 128,-1,47
 479 442 479 442 479 515.5 c 0,48,49
 479 589 479 589 446.5 614.5 c 128,-1,50
 414 640 414 640 361 640 c 2,51,-1
 320 640 l 2,52,53
 300 640 300 640 296 616 c 2,54,-1
 250 355 l 1,44,-1
EndSplineSet
Position2: "'cpsp' Capital Spacing in Latin lookup 0 subtable" dx=5 dy=0 dh=10 dv=0
EndChar

StartChar: Rcommaaccent
Encoding: 342 342 95
Width: 612
Flags: HMW
HStem: -210 21G<262 262> 0 39<21 264 21 21> 304 51<250 295 295 296 241 295> 640 53<310.5 320 320 361>
VStem: 285 95<-79.5 -57.5 -95.5 -55> 479 109<481 570.5>
LayerCount: 2
Fore
SplineSet
577 0 m 1,0,-1
 433 0 l 1,1,-1
 296 304 l 1,2,-1
 241 304 l 1,3,-1
 205 99 l 2,4,5
 202 84 202 84 202 76 c 0,6,7
 202 55 202 55 221 50 c 2,8,-1
 269 39 l 1,9,-1
 264 0 l 1,10,-1
 21 0 l 1,11,-1
 21 39 l 1,12,13
 75 48 75 48 88.5 59 c 128,-1,14
 102 70 102 70 108 101 c 2,15,-1
 194 592 l 2,16,17
 197 606 197 606 197 618.5 c 0,18,19
 197 631 197 631 183.5 638.5 c 128,-1,20
 170 646 170 646 129 654 c 1,21,-1
 135 693 l 1,22,-1
 401 693 l 2,23,24
 492 693 492 693 540 652.5 c 128,-1,25
 588 612 588 612 588 533.5 c 0,26,27
 588 455 588 455 532.5 395 c 128,-1,28
 477 335 477 335 393 319 c 1,29,-1
 392 314 l 1,30,31
 402 311 402 311 410 292 c 2,32,-1
 507 80 l 2,33,34
 517 58 517 58 531.5 50 c 128,-1,35
 546 42 546 42 582 39 c 1,36,-1
 577 0 l 1,0,-1
250 355 m 1,37,-1
 295 355 l 2,38,39
 381 355 381 355 430 398.5 c 128,-1,40
 479 442 479 442 479 515.5 c 0,41,42
 479 589 479 589 446.5 614.5 c 128,-1,43
 414 640 414 640 361 640 c 2,44,-1
 320 640 l 2,45,46
 300 640 300 640 296 616 c 2,47,-1
 250 355 l 1,37,-1
262 -210 m 1,48,-1
 241 -185 l 1,49,50
 298 -149 298 -149 298 -117 c 0,51,52
 298 -108 298 -108 291.5 -94 c 128,-1,53
 285 -80 285 -80 285 -64 c 0,54,55
 285 -48 285 -48 299.5 -34.5 c 128,-1,56
 314 -21 314 -21 334 -21 c 128,-1,57
 354 -21 354 -21 367 -35.5 c 128,-1,58
 380 -50 380 -50 380 -79 c 0,59,60
 380 -108 380 -108 349 -144.5 c 128,-1,61
 318 -181 318 -181 262 -210 c 1,48,-1
EndSplineSet
Position2: "'cpsp' Capital Spacing in Latin lookup 0 subtable" dx=5 dy=0 dh=10 dv=0
EndChar

StartChar: S
Encoding: 83 83 96
Width: 498
Flags: HMW
HStem: -9 56<203 245.5 203 280> 646 56<305.5 341.5> 655 20G
VStem: 15 92<34 133> 105 91<493.5 547> 356 100<158 216.5> 412 92
LayerCount: 2
Fore
SplineSet
466 506 m 1,0,-1
 407 499 l 1,1,2
 412 561 412 561 412 588 c 128,-1,3
 412 615 412 615 402 625 c 0,4,5
 381 646 381 646 329 646 c 128,-1,6
 277 646 277 646 244 622 c 0,7,8
 196 587 196 587 196 532.608695652 c 128,-1,10
 196 478.217391304 196 478.217391304 239 445.5 c 0,11,12
 272.13215859 420.290748899 272.13215859 420.290748899 330.566079295 392.145374449 c 128,-1,13
 389 364 389 364 422.5 323 c 128,-1,14
 456 282 456 282 456 216 c 0,15,16
 456 120 456 120 386.5 55.5 c 128,-1,17
 317 -9 317 -9 199 -9 c 0,18,19
 141 -9 141 -9 90 5.5 c 128,-1,20
 39 20 39 20 15 34 c 1,21,22
 15 103 15 103 53 200 c 1,23,-1
 111 203 l 1,24,25
 107 131 107 131 107 110.5 c 128,-1,26
 107 90 107 90 119 80 c 128,-1,27
 131 70 131 70 162.5 58.5 c 128,-1,28
 194 47 194 47 233.5 47 c 128,-1,29
 273 47 273 47 306 71 c 0,30,31
 356 107 356 107 356 173.12962963 c 128,-1,33
 356 239.259259259 356 239.259259259 290.5 280.5 c 0,34,35
 270.25 293.25 270.25 293.25 252.125 302.625 c 0,36,37
 170.976377953 344.598425197 170.976377953 344.598425197 137.988188976 382.299212598 c 128,-1,38
 105 420 105 420 105 483 c 0,39,40
 105 579 105 579 177.5 640.5 c 128,-1,41
 250 702 250 702 366 702 c 0,42,43
 443 702 443 702 504 675 c 1,44,45
 500 602 500 602 466 506 c 1,0,-1
EndSplineSet
Position2: "'cpsp' Capital Spacing in Latin lookup 0 subtable" dx=5 dy=0 dh=10 dv=0
EndChar

StartChar: Sacute
Encoding: 346 346 97
Width: 498
Flags: HMW
HStem: -9 56<203 245.5 203 280> 646 56<305.5 341.5> 655 20G
VStem: 15 92<34 133> 105 91<493.5 547> 356 100<158 216.5> 412 92
LayerCount: 2
Fore
SplineSet
520 842 m 1,0,-1
 302 749 l 1,1,-1
 278 785 l 1,2,-1
 476 914 l 1,3,-1
 532 863 l 1,4,-1
 520 842 l 1,0,-1
466 506 m 1,5,-1
 407 499 l 1,6,7
 412 561 412 561 412 588 c 128,-1,8
 412 615 412 615 402 625 c 0,9,10
 381 646 381 646 329 646 c 128,-1,11
 277 646 277 646 244 622 c 0,12,13
 196 587 196 587 196 532.608695652 c 0,14,15
 196 478.217391304 196 478.217391304 239 445.5 c 0,16,17
 272.13215859 420.290748899 272.13215859 420.290748899 330.566079295 392.145374449 c 128,-1,18
 389 364 389 364 422.5 323 c 128,-1,19
 456 282 456 282 456 216 c 0,20,21
 456 120 456 120 386.5 55.5 c 128,-1,22
 317 -9 317 -9 199 -9 c 0,23,24
 141 -9 141 -9 90 5.5 c 128,-1,25
 39 20 39 20 15 34 c 1,26,27
 15 103 15 103 53 200 c 1,28,-1
 111 203 l 1,29,30
 107 131 107 131 107 110.5 c 128,-1,31
 107 90 107 90 119 80 c 128,-1,32
 131 70 131 70 162.5 58.5 c 128,-1,33
 194 47 194 47 233.5 47 c 128,-1,34
 273 47 273 47 306 71 c 0,35,36
 356 107 356 107 356 173.12962963 c 0,37,38
 356 239.259259259 356 239.259259259 290.5 280.5 c 0,39,40
 270.25 293.25 270.25 293.25 252.125 302.625 c 0,41,42
 170.976377953 344.598425197 170.976377953 344.598425197 137.988188976 382.299212598 c 128,-1,43
 105 420 105 420 105 483 c 0,44,45
 105 579 105 579 177.5 640.5 c 128,-1,46
 250 702 250 702 366 702 c 0,47,48
 443 702 443 702 504 675 c 1,49,50
 500 602 500 602 466 506 c 1,5,-1
EndSplineSet
Position2: "'cpsp' Capital Spacing in Latin lookup 0 subtable" dx=5 dy=0 dh=10 dv=0
EndChar

StartChar: Scaron
Encoding: 352 352 98
Width: 498
Flags: HMW
HStem: -9 56<203 245.5 203 280> 646 56<305.5 341.5> 655 20G
VStem: 15 92<34 133> 105 91<493.5 547> 356 100<158 216.5> 412 92
LayerCount: 2
Fore
SplineSet
531 891 m 1,0,-1
 374 752 l 1,1,-1
 318 752 l 1,2,-1
 203 891 l 1,3,-1
 233 917 l 1,4,-1
 355 826 l 1,5,-1
 511 917 l 1,6,-1
 531 891 l 1,0,-1
466 506 m 1,7,-1
 407 499 l 1,8,9
 412 561 412 561 412 588 c 128,-1,10
 412 615 412 615 402 625 c 0,11,12
 381 646 381 646 329 646 c 128,-1,13
 277 646 277 646 244 622 c 0,14,15
 196 587 196 587 196 532.608695652 c 0,16,17
 196 478.217391304 196 478.217391304 239 445.5 c 0,18,19
 272.13215859 420.290748899 272.13215859 420.290748899 330.566079295 392.145374449 c 128,-1,20
 389 364 389 364 422.5 323 c 128,-1,21
 456 282 456 282 456 216 c 0,22,23
 456 120 456 120 386.5 55.5 c 128,-1,24
 317 -9 317 -9 199 -9 c 0,25,26
 141 -9 141 -9 90 5.5 c 128,-1,27
 39 20 39 20 15 34 c 1,28,29
 15 103 15 103 53 200 c 1,30,-1
 111 203 l 1,31,32
 107 131 107 131 107 110.5 c 128,-1,33
 107 90 107 90 119 80 c 128,-1,34
 131 70 131 70 162.5 58.5 c 128,-1,35
 194 47 194 47 233.5 47 c 128,-1,36
 273 47 273 47 306 71 c 0,37,38
 356 107 356 107 356 173.12962963 c 0,39,40
 356 239.259259259 356 239.259259259 290.5 280.5 c 0,41,42
 270.25 293.25 270.25 293.25 252.125 302.625 c 0,43,44
 170.976377953 344.598425197 170.976377953 344.598425197 137.988188976 382.299212598 c 128,-1,45
 105 420 105 420 105 483 c 0,46,47
 105 579 105 579 177.5 640.5 c 128,-1,48
 250 702 250 702 366 702 c 0,49,50
 443 702 443 702 504 675 c 1,51,52
 500 602 500 602 466 506 c 1,7,-1
EndSplineSet
Position2: "'cpsp' Capital Spacing in Latin lookup 0 subtable" dx=5 dy=0 dh=10 dv=0
EndChar

StartChar: Scedilla
Encoding: 350 350 99
Width: 499
Flags: HMW
HStem: -217 31<123 125> -90 45<184.5 267> -9 56<180 245.5> 646 56<305.5 341.5> 655 20G
VStem: 15 92<34 133> 105 91<493.5 547> 231 86<-127.5 -113.5> 356 100<159 216.5> 412 92
LayerCount: 2
Fore
SplineSet
123 -217 m 1,0,-1
 125 -186 l 1,1,2
 173 -180 173 -180 202 -163 c 128,-1,3
 231 -146 231 -146 231 -122 c 0,4,5
 231 -90 231 -90 191 -90 c 0,6,7
 170 -90 170 -90 148 -100 c 1,8,-1
 142 -89 l 1,9,-1
 180 -9 l 1,10,11
 127 -6 127 -6 81.5 7.5 c 128,-1,12
 36 21 36 21 15 34 c 1,13,14
 15 103 15 103 53 200 c 1,15,-1
 111 203 l 1,16,17
 107 131 107 131 107 110.5 c 128,-1,18
 107 90 107 90 119 80 c 128,-1,19
 131 70 131 70 162.5 58.5 c 128,-1,20
 194 47 194 47 233.5 47 c 128,-1,21
 273 47 273 47 306 71 c 0,22,23
 356 107 356 107 356 173.12962963 c 0,24,25
 356 239.259259259 356 239.259259259 290.5 280.5 c 0,26,27
 270.25 293.25 270.25 293.25 252.125 302.625 c 0,28,29
 170.976377953 344.598425197 170.976377953 344.598425197 137.988188976 382.299212598 c 128,-1,30
 105 420 105 420 105 483 c 0,31,32
 105 579 105 579 177.5 640.5 c 128,-1,33
 250 702 250 702 366 702 c 0,34,35
 443 702 443 702 504 675 c 1,36,37
 500 602 500 602 466 506 c 1,38,-1
 407 499 l 1,39,40
 412 561 412 561 412 588 c 128,-1,41
 412 615 412 615 402 625 c 0,42,43
 381 646 381 646 329 646 c 128,-1,44
 277 646 277 646 244 622 c 0,45,46
 196 587 196 587 196 532.608695652 c 0,47,48
 196 478.217391304 196 478.217391304 239 445.5 c 0,49,50
 272.13215859 420.290748899 272.13215859 420.290748899 330.566079295 392.145374449 c 128,-1,51
 389 364 389 364 422.5 323 c 128,-1,52
 456 282 456 282 456 216 c 0,53,54
 456 128 456 128 396 65.5 c 128,-1,55
 336 3 336 3 234 -7 c 1,56,-1
 215 -47 l 1,57,58
 225 -45 225 -45 251.5 -45 c 128,-1,59
 278 -45 278 -45 297.5 -59.5 c 128,-1,60
 317 -74 317 -74 317 -99 c 0,61,62
 317 -144 317 -144 264 -178.5 c 128,-1,63
 211 -213 211 -213 123 -217 c 1,0,-1
EndSplineSet
Substitution2: "'locl' Localized Forms in Latin lookup 4 subtable" Scommaaccent
Substitution2: "'aalt' Access All Alternates in Latin lookup 0 subtable" Scommaaccent
Position2: "'cpsp' Capital Spacing in Latin lookup 0 subtable" dx=5 dy=0 dh=10 dv=0
EndChar

StartChar: Scircumflex
Encoding: 348 348 100
Width: 498
Flags: HMW
HStem: -9 56<203 245.5 203 280> 646 56<305.5 341.5> 655 20G
VStem: 15 92<34 133> 105 91<493.5 547> 356 100<158 216.5> 412 92
LayerCount: 2
Fore
SplineSet
530 775 m 1,0,-1
 500 749 l 1,1,-1
 378 840 l 1,2,-1
 222 749 l 1,3,-1
 202 775 l 1,4,-1
 358 914 l 1,5,-1
 414 914 l 1,6,-1
 530 775 l 1,0,-1
466 506 m 1,7,-1
 407 499 l 1,8,9
 412 561 412 561 412 588 c 128,-1,10
 412 615 412 615 402 625 c 0,11,12
 381 646 381 646 329 646 c 128,-1,13
 277 646 277 646 244 622 c 0,14,15
 196 587 196 587 196 532.608695652 c 0,16,17
 196 478.217391304 196 478.217391304 239 445.5 c 0,18,19
 272.13215859 420.290748899 272.13215859 420.290748899 330.566079295 392.145374449 c 128,-1,20
 389 364 389 364 422.5 323 c 128,-1,21
 456 282 456 282 456 216 c 0,22,23
 456 120 456 120 386.5 55.5 c 128,-1,24
 317 -9 317 -9 199 -9 c 0,25,26
 141 -9 141 -9 90 5.5 c 128,-1,27
 39 20 39 20 15 34 c 1,28,29
 15 103 15 103 53 200 c 1,30,-1
 111 203 l 1,31,32
 107 131 107 131 107 110.5 c 128,-1,33
 107 90 107 90 119 80 c 128,-1,34
 131 70 131 70 162.5 58.5 c 128,-1,35
 194 47 194 47 233.5 47 c 128,-1,36
 273 47 273 47 306 71 c 0,37,38
 356 107 356 107 356 173.12962963 c 0,39,40
 356 239.259259259 356 239.259259259 290.5 280.5 c 0,41,42
 270.25 293.25 270.25 293.25 252.125 302.625 c 0,43,44
 170.976377953 344.598425197 170.976377953 344.598425197 137.988188976 382.299212598 c 128,-1,45
 105 420 105 420 105 483 c 0,46,47
 105 579 105 579 177.5 640.5 c 128,-1,48
 250 702 250 702 366 702 c 0,49,50
 443 702 443 702 504 675 c 1,51,52
 500 602 500 602 466 506 c 1,7,-1
EndSplineSet
Position2: "'cpsp' Capital Spacing in Latin lookup 0 subtable" dx=5 dy=0 dh=10 dv=0
EndChar

StartChar: Scommaaccent
Encoding: 536 536 101
Width: 498
Flags: HMW
HStem: -210 21G<146 146> -9 56<203 245.5 203 280> 646 56<305.5 341.5> 655 20G
VStem: 15 92<34 133> 105 91<493.5 547> 169 95<-79.5 -57.5 -95.5 -55> 356 100<158 216.5> 412 92
LayerCount: 2
Fore
SplineSet
466 506 m 1,0,-1
 407 499 l 1,1,2
 412 561 412 561 412 588 c 128,-1,3
 412 615 412 615 402 625 c 0,4,5
 381 646 381 646 329 646 c 128,-1,6
 277 646 277 646 244 622 c 0,7,8
 196 587 196 587 196 532.608695652 c 0,9,10
 196 478.217391304 196 478.217391304 239 445.5 c 0,11,12
 272.13215859 420.290748899 272.13215859 420.290748899 330.566079295 392.145374449 c 128,-1,13
 389 364 389 364 422.5 323 c 128,-1,14
 456 282 456 282 456 216 c 0,15,16
 456 120 456 120 386.5 55.5 c 128,-1,17
 317 -9 317 -9 199 -9 c 0,18,19
 141 -9 141 -9 90 5.5 c 128,-1,20
 39 20 39 20 15 34 c 1,21,22
 15 103 15 103 53 200 c 1,23,-1
 111 203 l 1,24,25
 107 131 107 131 107 110.5 c 128,-1,26
 107 90 107 90 119 80 c 128,-1,27
 131 70 131 70 162.5 58.5 c 128,-1,28
 194 47 194 47 233.5 47 c 128,-1,29
 273 47 273 47 306 71 c 0,30,31
 356 107 356 107 356 173.12962963 c 0,32,33
 356 239.259259259 356 239.259259259 290.5 280.5 c 0,34,35
 270.25 293.25 270.25 293.25 252.125 302.625 c 0,36,37
 170.976377953 344.598425197 170.976377953 344.598425197 137.988188976 382.299212598 c 128,-1,38
 105 420 105 420 105 483 c 0,39,40
 105 579 105 579 177.5 640.5 c 128,-1,41
 250 702 250 702 366 702 c 0,42,43
 443 702 443 702 504 675 c 1,44,45
 500 602 500 602 466 506 c 1,0,-1
146 -210 m 1,46,-1
 125 -185 l 1,47,48
 182 -149 182 -149 182 -117 c 0,49,50
 182 -108 182 -108 175.5 -94 c 128,-1,51
 169 -80 169 -80 169 -64 c 128,-1,52
 169 -48 169 -48 183.5 -34.5 c 128,-1,53
 198 -21 198 -21 218 -21 c 128,-1,54
 238 -21 238 -21 251 -35.5 c 128,-1,55
 264 -50 264 -50 264 -79 c 128,-1,56
 264 -108 264 -108 233 -144.5 c 128,-1,57
 202 -181 202 -181 146 -210 c 1,46,-1
EndSplineSet
Position2: "'cpsp' Capital Spacing in Latin lookup 0 subtable" dx=5 dy=0 dh=10 dv=0
EndChar

StartChar: T
Encoding: 84 84 102
Width: 577
Flags: HMW
HStem: 0 39<125 406 125 125> 497 20G<69 69 630 630> 641 52<323 323 420 420>
VStem: 228 94<70.5 101> 578 52<517 517 517 568.5>
LayerCount: 2
Fore
SplineSet
406 0 m 1,0,-1
 125 0 l 1,1,-1
 125 39 l 1,2,3
 203.76797829 50.986431479 203.76797829 50.986431479 217.5 70 c 0,4,5
 224 79 224 79 228 101 c 2,6,-1
 323 641 l 1,7,8
 193 639 193 639 183.5 635 c 128,-1,9
 174 631 174 631 168.5 625.5 c 0,10,11
 155.272727273 612.272727273 155.272727273 612.272727273 119 513 c 1,12,-1
 69 517 l 1,13,14
 81 604 81 604 108 693 c 1,15,-1
 653 693 l 1,16,17
 647 586 647 586 630 517 c 1,18,-1
 578 513 l 1,19,20
 578 609 578 609 569 625.5 c 0,21,22
 566 631 566 631 557 635 c 128,-1,23
 548 639 548 639 420 641 c 1,24,-1
 324 95 l 2,25,26
 322 85 322 85 322 77 c 0,27,28
 322 52 322 52 345 50 c 1,29,-1
 411 39 l 1,30,-1
 406 0 l 1,0,-1
EndSplineSet
Position2: "'cpsp' Capital Spacing in Latin lookup 0 subtable" dx=5 dy=0 dh=10 dv=0
EndChar

StartChar: Tbar
Encoding: 358 358 103
Width: 577
Flags: HMW
HStem: 0 39<125 406 125 125> 497 20G<69 69 630 630> 641 52<323 323 420 420> 804 60<286 524 275 535>
VStem: 228 94<70.5 101> 578 52<517 517 517 568.5>
LayerCount: 2
Fore
SplineSet
524 804 m 1,0,-1
 275 804 l 1,1,-1
 286 864 l 1,2,-1
 535 864 l 1,3,-1
 524 804 l 1,0,-1
406 0 m 1,4,-1
 125 0 l 1,5,-1
 125 39 l 1,6,7
 203.76797829 50.986431479 203.76797829 50.986431479 217.5 70 c 0,8,9
 224 79 224 79 228 101 c 2,10,-1
 323 641 l 1,11,12
 193 639 193 639 183.5 635 c 128,-1,13
 174 631 174 631 168.5 625.5 c 0,14,15
 155.272727273 612.272727273 155.272727273 612.272727273 119 513 c 1,16,-1
 69 517 l 1,17,18
 81 604 81 604 108 693 c 1,19,-1
 653 693 l 1,20,21
 647 586 647 586 630 517 c 1,22,-1
 578 513 l 1,23,24
 578 609 578 609 569 625.5 c 0,25,26
 566 631 566 631 557 635 c 128,-1,27
 548 639 548 639 420 641 c 1,28,-1
 324 95 l 2,29,30
 322 85 322 85 322 77 c 0,31,32
 322 52 322 52 345 50 c 1,33,-1
 411 39 l 1,34,-1
 406 0 l 1,4,-1
EndSplineSet
Position2: "'cpsp' Capital Spacing in Latin lookup 0 subtable" dx=5 dy=0 dh=10 dv=0
EndChar

StartChar: Tcaron
Encoding: 356 356 104
Width: 577
Flags: HMW
HStem: 0 39<125 406 125 125> 497 20G<69 69 630 630> 641 52<323 323 420 420>
VStem: 228 94<70.5 101> 578 52<517 517 517 568.5>
LayerCount: 2
Fore
SplineSet
568 891 m 1,0,-1
 411 752 l 1,1,-1
 355 752 l 1,2,-1
 240 891 l 1,3,-1
 270 917 l 1,4,-1
 392 826 l 1,5,-1
 548 917 l 1,6,-1
 568 891 l 1,0,-1
406 0 m 1,7,-1
 125 0 l 1,8,-1
 125 39 l 1,9,10
 203.76797829 50.986431479 203.76797829 50.986431479 217.5 70 c 0,11,12
 224 79 224 79 228 101 c 2,13,-1
 323 641 l 1,14,15
 193 639 193 639 183.5 635 c 128,-1,16
 174 631 174 631 168.5 625.5 c 0,17,18
 155.272727273 612.272727273 155.272727273 612.272727273 119 513 c 1,19,-1
 69 517 l 1,20,21
 81 604 81 604 108 693 c 1,22,-1
 653 693 l 1,23,24
 647 586 647 586 630 517 c 1,25,-1
 578 513 l 1,26,27
 578 609 578 609 569 625.5 c 0,28,29
 566 631 566 631 557 635 c 128,-1,30
 548 639 548 639 420 641 c 1,31,-1
 324 95 l 2,32,33
 322 85 322 85 322 77 c 0,34,35
 322 52 322 52 345 50 c 1,36,-1
 411 39 l 1,37,-1
 406 0 l 1,7,-1
EndSplineSet
Position2: "'cpsp' Capital Spacing in Latin lookup 0 subtable" dx=5 dy=0 dh=10 dv=0
EndChar

StartChar: Tcedilla
Encoding: 354 354 105
Width: 577
Flags: HMW
HStem: -217 31<165 167> -90 45<226.5 309> 0 39<125 226 125 125> 497 20G<69 69 630 630> 641 52<323 323 420 420>
VStem: 228 94<70.5 101> 273 86<-127.5 -113.5> 578 52<517 517 517 568.5>
LayerCount: 2
Fore
SplineSet
406 0 m 1,0,-1
 279 0 l 1,1,-1
 257 -47 l 1,2,3
 267 -45 267 -45 293.5 -45 c 128,-1,4
 320 -45 320 -45 339.5 -59.5 c 128,-1,5
 359 -74 359 -74 359 -99 c 0,6,7
 359 -144 359 -144 306 -178.5 c 128,-1,8
 253 -213 253 -213 165 -217 c 1,9,-1
 167 -186 l 1,10,11
 215 -180 215 -180 244 -163 c 128,-1,12
 273 -146 273 -146 273 -122 c 0,13,14
 273 -90 273 -90 233 -90 c 0,15,16
 212 -90 212 -90 190 -100 c 1,17,-1
 184 -89 l 1,18,-1
 226 0 l 1,19,-1
 125 0 l 1,20,-1
 125 39 l 1,21,22
 203.76797829 50.986431479 203.76797829 50.986431479 217.5 70 c 0,23,24
 224 79 224 79 228 101 c 2,25,-1
 323 641 l 1,26,27
 193 639 193 639 183.5 635 c 128,-1,28
 174 631 174 631 168.5 625.5 c 0,29,30
 155.272727273 612.272727273 155.272727273 612.272727273 119 513 c 1,31,-1
 69 517 l 1,32,33
 81 604 81 604 108 693 c 1,34,-1
 653 693 l 1,35,36
 647 586 647 586 630 517 c 1,37,-1
 578 513 l 1,38,39
 578 609 578 609 569 625.5 c 0,40,41
 566 631 566 631 557 635 c 128,-1,42
 548 639 548 639 420 641 c 1,43,-1
 324 95 l 2,44,45
 322 85 322 85 322 77 c 0,46,47
 322 52 322 52 345 50 c 1,48,-1
 411 39 l 1,49,-1
 406 0 l 1,0,-1
EndSplineSet
Substitution2: "'locl' Localized Forms in Latin lookup 4 subtable" Tcommaaccent
Substitution2: "'aalt' Access All Alternates in Latin lookup 0 subtable" Tcommaaccent
Position2: "'cpsp' Capital Spacing in Latin lookup 0 subtable" dx=5 dy=0 dh=10 dv=0
EndChar

StartChar: Tcommaaccent
Encoding: 538 538 106
Width: 577
Flags: HMW
HStem: -210 21G<178 178> 0 39<125 406 125 125> 497 20G<69 69 630 630> 641 52<323 323 420 420>
VStem: 201 95<-79.5 -57.5 -95.5 -55> 228 94<70.5 101> 578 52<517 517 517 568.5>
LayerCount: 2
Fore
SplineSet
406 0 m 1,0,-1
 125 0 l 1,1,-1
 125 39 l 1,2,3
 203.76797829 50.986431479 203.76797829 50.986431479 217.5 70 c 0,4,5
 224 79 224 79 228 101 c 2,6,-1
 323 641 l 1,7,8
 193 639 193 639 183.5 635 c 128,-1,9
 174 631 174 631 168.5 625.5 c 0,10,11
 155.272727273 612.272727273 155.272727273 612.272727273 119 513 c 1,12,-1
 69 517 l 1,13,14
 81 604 81 604 108 693 c 1,15,-1
 653 693 l 1,16,17
 647 586 647 586 630 517 c 1,18,-1
 578 513 l 1,19,20
 578 609 578 609 569 625.5 c 0,21,22
 566 631 566 631 557 635 c 128,-1,23
 548 639 548 639 420 641 c 1,24,-1
 324 95 l 2,25,26
 322 85 322 85 322 77 c 0,27,28
 322 52 322 52 345 50 c 1,29,-1
 411 39 l 1,30,-1
 406 0 l 1,0,-1
178 -210 m 1,31,-1
 157 -185 l 1,32,33
 214 -149 214 -149 214 -117 c 0,34,35
 214 -108 214 -108 207.5 -94 c 128,-1,36
 201 -80 201 -80 201 -64 c 128,-1,37
 201 -48 201 -48 215.5 -34.5 c 128,-1,38
 230 -21 230 -21 250 -21 c 128,-1,39
 270 -21 270 -21 283 -35.5 c 128,-1,40
 296 -50 296 -50 296 -79 c 128,-1,41
 296 -108 296 -108 265 -144.5 c 128,-1,42
 234 -181 234 -181 178 -210 c 1,31,-1
EndSplineSet
Position2: "'cpsp' Capital Spacing in Latin lookup 0 subtable" dx=5 dy=0 dh=10 dv=0
EndChar

StartChar: Thorn
Encoding: 222 222 107
Width: 539
Flags: HMW
HStem: 0 39<22 271 22 22> 162 53<225 260 215 262> 504 53<286.5 296 296 342> 654 39<130 388 385 385>
VStem: 439 110<350.5 444>
LayerCount: 2
Fore
SplineSet
195 592 m 1,0,-1
 198 615 l 1,1,2
 198 631 198 631 184.5 639 c 128,-1,3
 171 647 171 647 130 654 c 1,4,-1
 136 693 l 1,5,-1
 388 693 l 1,6,-1
 385 654 l 1,7,-1
 321 642 l 2,8,9
 300 638 300 638 296 616 c 2,10,-1
 285 557 l 1,11,-1
 376 557 l 2,12,13
 461 557 461 557 505 518 c 128,-1,14
 549 479 549 479 549 414 c 0,15,16
 549 311 549 311 472.5 236.5 c 128,-1,17
 396 162 396 162 260 162 c 2,18,-1
 215 162 l 1,19,-1
 205 102 l 2,20,21
 202 86 202 86 202 76 c 0,22,23
 202 53 202 53 229 48 c 2,24,-1
 276 39 l 1,25,-1
 271 0 l 1,26,-1
 22 0 l 1,27,-1
 22 39 l 1,28,29
 76 48 76 48 89 59 c 128,-1,30
 102 70 102 70 108 101 c 2,31,-1
 195 592 l 1,0,-1
225 215 m 1,32,-1
 262 215 l 2,33,34
 327.842105263 215 327.842105263 215 378.5 250 c 0,35,36
 406 269 406 269 422.5 308 c 128,-1,37
 439 347 439 347 439 402.5 c 128,-1,38
 439 458 439 458 409.5 481 c 128,-1,39
 380 504 380 504 342 504 c 2,40,-1
 296 504 l 2,41,42
 276 504 276 504 272 480 c 2,43,-1
 225 215 l 1,32,-1
EndSplineSet
Position2: "'cpsp' Capital Spacing in Latin lookup 0 subtable" dx=5 dy=0 dh=10 dv=0
EndChar

StartChar: U
Encoding: 85 85 108
Width: 719
Flags: HMW
HStem: -9 73<314 410> 654 39<129 387 384 384 766 766>
VStem: 127 100<156.5 185> 606 161
LayerCount: 2
Fore
SplineSet
227 196 m 0,0,1
 227 64 227 64 368 64 c 0,2,3
 443 64 443 64 488 118 c 128,-1,4
 533 172 533 172 546 249 c 2,5,-1
 603 573 l 2,6,7
 606 591 606 591 606 609.5 c 128,-1,8
 606 628 606 628 589 638 c 128,-1,9
 572 648 572 648 521 654 c 1,10,-1
 527 693 l 1,11,-1
 769 693 l 1,12,-1
 766 654 l 1,13,-1
 702 642 l 2,14,15
 684.432432432 638.486486486 684.432432432 638.486486486 680.5 628 c 0,16,17
 679 624 679 624 678 616 c 2,18,-1
 614 257 l 2,19,20
 566 -9 566 -9 328 -9 c 0,21,22
 228 -9 228 -9 177.5 39 c 128,-1,23
 127 87 127 87 127 175 c 0,24,25
 127 210 127 210 134 249 c 2,26,-1
 194 592 l 2,27,28
 197 606 197 606 197 619 c 128,-1,29
 197 632 197 632 183.5 639 c 128,-1,30
 170 646 170 646 129 654 c 1,31,-1
 135 693 l 1,32,-1
 387 693 l 1,33,-1
 384 654 l 1,34,-1
 320 642 l 2,35,36
 303.105263158 638.245614035 303.105263158 638.245614035 298.5 627.5 c 0,37,38
 297 624 297 624 296 616 c 2,39,-1
 234 264 l 2,40,41
 227 220 227 220 227 196 c 0,0,1
EndSplineSet
Position2: "'cpsp' Capital Spacing in Latin lookup 0 subtable" dx=5 dy=0 dh=10 dv=0
EndChar

StartChar: Uacute
Encoding: 218 218 109
Width: 719
Flags: HMW
HStem: -9 73<314 410> 654 39<129 387 384 384 766 766>
VStem: 127 100<156.5 185> 606 161
LayerCount: 2
Fore
SplineSet
638 842 m 1,0,-1
 420 749 l 1,1,-1
 396 785 l 1,2,-1
 594 914 l 1,3,-1
 650 863 l 1,4,-1
 638 842 l 1,0,-1
227 196 m 0,5,6
 227 64 227 64 368 64 c 0,7,8
 443 64 443 64 488 118 c 128,-1,9
 533 172 533 172 546 249 c 2,10,-1
 603 573 l 2,11,12
 606 591 606 591 606 609.5 c 128,-1,13
 606 628 606 628 589 638 c 128,-1,14
 572 648 572 648 521 654 c 1,15,-1
 527 693 l 1,16,-1
 769 693 l 1,17,-1
 766 654 l 1,18,-1
 702 642 l 2,19,20
 684.432432432 638.486486486 684.432432432 638.486486486 680.5 628 c 0,21,22
 679 624 679 624 678 616 c 2,23,-1
 614 257 l 2,24,25
 566 -9 566 -9 328 -9 c 0,26,27
 228 -9 228 -9 177.5 39 c 128,-1,28
 127 87 127 87 127 175 c 0,29,30
 127 210 127 210 134 249 c 2,31,-1
 194 592 l 2,32,33
 197 606 197 606 197 619 c 128,-1,34
 197 632 197 632 183.5 639 c 128,-1,35
 170 646 170 646 129 654 c 1,36,-1
 135 693 l 1,37,-1
 387 693 l 1,38,-1
 384 654 l 1,39,-1
 320 642 l 2,40,41
 303.105263158 638.245614035 303.105263158 638.245614035 298.5 627.5 c 0,42,43
 297 624 297 624 296 616 c 2,44,-1
 234 264 l 2,45,46
 227 220 227 220 227 196 c 0,5,6
EndSplineSet
Position2: "'cpsp' Capital Spacing in Latin lookup 0 subtable" dx=5 dy=0 dh=10 dv=0
EndChar

StartChar: Ucircumflex
Encoding: 219 219 110
Width: 719
Flags: HMW
HStem: -9 73<314 410> 654 39<129 387 384 384 766 766>
VStem: 127 100<156.5 185> 606 161
LayerCount: 2
Fore
SplineSet
648 775 m 1,0,-1
 618 749 l 1,1,-1
 496 840 l 1,2,-1
 340 749 l 1,3,-1
 320 775 l 1,4,-1
 476 914 l 1,5,-1
 532 914 l 1,6,-1
 648 775 l 1,0,-1
227 196 m 0,7,8
 227 64 227 64 368 64 c 0,9,10
 443 64 443 64 488 118 c 128,-1,11
 533 172 533 172 546 249 c 2,12,-1
 603 573 l 2,13,14
 606 591 606 591 606 609.5 c 128,-1,15
 606 628 606 628 589 638 c 128,-1,16
 572 648 572 648 521 654 c 1,17,-1
 527 693 l 1,18,-1
 769 693 l 1,19,-1
 766 654 l 1,20,-1
 702 642 l 2,21,22
 684.432432432 638.486486486 684.432432432 638.486486486 680.5 628 c 0,23,24
 679 624 679 624 678 616 c 2,25,-1
 614 257 l 2,26,27
 566 -9 566 -9 328 -9 c 0,28,29
 228 -9 228 -9 177.5 39 c 128,-1,30
 127 87 127 87 127 175 c 0,31,32
 127 210 127 210 134 249 c 2,33,-1
 194 592 l 2,34,35
 197 606 197 606 197 619 c 128,-1,36
 197 632 197 632 183.5 639 c 128,-1,37
 170 646 170 646 129 654 c 1,38,-1
 135 693 l 1,39,-1
 387 693 l 1,40,-1
 384 654 l 1,41,-1
 320 642 l 2,42,43
 303.105263158 638.245614035 303.105263158 638.245614035 298.5 627.5 c 0,44,45
 297 624 297 624 296 616 c 2,46,-1
 234 264 l 2,47,48
 227 220 227 220 227 196 c 0,7,8
EndSplineSet
Position2: "'cpsp' Capital Spacing in Latin lookup 0 subtable" dx=5 dy=0 dh=10 dv=0
EndChar

StartChar: Udieresis
Encoding: 220 220 111
Width: 719
Flags: HMW
HStem: -9 73<314 410> 654 39<129 387 384 384 766 766> 775 110<378 398 571 591>
VStem: 127 100<156.5 185> 334 108<823 838> 527 108<823 838> 606 161
LayerCount: 2
Fore
SplineSet
574 775 m 0,0,1
 527 775 527 775 527 821 c 0,2,3
 527 847 527 847 545 866 c 128,-1,4
 563 885 563 885 588 885 c 0,5,6
 635 885 635 885 635 840 c 0,7,8
 635 814 635 814 617 794.5 c 128,-1,9
 599 775 599 775 574 775 c 0,0,1
381 775 m 0,10,11
 334 775 334 775 334 821 c 0,12,13
 334 847 334 847 352 866 c 128,-1,14
 370 885 370 885 395 885 c 0,15,16
 442 885 442 885 442 840 c 0,17,18
 442 814 442 814 424 794.5 c 128,-1,19
 406 775 406 775 381 775 c 0,10,11
227 196 m 0,20,21
 227 64 227 64 368 64 c 0,22,23
 443 64 443 64 488 118 c 128,-1,24
 533 172 533 172 546 249 c 2,25,-1
 603 573 l 2,26,27
 606 591 606 591 606 609.5 c 128,-1,28
 606 628 606 628 589 638 c 128,-1,29
 572 648 572 648 521 654 c 1,30,-1
 527 693 l 1,31,-1
 769 693 l 1,32,-1
 766 654 l 1,33,-1
 702 642 l 2,34,35
 684.432432432 638.486486486 684.432432432 638.486486486 680.5 628 c 0,36,37
 679 624 679 624 678 616 c 2,38,-1
 614 257 l 2,39,40
 566 -9 566 -9 328 -9 c 0,41,42
 228 -9 228 -9 177.5 39 c 128,-1,43
 127 87 127 87 127 175 c 0,44,45
 127 210 127 210 134 249 c 2,46,-1
 194 592 l 2,47,48
 197 606 197 606 197 619 c 128,-1,49
 197 632 197 632 183.5 639 c 128,-1,50
 170 646 170 646 129 654 c 1,51,-1
 135 693 l 1,52,-1
 387 693 l 1,53,-1
 384 654 l 1,54,-1
 320 642 l 2,55,56
 303.105263158 638.245614035 303.105263158 638.245614035 298.5 627.5 c 0,57,58
 297 624 297 624 296 616 c 2,59,-1
 234 264 l 2,60,61
 227 220 227 220 227 196 c 0,20,21
EndSplineSet
Position2: "'cpsp' Capital Spacing in Latin lookup 0 subtable" dx=5 dy=0 dh=10 dv=0
EndChar

StartChar: Ugrave
Encoding: 217 217 112
Width: 719
Flags: HMW
HStem: -9 73<314 410> 654 39<129 387 384 384 766 766>
VStem: 127 100<156.5 185> 606 161
LayerCount: 2
Fore
SplineSet
513 749 m 1,0,-1
 329 842 l 1,1,-1
 325 863 l 1,2,-1
 389 914 l 1,3,-1
 539 785 l 1,4,-1
 513 749 l 1,0,-1
227 196 m 0,5,6
 227 64 227 64 368 64 c 0,7,8
 443 64 443 64 488 118 c 128,-1,9
 533 172 533 172 546 249 c 2,10,-1
 603 573 l 2,11,12
 606 591 606 591 606 609.5 c 128,-1,13
 606 628 606 628 589 638 c 128,-1,14
 572 648 572 648 521 654 c 1,15,-1
 527 693 l 1,16,-1
 769 693 l 1,17,-1
 766 654 l 1,18,-1
 702 642 l 2,19,20
 684.432432432 638.486486486 684.432432432 638.486486486 680.5 628 c 0,21,22
 679 624 679 624 678 616 c 2,23,-1
 614 257 l 2,24,25
 566 -9 566 -9 328 -9 c 0,26,27
 228 -9 228 -9 177.5 39 c 128,-1,28
 127 87 127 87 127 175 c 0,29,30
 127 210 127 210 134 249 c 2,31,-1
 194 592 l 2,32,33
 197 606 197 606 197 619 c 128,-1,34
 197 632 197 632 183.5 639 c 128,-1,35
 170 646 170 646 129 654 c 1,36,-1
 135 693 l 1,37,-1
 387 693 l 1,38,-1
 384 654 l 1,39,-1
 320 642 l 2,40,41
 303.105263158 638.245614035 303.105263158 638.245614035 298.5 627.5 c 0,42,43
 297 624 297 624 296 616 c 2,44,-1
 234 264 l 2,45,46
 227 220 227 220 227 196 c 0,5,6
EndSplineSet
Position2: "'cpsp' Capital Spacing in Latin lookup 0 subtable" dx=5 dy=0 dh=10 dv=0
EndChar

StartChar: Uhungarumlaut
Encoding: 368 368 113
Width: 719
Flags: HMW
HStem: -9 73<314 410> 654 39<129 387 384 384 766 766>
VStem: 127 100<156.5 185> 606 161
LayerCount: 2
Fore
SplineSet
765 862 m 1,0,-1
 567 751 l 1,1,-1
 537 776 l 1,2,-1
 680 915 l 1,3,-1
 769 885 l 1,4,-1
 765 862 l 1,0,-1
567 862 m 1,5,-1
 369 751 l 1,6,-1
 339 776 l 1,7,-1
 482 915 l 1,8,-1
 571 885 l 1,9,-1
 567 862 l 1,5,-1
227 196 m 0,10,11
 227 64 227 64 368 64 c 0,12,13
 443 64 443 64 488 118 c 128,-1,14
 533 172 533 172 546 249 c 2,15,-1
 603 573 l 2,16,17
 606 591 606 591 606 609.5 c 128,-1,18
 606 628 606 628 589 638 c 128,-1,19
 572 648 572 648 521 654 c 1,20,-1
 527 693 l 1,21,-1
 769 693 l 1,22,-1
 766 654 l 1,23,-1
 702 642 l 2,24,25
 684.432432432 638.486486486 684.432432432 638.486486486 680.5 628 c 0,26,27
 679 624 679 624 678 616 c 2,28,-1
 614 257 l 2,29,30
 566 -9 566 -9 328 -9 c 0,31,32
 228 -9 228 -9 177.5 39 c 128,-1,33
 127 87 127 87 127 175 c 0,34,35
 127 210 127 210 134 249 c 2,36,-1
 194 592 l 2,37,38
 197 606 197 606 197 619 c 128,-1,39
 197 632 197 632 183.5 639 c 128,-1,40
 170 646 170 646 129 654 c 1,41,-1
 135 693 l 1,42,-1
 387 693 l 1,43,-1
 384 654 l 1,44,-1
 320 642 l 2,45,46
 303.105263158 638.245614035 303.105263158 638.245614035 298.5 627.5 c 0,47,48
 297 624 297 624 296 616 c 2,49,-1
 234 264 l 2,50,51
 227 220 227 220 227 196 c 0,10,11
EndSplineSet
Position2: "'cpsp' Capital Spacing in Latin lookup 0 subtable" dx=5 dy=0 dh=10 dv=0
EndChar

StartChar: Umacron
Encoding: 362 362 114
Width: 719
Flags: HMW
HStem: -9 73<314 410> 654 39<129 387 384 384 766 766> 804 60<367 605 356 616>
VStem: 127 100<156.5 185> 606 161
LayerCount: 2
Fore
SplineSet
605 804 m 1,0,-1
 356 804 l 1,1,-1
 367 864 l 1,2,-1
 616 864 l 1,3,-1
 605 804 l 1,0,-1
227 196 m 0,4,5
 227 64 227 64 368 64 c 0,6,7
 443 64 443 64 488 118 c 128,-1,8
 533 172 533 172 546 249 c 2,9,-1
 603 573 l 2,10,11
 606 591 606 591 606 609.5 c 128,-1,12
 606 628 606 628 589 638 c 128,-1,13
 572 648 572 648 521 654 c 1,14,-1
 527 693 l 1,15,-1
 769 693 l 1,16,-1
 766 654 l 1,17,-1
 702 642 l 2,18,19
 684.432432432 638.486486486 684.432432432 638.486486486 680.5 628 c 0,20,21
 679 624 679 624 678 616 c 2,22,-1
 614 257 l 2,23,24
 566 -9 566 -9 328 -9 c 0,25,26
 228 -9 228 -9 177.5 39 c 128,-1,27
 127 87 127 87 127 175 c 0,28,29
 127 210 127 210 134 249 c 2,30,-1
 194 592 l 2,31,32
 197 606 197 606 197 619 c 128,-1,33
 197 632 197 632 183.5 639 c 128,-1,34
 170 646 170 646 129 654 c 1,35,-1
 135 693 l 1,36,-1
 387 693 l 1,37,-1
 384 654 l 1,38,-1
 320 642 l 2,39,40
 303.105263158 638.245614035 303.105263158 638.245614035 298.5 627.5 c 0,41,42
 297 624 297 624 296 616 c 2,43,-1
 234 264 l 2,44,45
 227 220 227 220 227 196 c 0,4,5
EndSplineSet
Position2: "'cpsp' Capital Spacing in Latin lookup 0 subtable" dx=5 dy=0 dh=10 dv=0
EndChar

StartChar: Uogonek
Encoding: 370 370 115
Width: 719
Flags: HMW
HStem: -215 56<237.5 321.5> -6 21G 654 39<129 387 384 384 766 766>
VStem: 127 100<156.5 185> 177 85<-130 -115> 606 161
LayerCount: 2
Fore
SplineSet
262 -116 m 0,0,1
 262 -159 262 -159 314 -159 c 0,2,3
 340 -159 340 -159 370 -149 c 1,4,-1
 379 -169 l 1,5,6
 319 -215 319 -215 260 -215 c 0,7,8
 225 -215 225 -215 201 -193.5 c 128,-1,9
 177 -172 177 -172 177 -137.5 c 128,-1,10
 177 -103 177 -103 205 -66.5 c 128,-1,11
 233 -30 233 -30 282 -6 c 1,12,13
 127 15 127 15 127 175 c 0,14,15
 127 210 127 210 134 249 c 2,16,-1
 194 592 l 2,17,18
 197 606 197 606 197 619 c 128,-1,19
 197 632 197 632 183.5 639 c 128,-1,20
 170 646 170 646 129 654 c 1,21,-1
 135 693 l 1,22,-1
 387 693 l 1,23,-1
 384 654 l 1,24,-1
 320 642 l 2,25,26
 303.105263158 638.245614035 303.105263158 638.245614035 298.5 627.5 c 0,27,28
 297 624 297 624 296 616 c 2,29,-1
 234 264 l 2,30,31
 227 220 227 220 227 196 c 0,32,33
 227 64 227 64 368 64 c 0,34,35
 443 64 443 64 488 118 c 128,-1,36
 533 172 533 172 546 249 c 2,37,-1
 603 573 l 2,38,39
 606 591 606 591 606 609.5 c 128,-1,40
 606 628 606 628 589 638 c 128,-1,41
 572 648 572 648 521 654 c 1,42,-1
 527 693 l 1,43,-1
 769 693 l 1,44,-1
 766 654 l 1,45,-1
 702 642 l 2,46,47
 684.432432432 638.486486486 684.432432432 638.486486486 680.5 628 c 0,48,49
 679 624 679 624 678 616 c 2,50,-1
 614 257 l 1,51,52
 572 28 572 28 388 -4 c 0,53,54
 336 -13 336 -13 299 -44.5 c 128,-1,55
 262 -76 262 -76 262 -116 c 0,0,1
EndSplineSet
Position2: "'cpsp' Capital Spacing in Latin lookup 0 subtable" dx=5 dy=0 dh=10 dv=0
EndChar

StartChar: ogonek.cap
Encoding: 65548 -1 116
Width: 303
Flags: HMW
HStem: -215 56<85.5 169.5> 0 26<273 273>
VStem: 25 85<-130 -101.5>
LayerCount: 2
Fore
SplineSet
110 -116 m 0,0,1
 110 -159 110 -159 162 -159 c 0,2,3
 188 -159 188 -159 218 -149 c 1,4,-1
 227 -169 l 1,5,6
 167 -215 167 -215 108 -215 c 0,7,8
 73 -215 73 -215 49 -193.5 c 128,-1,9
 25 -172 25 -172 25 -138 c 0,10,11
 25 -78 25 -78 96.5 -26 c 128,-1,12
 168 26 168 26 278 26 c 1,13,-1
 273 0 l 1,14,15
 208 -2 208 -2 159 -35.5 c 128,-1,16
 110 -69 110 -69 110 -116 c 0,0,1
EndSplineSet
EndChar

StartChar: Uring
Encoding: 366 366 117
Width: 719
Flags: HMW
HStem: -9 73<314 410> 654 39<129 387 384 384 766 766> 739 43<453.5 482.5 453.5 489.5> 876 43<464 496.5>
VStem: 127 100<156.5 185> 375 49<808.5 836 808.5 847> 525 51<822 849.5> 606 161
LayerCount: 2
Fore
SplineSet
551.5 897.5 m 128,-1,1
 576 876 576 876 576 837 c 128,-1,2
 576 798 576 798 541 768.5 c 128,-1,3
 506 739 506 739 464.5 739 c 128,-1,4
 423 739 423 739 399 760 c 128,-1,5
 375 781 375 781 375 821 c 128,-1,6
 375 861 375 861 409.5 890 c 128,-1,7
 444 919 444 919 485.5 919 c 128,-1,0
 527 919 527 919 551.5 897.5 c 128,-1,1
424 824 m 0,8,9
 424 782 424 782 469 782 c 0,10,11
 491 782 491 782 508 798 c 128,-1,12
 525 814 525 814 525 834.5 c 0,13,14
 525 876 525 876 479 876 c 0,15,16
 455 876 455 876 439.5 860.5 c 128,-1,17
 424 845 424 845 424 824 c 0,8,9
227 196 m 0,18,19
 227 64 227 64 368 64 c 0,20,21
 443 64 443 64 488 118 c 128,-1,22
 533 172 533 172 546 249 c 2,23,-1
 603 573 l 2,24,25
 606 591 606 591 606 609.5 c 128,-1,26
 606 628 606 628 589 638 c 128,-1,27
 572 648 572 648 521 654 c 1,28,-1
 527 693 l 1,29,-1
 769 693 l 1,30,-1
 766 654 l 1,31,-1
 702 642 l 2,32,33
 684.432432432 638.486486486 684.432432432 638.486486486 680.5 628 c 0,34,35
 679 624 679 624 678 616 c 2,36,-1
 614 257 l 2,37,38
 566 -9 566 -9 328 -9 c 0,39,40
 228 -9 228 -9 177.5 39 c 128,-1,41
 127 87 127 87 127 175 c 0,42,43
 127 210 127 210 134 249 c 2,44,-1
 194 592 l 2,45,46
 197 606 197 606 197 619 c 128,-1,47
 197 632 197 632 183.5 639 c 128,-1,48
 170 646 170 646 129 654 c 1,49,-1
 135 693 l 1,50,-1
 387 693 l 1,51,-1
 384 654 l 1,52,-1
 320 642 l 2,53,54
 303.105263158 638.245614035 303.105263158 638.245614035 298.5 627.5 c 0,55,56
 297 624 297 624 296 616 c 2,57,-1
 234 264 l 2,58,59
 227 220 227 220 227 196 c 0,18,19
EndSplineSet
Position2: "'cpsp' Capital Spacing in Latin lookup 0 subtable" dx=5 dy=0 dh=10 dv=0
EndChar

StartChar: Utilde
Encoding: 360 360 118
Width: 719
Flags: HMW
HStem: -9 73<314 410> 654 39<129 387 384 384 766 766> 778 78<553 575> 805 78<391.5 408>
VStem: 127 100<156.5 185> 606 161
LayerCount: 2
Fore
SplineSet
642 891 m 1,0,-1
 665 879 l 1,1,2
 600 778 600 778 554 778 c 0,3,4
 537 778 537 778 473 791.5 c 128,-1,5
 409 805 409 805 378 805 c 128,-1,6
 347 805 347 805 307 771 c 1,7,-1
 287 787 l 1,8,9
 329 840 329 840 356 861.5 c 128,-1,10
 383 883 383 883 406 883 c 128,-1,11
 429 883 429 883 491 869.5 c 128,-1,12
 553 856 553 856 577.5 856 c 128,-1,13
 602 856 602 856 642 891 c 1,0,-1
227 196 m 0,14,15
 227 64 227 64 368 64 c 0,16,17
 443 64 443 64 488 118 c 128,-1,18
 533 172 533 172 546 249 c 2,19,-1
 603 573 l 2,20,21
 606 591 606 591 606 609.5 c 128,-1,22
 606 628 606 628 589 638 c 128,-1,23
 572 648 572 648 521 654 c 1,24,-1
 527 693 l 1,25,-1
 769 693 l 1,26,-1
 766 654 l 1,27,-1
 702 642 l 2,28,29
 684.432432432 638.486486486 684.432432432 638.486486486 680.5 628 c 0,30,31
 679 624 679 624 678 616 c 2,32,-1
 614 257 l 2,33,34
 566 -9 566 -9 328 -9 c 0,35,36
 228 -9 228 -9 177.5 39 c 128,-1,37
 127 87 127 87 127 175 c 0,38,39
 127 210 127 210 134 249 c 2,40,-1
 194 592 l 2,41,42
 197 606 197 606 197 619 c 128,-1,43
 197 632 197 632 183.5 639 c 128,-1,44
 170 646 170 646 129 654 c 1,45,-1
 135 693 l 1,46,-1
 387 693 l 1,47,-1
 384 654 l 1,48,-1
 320 642 l 2,49,50
 303.105263158 638.245614035 303.105263158 638.245614035 298.5 627.5 c 0,51,52
 297 624 297 624 296 616 c 2,53,-1
 234 264 l 2,54,55
 227 220 227 220 227 196 c 0,14,15
EndSplineSet
Position2: "'cpsp' Capital Spacing in Latin lookup 0 subtable" dx=5 dy=0 dh=10 dv=0
EndChar

StartChar: V
Encoding: 86 86 119
Width: 638
Flags: HMW
HStem: -9 133<328 338 328 342 264 338> 653 40<83 327>
VStem: 83 634<653 693>
LayerCount: 2
Fore
SplineSet
342 -9 m 1,0,-1
 264 -9 l 1,1,-1
 143 610 l 2,2,3
 139 631 139 631 129 637.5 c 128,-1,4
 119 644 119 644 83 653 c 1,5,-1
 89 693 l 1,6,-1
 327 693 l 1,7,-1
 324 652 l 1,8,-1
 251 633 l 1,9,10
 243 632 243 632 243 624 c 128,-1,12
 243 616 243 616 244 611 c 2,13,-1
 324 158 l 2,14,15
 328 139 328 139 328 124 c 1,16,-1
 338 124 l 1,17,-1
 547 569 l 2,18,19
 569 616 569 616 569 622 c 0,20,21
 569 632 569 632 553 638.5 c 128,-1,22
 537 645 537 645 501 653 c 1,23,-1
 506 693 l 1,24,-1
 717 693 l 1,25,-1
 714 651 l 1,26,27
 672 643 672 643 659.5 633 c 128,-1,28
 647 623 647 623 633 595 c 2,29,-1
 342 -9 l 1,0,-1
EndSplineSet
Position2: "'cpsp' Capital Spacing in Latin lookup 0 subtable" dx=5 dy=0 dh=10 dv=0
EndChar

StartChar: W
Encoding: 87 87 120
Width: 945
Flags: HMW
HStem: -9 137<308 318 308 320 239 318 627 636> 652 41<316 316 657 657>
VStem: 86 944<653 693> 493 80
LayerCount: 2
Fore
SplineSet
624 162 m 1,0,-1
 627 128 l 1,1,-1
 637 128 l 1,2,-1
 858 569 l 2,3,4
 879 611 879 611 879 620 c 0,5,6
 879 641 879 641 808 653 c 1,7,-1
 813 693 l 1,8,-1
 1030 693 l 1,9,-1
 1027 651 l 1,10,11
 984 643 984 643 970.5 633 c 128,-1,12
 957 623 957 623 942 595 c 2,13,-1
 636 -9 l 1,14,-1
 558 -9 l 1,15,-1
 520 337 l 2,16,17
 518 353 518 353 518 381 c 1,18,-1
 510 381 l 1,19,20
 508 370 508 370 499 355 c 1,21,-1
 320 -9 l 1,22,-1
 239 -9 l 1,23,-1
 145 610 l 2,24,25
 142 631 142 631 132 637.5 c 128,-1,26
 122 644 122 644 86 653 c 1,27,-1
 92 693 l 1,28,-1
 319 693 l 1,29,-1
 316 652 l 1,30,-1
 256 633 l 1,31,32
 248 632 248 632 248 625 c 2,33,-1
 305 162 l 1,34,-1
 308 128 l 1,35,-1
 318 128 l 1,36,-1
 500 492 l 1,37,-1
 487 610 l 1,38,39
 483.75 629.5 483.75 629.5 479.375 633.25 c 128,-1,40
 475 637 475 637 473.5 638.5 c 128,-1,41
 472 640 472 640 466.5 642.5 c 128,-1,42
 461 645 461 645 458.5 645.5 c 128,-1,43
 456 646 456 646 447.5 649 c 128,-1,44
 439 652 439 652 435 653 c 1,45,-1
 441 693 l 1,46,-1
 660 693 l 1,47,-1
 657 652 l 1,48,-1
 582 633 l 2,49,50
 574 632 574 632 574 625 c 2,51,-1
 624 162 l 1,0,-1
EndSplineSet
Position2: "'cpsp' Capital Spacing in Latin lookup 0 subtable" dx=5 dy=0 dh=10 dv=0
EndChar

StartChar: Wacute
Encoding: 7810 7810 121
Width: 945
Flags: HMW
HStem: -9 137<308 318 308 320 239 318 627 636> 652 41<316 316 657 657>
VStem: 86 944<653 693> 493 80
LayerCount: 2
Fore
SplineSet
716 842 m 1,0,-1
 498 749 l 1,1,-1
 474 785 l 1,2,-1
 672 914 l 1,3,-1
 728 863 l 1,4,-1
 716 842 l 1,0,-1
624 162 m 1,5,-1
 627 128 l 1,6,-1
 637 128 l 1,7,-1
 858 569 l 2,8,9
 879 611 879 611 879 620 c 0,10,11
 879 641 879 641 808 653 c 1,12,-1
 813 693 l 1,13,-1
 1030 693 l 1,14,-1
 1027 651 l 1,15,16
 984 643 984 643 970.5 633 c 128,-1,17
 957 623 957 623 942 595 c 2,18,-1
 636 -9 l 1,19,-1
 558 -9 l 1,20,-1
 520 337 l 2,21,22
 518 353 518 353 518 381 c 1,23,-1
 510 381 l 1,24,25
 508 370 508 370 499 355 c 1,26,-1
 320 -9 l 1,27,-1
 239 -9 l 1,28,-1
 145 610 l 2,29,30
 142 631 142 631 132 637.5 c 128,-1,31
 122 644 122 644 86 653 c 1,32,-1
 92 693 l 1,33,-1
 319 693 l 1,34,-1
 316 652 l 1,35,-1
 256 633 l 1,36,37
 248 632 248 632 248 625 c 2,38,-1
 305 162 l 1,39,-1
 308 128 l 1,40,-1
 318 128 l 1,41,-1
 500 492 l 1,42,-1
 487 610 l 1,43,44
 483.75 629.5 483.75 629.5 479.375 633.25 c 128,-1,45
 475 637 475 637 473.5 638.5 c 128,-1,46
 472 640 472 640 466.5 642.5 c 128,-1,47
 461 645 461 645 458.5 645.5 c 128,-1,48
 456 646 456 646 447.5 649 c 128,-1,49
 439 652 439 652 435 653 c 1,50,-1
 441 693 l 1,51,-1
 660 693 l 1,52,-1
 657 652 l 1,53,-1
 582 633 l 2,54,55
 574 632 574 632 574 625 c 2,56,-1
 624 162 l 1,5,-1
EndSplineSet
Position2: "'cpsp' Capital Spacing in Latin lookup 0 subtable" dx=5 dy=0 dh=10 dv=0
EndChar

StartChar: Wcircumflex
Encoding: 372 372 122
Width: 945
Flags: HMW
HStem: -9 137<308 318 308 320 239 318 627 636> 652 41<316 316 657 657>
VStem: 86 944<653 693> 493 80
LayerCount: 2
Fore
SplineSet
726 775 m 1,0,-1
 696 749 l 1,1,-1
 574 840 l 1,2,-1
 418 749 l 1,3,-1
 398 775 l 1,4,-1
 554 914 l 1,5,-1
 610 914 l 1,6,-1
 726 775 l 1,0,-1
624 162 m 1,7,-1
 627 128 l 1,8,-1
 637 128 l 1,9,-1
 858 569 l 2,10,11
 879 611 879 611 879 620 c 0,12,13
 879 641 879 641 808 653 c 1,14,-1
 813 693 l 1,15,-1
 1030 693 l 1,16,-1
 1027 651 l 1,17,18
 984 643 984 643 970.5 633 c 128,-1,19
 957 623 957 623 942 595 c 2,20,-1
 636 -9 l 1,21,-1
 558 -9 l 1,22,-1
 520 337 l 2,23,24
 518 353 518 353 518 381 c 1,25,-1
 510 381 l 1,26,27
 508 370 508 370 499 355 c 1,28,-1
 320 -9 l 1,29,-1
 239 -9 l 1,30,-1
 145 610 l 2,31,32
 142 631 142 631 132 637.5 c 128,-1,33
 122 644 122 644 86 653 c 1,34,-1
 92 693 l 1,35,-1
 319 693 l 1,36,-1
 316 652 l 1,37,-1
 256 633 l 1,38,39
 248 632 248 632 248 625 c 2,40,-1
 305 162 l 1,41,-1
 308 128 l 1,42,-1
 318 128 l 1,43,-1
 500 492 l 1,44,-1
 487 610 l 1,45,46
 483.75 629.5 483.75 629.5 479.375 633.25 c 128,-1,47
 475 637 475 637 473.5 638.5 c 128,-1,48
 472 640 472 640 466.5 642.5 c 128,-1,49
 461 645 461 645 458.5 645.5 c 128,-1,50
 456 646 456 646 447.5 649 c 128,-1,51
 439 652 439 652 435 653 c 1,52,-1
 441 693 l 1,53,-1
 660 693 l 1,54,-1
 657 652 l 1,55,-1
 582 633 l 2,56,57
 574 632 574 632 574 625 c 2,58,-1
 624 162 l 1,7,-1
EndSplineSet
Position2: "'cpsp' Capital Spacing in Latin lookup 0 subtable" dx=5 dy=0 dh=10 dv=0
EndChar

StartChar: Wdieresis
Encoding: 7812 7812 123
Width: 945
Flags: HMW
HStem: -9 137<308 318 308 320 239 318 627 636> 652 41<316 316 657 657> 775 110<456 476 649 669>
VStem: 412 108<823 838> 493 80 605 108<823 838>
LayerCount: 2
Fore
SplineSet
652 775 m 0,0,1
 605 775 605 775 605 821 c 0,2,3
 605 847 605 847 623 866 c 128,-1,4
 641 885 641 885 666 885 c 0,5,6
 713 885 713 885 713 840 c 0,7,8
 713 814 713 814 695 794.5 c 128,-1,9
 677 775 677 775 652 775 c 0,0,1
459 775 m 0,10,11
 412 775 412 775 412 821 c 0,12,13
 412 847 412 847 430 866 c 128,-1,14
 448 885 448 885 473 885 c 0,15,16
 520 885 520 885 520 840 c 0,17,18
 520 814 520 814 502 794.5 c 128,-1,19
 484 775 484 775 459 775 c 0,10,11
624 162 m 1,20,-1
 627 128 l 1,21,-1
 637 128 l 1,22,-1
 858 569 l 2,23,24
 879 611 879 611 879 620 c 0,25,26
 879 641 879 641 808 653 c 1,27,-1
 813 693 l 1,28,-1
 1030 693 l 1,29,-1
 1027 651 l 1,30,31
 984 643 984 643 970.5 633 c 128,-1,32
 957 623 957 623 942 595 c 2,33,-1
 636 -9 l 1,34,-1
 558 -9 l 1,35,-1
 520 337 l 2,36,37
 518 353 518 353 518 381 c 1,38,-1
 510 381 l 1,39,40
 508 370 508 370 499 355 c 1,41,-1
 320 -9 l 1,42,-1
 239 -9 l 1,43,-1
 145 610 l 2,44,45
 142 631 142 631 132 637.5 c 128,-1,46
 122 644 122 644 86 653 c 1,47,-1
 92 693 l 1,48,-1
 319 693 l 1,49,-1
 316 652 l 1,50,-1
 256 633 l 1,51,52
 248 632 248 632 248 625 c 2,53,-1
 305 162 l 1,54,-1
 308 128 l 1,55,-1
 318 128 l 1,56,-1
 500 492 l 1,57,-1
 487 610 l 1,58,59
 483.75 629.5 483.75 629.5 479.375 633.25 c 128,-1,60
 475 637 475 637 473.5 638.5 c 128,-1,61
 472 640 472 640 466.5 642.5 c 128,-1,62
 461 645 461 645 458.5 645.5 c 128,-1,63
 456 646 456 646 447.5 649 c 128,-1,64
 439 652 439 652 435 653 c 1,65,-1
 441 693 l 1,66,-1
 660 693 l 1,67,-1
 657 652 l 1,68,-1
 582 633 l 2,69,70
 574 632 574 632 574 625 c 2,71,-1
 624 162 l 1,20,-1
EndSplineSet
Position2: "'cpsp' Capital Spacing in Latin lookup 0 subtable" dx=5 dy=0 dh=10 dv=0
EndChar

StartChar: Wgrave
Encoding: 7808 7808 124
Width: 945
Flags: HMW
HStem: -9 137<308 318 308 320 239 318 627 636> 652 41<316 316 657 657>
VStem: 86 944<653 693> 493 80
LayerCount: 2
Fore
SplineSet
591 749 m 1,0,-1
 407 842 l 1,1,-1
 403 863 l 1,2,-1
 467 914 l 1,3,-1
 617 785 l 1,4,-1
 591 749 l 1,0,-1
624 162 m 1,5,-1
 627 128 l 1,6,-1
 637 128 l 1,7,-1
 858 569 l 2,8,9
 879 611 879 611 879 620 c 0,10,11
 879 641 879 641 808 653 c 1,12,-1
 813 693 l 1,13,-1
 1030 693 l 1,14,-1
 1027 651 l 1,15,16
 984 643 984 643 970.5 633 c 128,-1,17
 957 623 957 623 942 595 c 2,18,-1
 636 -9 l 1,19,-1
 558 -9 l 1,20,-1
 520 337 l 2,21,22
 518 353 518 353 518 381 c 1,23,-1
 510 381 l 1,24,25
 508 370 508 370 499 355 c 1,26,-1
 320 -9 l 1,27,-1
 239 -9 l 1,28,-1
 145 610 l 2,29,30
 142 631 142 631 132 637.5 c 128,-1,31
 122 644 122 644 86 653 c 1,32,-1
 92 693 l 1,33,-1
 319 693 l 1,34,-1
 316 652 l 1,35,-1
 256 633 l 1,36,37
 248 632 248 632 248 625 c 2,38,-1
 305 162 l 1,39,-1
 308 128 l 1,40,-1
 318 128 l 1,41,-1
 500 492 l 1,42,-1
 487 610 l 1,43,44
 483.75 629.5 483.75 629.5 479.375 633.25 c 128,-1,45
 475 637 475 637 473.5 638.5 c 128,-1,46
 472 640 472 640 466.5 642.5 c 128,-1,47
 461 645 461 645 458.5 645.5 c 128,-1,48
 456 646 456 646 447.5 649 c 128,-1,49
 439 652 439 652 435 653 c 1,50,-1
 441 693 l 1,51,-1
 660 693 l 1,52,-1
 657 652 l 1,53,-1
 582 633 l 2,54,55
 574 632 574 632 574 625 c 2,56,-1
 624 162 l 1,5,-1
EndSplineSet
Position2: "'cpsp' Capital Spacing in Latin lookup 0 subtable" dx=5 dy=0 dh=10 dv=0
EndChar

StartChar: X
Encoding: 88 88 125
Width: 600
Flags: HMW
HStem: 0 40<-38 166 -38 -38> 652 41<325 325>
VStem: -38 717<0 693 40 693>
LayerCount: 2
Fore
SplineSet
582 0 m 1,0,-1
 339 0 l 1,1,-1
 339 40 l 1,2,3
 391.954022989 49.3448275862 391.954022989 49.3448275862 398.477011494 57.1724137931 c 128,-1,4
 405 65 405 65 405 73.5 c 128,-1,5
 405 82 405 82 401 90 c 2,6,-1
 318 256 l 2,7,8
 313 267 313 267 313 286 c 1,9,-1
 303 286 l 1,10,-1
 130 84 l 1,11,12
 118 72 118 72 118 65 c 128,-1,13
 118 58 118 58 127 55 c 2,14,-1
 171 41 l 1,15,-1
 166 0 l 1,16,-1
 -38 0 l 1,17,-1
 -38 40 l 1,18,19
 5 51 5 51 19.5 57 c 128,-1,20
 34 63 34 63 49 81 c 2,21,-1
 272 341 l 1,22,-1
 141 610 l 2,23,24
 131 631 131 631 121.5 638 c 128,-1,25
 112 645 112 645 80 653 c 1,26,-1
 87 693 l 1,27,-1
 328 693 l 1,28,-1
 325 652 l 1,29,-1
 255 634 l 2,30,31
 246 632 246 632 246 626.5 c 128,-1,32
 246 621 246 621 251 611 c 2,33,-1
 335 441 l 2,34,35
 340 430 340 430 340 414 c 1,36,-1
 350 414 l 1,37,-1
 490 576 l 2,38,39
 523 614 523 614 523 624 c 128,-1,40
 523 634 523 634 511 640 c 128,-1,41
 499 646 499 646 467 653 c 1,42,-1
 473 693 l 1,43,-1
 679 693 l 1,44,-1
 676 651 l 1,45,46
 663 648 663 648 654 646 c 128,-1,47
 645 644 645 644 637 640.5 c 128,-1,48
 629 637 629 637 625 635.5 c 0,49,50
 619.4 633.4 619.4 633.4 606.7 620.7 c 128,-1,51
 594 608 594 608 588 599 c 1,52,-1
 380 358 l 1,53,-1
 524 68 l 2,54,55
 532 53 532 53 587 42 c 1,56,-1
 582 0 l 1,0,-1
EndSplineSet
Position2: "'cpsp' Capital Spacing in Latin lookup 0 subtable" dx=5 dy=0 dh=10 dv=0
EndChar

StartChar: Y
Encoding: 89 89 126
Width: 598
Flags: HMW
HStem: 0 39<139 420 139 139> 652 41<332 332>
VStem: 242 94<70.5 101>
LayerCount: 2
Fore
SplineSet
420 0 m 1,0,-1
 139 0 l 1,1,-1
 139 39 l 1,2,3
 204 49 204 49 220 59.5 c 128,-1,4
 236 70 236 70 242 101 c 2,5,-1
 273 279 l 1,6,-1
 152 610 l 2,7,8
 144 632 144 632 134.5 638 c 128,-1,9
 125 644 125 644 90 653 c 1,10,-1
 96 693 l 1,11,-1
 335 693 l 1,12,-1
 332 652 l 1,13,-1
 262 634 l 2,14,15
 254 632 254 632 254 627.5 c 128,-1,17
 254 623 254 623 258 611 c 2,18,-1
 334 390 l 2,19,20
 339 375 339 375 339 361 c 1,21,-1
 349 361 l 1,22,-1
 498 576 l 2,23,24
 527 619 527 619 527 627 c 128,-1,26
 527 635 527 635 515.5 640.5 c 128,-1,27
 504 646 504 646 472 653 c 1,28,-1
 477 693 l 1,29,-1
 687 693 l 1,30,-1
 684 651 l 1,31,32
 639 642 639 642 620 631.5 c 128,-1,33
 601 621 601 621 584 597 c 2,34,-1
 372 287 l 1,35,-1
 338 95 l 2,36,37
 336 85 336 85 336 77 c 0,38,39
 336 52 336 52 359 50 c 1,40,-1
 425 39 l 1,41,-1
 420 0 l 1,0,-1
EndSplineSet
Position2: "'cpsp' Capital Spacing in Latin lookup 0 subtable" dx=5 dy=0 dh=10 dv=0
EndChar

StartChar: Yacute
Encoding: 221 221 127
Width: 598
Flags: HMW
HStem: 0 39<139 420 139 139> 652 41<332 332>
VStem: 242 94<70.5 101>
LayerCount: 2
Fore
SplineSet
574 842 m 1,0,-1
 356 749 l 1,1,-1
 332 785 l 1,2,-1
 530 914 l 1,3,-1
 586 863 l 1,4,-1
 574 842 l 1,0,-1
420 0 m 1,5,-1
 139 0 l 1,6,-1
 139 39 l 1,7,8
 204 49 204 49 220 59.5 c 128,-1,9
 236 70 236 70 242 101 c 2,10,-1
 273 279 l 1,11,-1
 152 610 l 2,12,13
 144 632 144 632 134.5 638 c 128,-1,14
 125 644 125 644 90 653 c 1,15,-1
 96 693 l 1,16,-1
 335 693 l 1,17,-1
 332 652 l 1,18,-1
 262 634 l 2,19,20
 254 632 254 632 254 627.5 c 128,-1,22
 254 623 254 623 258 611 c 2,23,-1
 334 390 l 2,24,25
 339 375 339 375 339 361 c 1,26,-1
 349 361 l 1,27,-1
 498 576 l 2,28,29
 527 619 527 619 527 627 c 128,-1,31
 527 635 527 635 515.5 640.5 c 128,-1,32
 504 646 504 646 472 653 c 1,33,-1
 477 693 l 1,34,-1
 687 693 l 1,35,-1
 684 651 l 1,36,37
 639 642 639 642 620 631.5 c 128,-1,38
 601 621 601 621 584 597 c 2,39,-1
 372 287 l 1,40,-1
 338 95 l 2,41,42
 336 85 336 85 336 77 c 0,43,44
 336 52 336 52 359 50 c 1,45,-1
 425 39 l 1,46,-1
 420 0 l 1,5,-1
EndSplineSet
Position2: "'cpsp' Capital Spacing in Latin lookup 0 subtable" dx=5 dy=0 dh=10 dv=0
EndChar

StartChar: Ycircumflex
Encoding: 374 374 128
Width: 598
Flags: HMW
HStem: 0 39<139 420 139 139> 652 41<332 332>
VStem: 242 94<70.5 101>
LayerCount: 2
Fore
SplineSet
584 775 m 1,0,-1
 554 749 l 1,1,-1
 432 840 l 1,2,-1
 276 749 l 1,3,-1
 256 775 l 1,4,-1
 412 914 l 1,5,-1
 468 914 l 1,6,-1
 584 775 l 1,0,-1
420 0 m 1,7,-1
 139 0 l 1,8,-1
 139 39 l 1,9,10
 204 49 204 49 220 59.5 c 128,-1,11
 236 70 236 70 242 101 c 2,12,-1
 273 279 l 1,13,-1
 152 610 l 2,14,15
 144 632 144 632 134.5 638 c 128,-1,16
 125 644 125 644 90 653 c 1,17,-1
 96 693 l 1,18,-1
 335 693 l 1,19,-1
 332 652 l 1,20,-1
 262 634 l 2,21,22
 254 632 254 632 254 627.5 c 0,23,24
 254 623 254 623 258 611 c 2,25,-1
 334 390 l 2,26,27
 339 375 339 375 339 361 c 1,28,-1
 349 361 l 1,29,-1
 498 576 l 2,30,31
 527 619 527 619 527 627 c 0,32,33
 527 635 527 635 515.5 640.5 c 128,-1,34
 504 646 504 646 472 653 c 1,35,-1
 477 693 l 1,36,-1
 687 693 l 1,37,-1
 684 651 l 1,38,39
 639 642 639 642 620 631.5 c 128,-1,40
 601 621 601 621 584 597 c 2,41,-1
 372 287 l 1,42,-1
 338 95 l 2,43,44
 336 85 336 85 336 77 c 0,45,46
 336 52 336 52 359 50 c 1,47,-1
 425 39 l 1,48,-1
 420 0 l 1,7,-1
EndSplineSet
Position2: "'cpsp' Capital Spacing in Latin lookup 0 subtable" dx=5 dy=0 dh=10 dv=0
EndChar

StartChar: Ydieresis
Encoding: 376 376 129
Width: 598
Flags: HMW
HStem: 0 39<139 420 139 139> 652 41<332 332> 775 110<314 334 507 527>
VStem: 242 94<70.5 101> 270 108<823 838> 463 108<823 838>
LayerCount: 2
Fore
SplineSet
510 775 m 0,0,1
 463 775 463 775 463 821 c 0,2,3
 463 847 463 847 481 866 c 128,-1,4
 499 885 499 885 524 885 c 0,5,6
 571 885 571 885 571 840 c 0,7,8
 571 814 571 814 553 794.5 c 128,-1,9
 535 775 535 775 510 775 c 0,0,1
317 775 m 0,10,11
 270 775 270 775 270 821 c 0,12,13
 270 847 270 847 288 866 c 128,-1,14
 306 885 306 885 331 885 c 0,15,16
 378 885 378 885 378 840 c 0,17,18
 378 814 378 814 360 794.5 c 128,-1,19
 342 775 342 775 317 775 c 0,10,11
420 0 m 1,20,-1
 139 0 l 1,21,-1
 139 39 l 1,22,23
 204 49 204 49 220 59.5 c 128,-1,24
 236 70 236 70 242 101 c 2,25,-1
 273 279 l 1,26,-1
 152 610 l 2,27,28
 144 632 144 632 134.5 638 c 128,-1,29
 125 644 125 644 90 653 c 1,30,-1
 96 693 l 1,31,-1
 335 693 l 1,32,-1
 332 652 l 1,33,-1
 262 634 l 2,34,35
 254 632 254 632 254 627.5 c 0,36,37
 254 623 254 623 258 611 c 2,38,-1
 334 390 l 2,39,40
 339 375 339 375 339 361 c 1,41,-1
 349 361 l 1,42,-1
 498 576 l 2,43,44
 527 619 527 619 527 627 c 0,45,46
 527 635 527 635 515.5 640.5 c 128,-1,47
 504 646 504 646 472 653 c 1,48,-1
 477 693 l 1,49,-1
 687 693 l 1,50,-1
 684 651 l 1,51,52
 639 642 639 642 620 631.5 c 128,-1,53
 601 621 601 621 584 597 c 2,54,-1
 372 287 l 1,55,-1
 338 95 l 2,56,57
 336 85 336 85 336 77 c 0,58,59
 336 52 336 52 359 50 c 1,60,-1
 425 39 l 1,61,-1
 420 0 l 1,20,-1
EndSplineSet
Position2: "'cpsp' Capital Spacing in Latin lookup 0 subtable" dx=5 dy=0 dh=10 dv=0
EndChar

StartChar: Ygrave
Encoding: 7922 7922 130
Width: 598
Flags: HMW
HStem: 0 39<139 420 139 139> 652 41<332 332>
VStem: 242 94<70.5 101>
LayerCount: 2
Fore
SplineSet
449 749 m 1,0,-1
 265 842 l 1,1,-1
 261 863 l 1,2,-1
 325 914 l 1,3,-1
 475 785 l 1,4,-1
 449 749 l 1,0,-1
420 0 m 1,5,-1
 139 0 l 1,6,-1
 139 39 l 1,7,8
 204 49 204 49 220 59.5 c 128,-1,9
 236 70 236 70 242 101 c 2,10,-1
 273 279 l 1,11,-1
 152 610 l 2,12,13
 144 632 144 632 134.5 638 c 128,-1,14
 125 644 125 644 90 653 c 1,15,-1
 96 693 l 1,16,-1
 335 693 l 1,17,-1
 332 652 l 1,18,-1
 262 634 l 2,19,20
 254 632 254 632 254 627.5 c 0,21,22
 254 623 254 623 258 611 c 2,23,-1
 334 390 l 2,24,25
 339 375 339 375 339 361 c 1,26,-1
 349 361 l 1,27,-1
 498 576 l 2,28,29
 527 619 527 619 527 627 c 0,30,31
 527 635 527 635 515.5 640.5 c 128,-1,32
 504 646 504 646 472 653 c 1,33,-1
 477 693 l 1,34,-1
 687 693 l 1,35,-1
 684 651 l 1,36,37
 639 642 639 642 620 631.5 c 128,-1,38
 601 621 601 621 584 597 c 2,39,-1
 372 287 l 1,40,-1
 338 95 l 2,41,42
 336 85 336 85 336 77 c 0,43,44
 336 52 336 52 359 50 c 1,45,-1
 425 39 l 1,46,-1
 420 0 l 1,5,-1
EndSplineSet
Position2: "'cpsp' Capital Spacing in Latin lookup 0 subtable" dx=5 dy=0 dh=10 dv=0
EndChar

StartChar: Z
Encoding: 90 90 131
Width: 609
Flags: HMW
HStem: 0 52<158 305 305 368.5> 497 20G<110 110> 642 51<391.5 412 412 505>
VStem: 11 642
LayerCount: 2
Fore
SplineSet
528 0 m 1,0,-1
 11 0 l 1,1,-1
 15 26 l 1,2,-1
 480 612 l 2,3,4
 497 632 497 632 506 635 c 1,5,-1
 505 642 l 1,6,-1
 412 642 l 2,7,8
 274 642 274 642 232 636 c 1,9,10
 217 635 217 635 172 510 c 1,11,-1
 110 517 l 1,12,13
 118 613 118 613 144 693 c 1,14,-1
 653 693 l 1,15,-1
 649 667 l 1,16,-1
 182 81 l 2,17,18
 168 63 168 63 157 58 c 1,19,-1
 158 52 l 1,20,-1
 305 52 l 2,21,22
 412 52 412 52 436 59 c 0,23,24
 453 64 453 64 515 213 c 1,25,-1
 569 208 l 1,26,27
 563 126 563 126 528 0 c 1,0,-1
EndSplineSet
Position2: "'cpsp' Capital Spacing in Latin lookup 0 subtable" dx=5 dy=0 dh=10 dv=0
EndChar

StartChar: Zacute
Encoding: 377 377 132
Width: 609
Flags: HMW
HStem: 0 52<158 305 305 368.5> 497 20G<110 110> 642 51<391.5 412 412 505>
VStem: 11 642
LayerCount: 2
Fore
SplineSet
576 842 m 1,0,-1
 358 749 l 1,1,-1
 334 785 l 1,2,-1
 532 914 l 1,3,-1
 588 863 l 1,4,-1
 576 842 l 1,0,-1
528 0 m 1,5,-1
 11 0 l 1,6,-1
 15 26 l 1,7,-1
 480 612 l 2,8,9
 497 632 497 632 506 635 c 1,10,-1
 505 642 l 1,11,-1
 412 642 l 2,12,13
 274 642 274 642 232 636 c 1,14,15
 217 635 217 635 172 510 c 1,16,-1
 110 517 l 1,17,18
 118 613 118 613 144 693 c 1,19,-1
 653 693 l 1,20,-1
 649 667 l 1,21,-1
 182 81 l 2,22,23
 168 63 168 63 157 58 c 1,24,-1
 158 52 l 1,25,-1
 305 52 l 2,26,27
 412 52 412 52 436 59 c 0,28,29
 453 64 453 64 515 213 c 1,30,-1
 569 208 l 1,31,32
 563 126 563 126 528 0 c 1,5,-1
EndSplineSet
Position2: "'cpsp' Capital Spacing in Latin lookup 0 subtable" dx=5 dy=0 dh=10 dv=0
EndChar

StartChar: Zcaron
Encoding: 381 381 133
Width: 609
Flags: HMW
HStem: 0 52<158 305 305 368.5> 497 20G<110 110> 642 51<391.5 412 412 505>
VStem: 11 642
LayerCount: 2
Fore
SplineSet
587 891 m 1,0,-1
 430 752 l 1,1,-1
 374 752 l 1,2,-1
 259 891 l 1,3,-1
 289 917 l 1,4,-1
 411 826 l 1,5,-1
 567 917 l 1,6,-1
 587 891 l 1,0,-1
528 0 m 1,7,-1
 11 0 l 1,8,-1
 15 26 l 1,9,-1
 480 612 l 2,10,11
 497 632 497 632 506 635 c 1,12,-1
 505 642 l 1,13,-1
 412 642 l 2,14,15
 274 642 274 642 232 636 c 1,16,17
 217 635 217 635 172 510 c 1,18,-1
 110 517 l 1,19,20
 118 613 118 613 144 693 c 1,21,-1
 653 693 l 1,22,-1
 649 667 l 1,23,-1
 182 81 l 2,24,25
 168 63 168 63 157 58 c 1,26,-1
 158 52 l 1,27,-1
 305 52 l 2,28,29
 412 52 412 52 436 59 c 0,30,31
 453 64 453 64 515 213 c 1,32,-1
 569 208 l 1,33,34
 563 126 563 126 528 0 c 1,7,-1
EndSplineSet
Position2: "'cpsp' Capital Spacing in Latin lookup 0 subtable" dx=5 dy=0 dh=10 dv=0
EndChar

StartChar: Zdotaccent
Encoding: 379 379 134
Width: 609
Flags: HMW
HStem: 0 52<158 305 305 368.5> 497 20G<110 110> 642 51<391.5 412 412 505> 783 111<415.5 447 414 448.5>
VStem: 377 112<824 853.5>
LayerCount: 2
Fore
SplineSet
473 880.5 m 128,-1,1
 489 867 489 867 489 841.5 c 128,-1,2
 489 816 489 816 473 799.5 c 128,-1,3
 457 783 457 783 431 783 c 0,4,5
 377 783 377 783 377 839 c 0,6,7
 377 862 377 862 391.5 878 c 128,-1,8
 406 894 406 894 431.5 894 c 128,-1,0
 457 894 457 894 473 880.5 c 128,-1,1
528 0 m 1,9,-1
 11 0 l 1,10,-1
 15 26 l 1,11,-1
 480 612 l 2,12,13
 497 632 497 632 506 635 c 1,14,-1
 505 642 l 1,15,-1
 412 642 l 2,16,17
 274 642 274 642 232 636 c 1,18,19
 217 635 217 635 172 510 c 1,20,-1
 110 517 l 1,21,22
 118 613 118 613 144 693 c 1,23,-1
 653 693 l 1,24,-1
 649 667 l 1,25,-1
 182 81 l 2,26,27
 168 63 168 63 157 58 c 1,28,-1
 158 52 l 1,29,-1
 305 52 l 2,30,31
 412 52 412 52 436 59 c 0,32,33
 453 64 453 64 515 213 c 1,34,-1
 569 208 l 1,35,36
 563 126 563 126 528 0 c 1,9,-1
EndSplineSet
Position2: "'cpsp' Capital Spacing in Latin lookup 0 subtable" dx=5 dy=0 dh=10 dv=0
EndChar

StartChar: a
Encoding: 97 97 135
Width: 508
Flags: HMW
HStem: -9 67<153 183.5> 432 56<264 296> 455 20G<483 483>
VStem: 33 90<125.5 202 125.5 235.5> 326 77<27 76>
LayerCount: 2
Fore
SplineSet
479 74 m 1,0,-1
 496 47 l 1,1,2
 418 -9 418 -9 370 -9 c 0,3,4
 326 -9 326 -9 326 41 c 0,5,6
 326 62 326 62 343 139 c 2,7,-1
 353 185 l 1,8,-1
 345 187 l 1,9,10
 257 -9 257 -9 137 -9 c 0,11,12
 85 -9 85 -9 59 30 c 128,-1,13
 33 69 33 69 33 130 c 0,14,15
 33 286 33 286 112.5 387 c 128,-1,16
 192 488 192 488 307 488 c 0,17,18
 348 488 348 488 402 467 c 1,19,20
 431 474 431 474 467 488 c 1,21,-1
 483 475 l 1,22,23
 465 423 465 423 449 336 c 2,24,-1
 407 104 l 2,25,26
 403 84 403 84 403 67 c 128,-1,28
 403 50 403 50 416 50 c 0,29,30
 431 50 431 50 479 74 c 1,0,-1
374 403 m 1,31,32
 326 432 326 432 276 432 c 128,-1,34
 226 432 226 432 210 416 c 1,35,36
 176 385 176 385 149.5 304.5 c 128,-1,37
 123 224 123 224 123 161 c 0,38,39
 123 58 123 58 169 58 c 0,40,41
 228 58 228 58 295 176 c 128,-1,42
 362 294 362 294 374 403 c 1,31,32
EndSplineSet
Substitution2: "'ordn' Ordinals in Latin lookup 16 subtable" ordfeminine
Substitution2: "'aalt' Access All Alternates in Latin lookup 0 subtable" ordfeminine
EndChar

StartChar: aacute
Encoding: 225 225 136
Width: 508
Flags: HMW
HStem: -9 67<153 183.5> 432 56<264 296> 455 20G<483 483>
VStem: 33 90<125.5 202 125.5 235.5> 326 77<27 76>
LayerCount: 2
Fore
SplineSet
487 712 m 1,0,-1
 307 561 l 1,1,-1
 273 586 l 1,2,-1
 413 765 l 1,3,-1
 491 735 l 1,4,-1
 487 712 l 1,0,-1
479 74 m 1,5,-1
 496 47 l 1,6,7
 418 -9 418 -9 370 -9 c 0,8,9
 326 -9 326 -9 326 41 c 0,10,11
 326 62 326 62 343 139 c 2,12,-1
 353 185 l 1,13,-1
 345 187 l 1,14,15
 257 -9 257 -9 137 -9 c 0,16,17
 85 -9 85 -9 59 30 c 128,-1,18
 33 69 33 69 33 130 c 0,19,20
 33 286 33 286 112.5 387 c 128,-1,21
 192 488 192 488 307 488 c 0,22,23
 348 488 348 488 402 467 c 1,24,25
 431 474 431 474 467 488 c 1,26,-1
 483 475 l 1,27,28
 465 423 465 423 449 336 c 2,29,-1
 407 104 l 2,30,31
 403 84 403 84 403 67 c 128,-1,33
 403 50 403 50 416 50 c 0,34,35
 431 50 431 50 479 74 c 1,5,-1
374 403 m 1,36,37
 326 432 326 432 276 432 c 128,-1,39
 226 432 226 432 210 416 c 1,40,41
 176 385 176 385 149.5 304.5 c 128,-1,42
 123 224 123 224 123 161 c 0,43,44
 123 58 123 58 169 58 c 0,45,46
 228 58 228 58 295 176 c 128,-1,47
 362 294 362 294 374 403 c 1,36,37
EndSplineSet
EndChar

StartChar: acute
Encoding: 180 180 137
Width: 191
Flags: HMW
HStem: 561 204<98 204>
VStem: 64 218<586 735>
LayerCount: 2
Fore
SplineSet
278 712 m 1,0,-1
 98 561 l 1,1,-1
 64 586 l 1,2,-1
 204 765 l 1,3,-1
 282 735 l 1,4,-1
 278 712 l 1,0,-1
EndSplineSet
EndChar

StartChar: abreve
Encoding: 259 259 138
Width: 508
Flags: HMW
HStem: -9 67<153 183.5> 432 56<264 296> 455 20G<483 483> 567 68<290.5 355.5 290.5 360>
VStem: 33 90<125.5 202 125.5 235.5> 326 77<27 76>
LayerCount: 2
Fore
SplineSet
450 720 m 1,0,-1
 487 720 l 1,1,2
 471 653 471 653 426 610 c 128,-1,3
 381 567 381 567 314 567 c 128,-1,5
 247 567 247 567 217 601 c 128,-1,6
 187 635 187 635 187 691 c 0,7,8
 187 700 187 700 189 720 c 1,9,-1
 226 720 l 1,10,11
 228 635 228 635 323 635 c 128,-1,12
 418 635 418 635 450 720 c 1,0,-1
479 74 m 1,13,-1
 496 47 l 1,14,15
 418 -9 418 -9 370 -9 c 0,16,17
 326 -9 326 -9 326 41 c 0,18,19
 326 62 326 62 343 139 c 2,20,-1
 353 185 l 1,21,-1
 345 187 l 1,22,23
 257 -9 257 -9 137 -9 c 0,24,25
 85 -9 85 -9 59 30 c 128,-1,26
 33 69 33 69 33 130 c 0,27,28
 33 286 33 286 112.5 387 c 128,-1,29
 192 488 192 488 307 488 c 0,30,31
 348 488 348 488 402 467 c 1,32,33
 431 474 431 474 467 488 c 1,34,-1
 483 475 l 1,35,36
 465 423 465 423 449 336 c 2,37,-1
 407 104 l 2,38,39
 403 84 403 84 403 67 c 128,-1,41
 403 50 403 50 416 50 c 0,42,43
 431 50 431 50 479 74 c 1,13,-1
374 403 m 1,44,45
 326 432 326 432 276 432 c 128,-1,47
 226 432 226 432 210 416 c 1,48,49
 176 385 176 385 149.5 304.5 c 128,-1,50
 123 224 123 224 123 161 c 0,51,52
 123 58 123 58 169 58 c 0,53,54
 228 58 228 58 295 176 c 128,-1,55
 362 294 362 294 374 403 c 1,44,45
EndSplineSet
EndChar

StartChar: breve
Encoding: 728 728 139
Width: 298
Flags: HMW
HStem: 567 68<190.5 255.5 190.5 260>
VStem: 87 300<656 720>
LayerCount: 2
Fore
SplineSet
350 720 m 1,0,-1
 387 720 l 1,1,2
 371 653 371 653 326 610 c 128,-1,3
 281 567 281 567 214 567 c 0,4,5
 147 567 147 567 117 601 c 128,-1,6
 87 635 87 635 87 691 c 0,7,8
 87 700 87 700 89 720 c 1,9,-1
 126 720 l 1,10,11
 128 635 128 635 223 635 c 128,-1,12
 318 635 318 635 350 720 c 1,0,-1
EndSplineSet
EndChar

StartChar: acircumflex
Encoding: 226 226 140
Width: 508
Flags: HMW
HStem: -9 67<153 183.5> 432 56<264 296> 455 20G<483 483>
VStem: 33 90<125.5 202 125.5 235.5> 326 77<27 76>
LayerCount: 2
Fore
SplineSet
460 586 m 1,0,-1
 420 561 l 1,1,-1
 327 679 l 1,2,-1
 191 561 l 1,3,-1
 161 586 l 1,4,-1
 305 755 l 1,5,-1
 368 755 l 1,6,-1
 460 586 l 1,0,-1
479 74 m 1,7,-1
 496 47 l 1,8,9
 418 -9 418 -9 370 -9 c 0,10,11
 326 -9 326 -9 326 41 c 0,12,13
 326 62 326 62 343 139 c 2,14,-1
 353 185 l 1,15,-1
 345 187 l 1,16,17
 257 -9 257 -9 137 -9 c 0,18,19
 85 -9 85 -9 59 30 c 128,-1,20
 33 69 33 69 33 130 c 0,21,22
 33 286 33 286 112.5 387 c 128,-1,23
 192 488 192 488 307 488 c 0,24,25
 348 488 348 488 402 467 c 1,26,27
 431 474 431 474 467 488 c 1,28,-1
 483 475 l 1,29,30
 465 423 465 423 449 336 c 2,31,-1
 407 104 l 2,32,33
 403 84 403 84 403 67 c 128,-1,35
 403 50 403 50 416 50 c 0,36,37
 431 50 431 50 479 74 c 1,7,-1
374 403 m 1,38,39
 326 432 326 432 276 432 c 128,-1,41
 226 432 226 432 210 416 c 1,42,43
 176 385 176 385 149.5 304.5 c 128,-1,44
 123 224 123 224 123 161 c 0,45,46
 123 58 123 58 169 58 c 0,47,48
 228 58 228 58 295 176 c 128,-1,49
 362 294 362 294 374 403 c 1,38,39
EndSplineSet
EndChar

StartChar: circumflex
Encoding: 710 710 141
Width: 299
Flags: HMW
HStem: 561 194<94 271 208 323>
VStem: 64 299<586 586>
LayerCount: 2
Fore
SplineSet
363 586 m 1,0,-1
 323 561 l 1,1,-1
 230 679 l 1,2,-1
 94 561 l 1,3,-1
 64 586 l 1,4,-1
 208 755 l 1,5,-1
 271 755 l 1,6,-1
 363 586 l 1,0,-1
EndSplineSet
EndChar

StartChar: adieresis
Encoding: 228 228 142
Width: 508
Flags: HMW
HStem: -9 67<153 183.5> 432 56<264 296> 455 20G<483 483> 600 110<229 248 422 441>
VStem: 33 90<125.5 202 125.5 235.5> 185 108<648 663> 326 77<27 76> 378 108<648 663>
LayerCount: 2
Fore
SplineSet
424 600 m 0,0,1
 378 600 378 600 378 646 c 0,2,3
 378 672 378 672 396 691 c 128,-1,4
 414 710 414 710 439 710 c 0,5,6
 486 710 486 710 486 665 c 0,7,8
 486 639 486 639 467.5 619.5 c 128,-1,9
 449 600 449 600 424 600 c 0,0,1
231 600 m 0,10,11
 185 600 185 600 185 646 c 0,12,13
 185 672 185 672 203 691 c 128,-1,14
 221 710 221 710 246 710 c 0,15,16
 293 710 293 710 293 665 c 0,17,18
 293 639 293 639 274.5 619.5 c 128,-1,19
 256 600 256 600 231 600 c 0,10,11
479 74 m 1,20,-1
 496 47 l 1,21,22
 418 -9 418 -9 370 -9 c 0,23,24
 326 -9 326 -9 326 41 c 0,25,26
 326 62 326 62 343 139 c 2,27,-1
 353 185 l 1,28,-1
 345 187 l 1,29,30
 257 -9 257 -9 137 -9 c 0,31,32
 85 -9 85 -9 59 30 c 128,-1,33
 33 69 33 69 33 130 c 0,34,35
 33 286 33 286 112.5 387 c 128,-1,36
 192 488 192 488 307 488 c 0,37,38
 348 488 348 488 402 467 c 1,39,40
 431 474 431 474 467 488 c 1,41,-1
 483 475 l 1,42,43
 465 423 465 423 449 336 c 2,44,-1
 407 104 l 2,45,46
 403 84 403 84 403 67 c 128,-1,48
 403 50 403 50 416 50 c 0,49,50
 431 50 431 50 479 74 c 1,20,-1
374 403 m 1,51,52
 326 432 326 432 276 432 c 128,-1,54
 226 432 226 432 210 416 c 1,55,56
 176 385 176 385 149.5 304.5 c 128,-1,57
 123 224 123 224 123 161 c 0,58,59
 123 58 123 58 169 58 c 0,60,61
 228 58 228 58 295 176 c 128,-1,62
 362 294 362 294 374 403 c 1,51,52
EndSplineSet
EndChar

StartChar: dieresis
Encoding: 168 168 143
Width: 300
Flags: HMW
HStem: 600 110<120 139 313 332>
VStem: 76 108<648 663> 269 108<648 663>
LayerCount: 2
Fore
SplineSet
315 600 m 0,0,1
 269 600 269 600 269 646 c 0,2,3
 269 672 269 672 287 691 c 128,-1,4
 305 710 305 710 330 710 c 0,5,6
 377 710 377 710 377 665 c 0,7,8
 377 639 377 639 358.5 619.5 c 128,-1,9
 340 600 340 600 315 600 c 0,0,1
122 600 m 0,10,11
 76 600 76 600 76 646 c 0,12,13
 76 672 76 672 94 691 c 128,-1,14
 112 710 112 710 137 710 c 0,15,16
 184 710 184 710 184 665 c 0,17,18
 184 639 184 639 165.5 619.5 c 128,-1,19
 147 600 147 600 122 600 c 0,10,11
EndSplineSet
EndChar

StartChar: ae
Encoding: 230 230 144
Width: 701
Flags: HMW
HStem: -9 67<151.5 177.5> -9 73<476 510> 432 56<256.5 287 561 572.5> 455 20G<453 453>
VStem: 33 90<125.5 202 125.5 235.5> 339 76<161 185 185 185> 603 88<356.5 395>
LayerCount: 2
Fore
SplineSet
639 117 m 1,0,-1
 663 91 l 1,1,2
 625 50 625 50 574 20.5 c 128,-1,3
 523 -9 523 -9 471.5 -9 c 128,-1,4
 420 -9 420 -9 379.5 33.5 c 128,-1,5
 339 76 339 76 339 161 c 2,6,-1
 339 185 l 1,7,-1
 332 187 l 1,8,9
 247 -9 247 -9 133 -9 c 0,10,11
 83 -9 83 -9 58 30 c 128,-1,12
 33 69 33 69 33 130 c 0,13,14
 33 286 33 286 109.5 387 c 128,-1,15
 186 488 186 488 297 488 c 0,16,17
 337 488 337 488 389 467 c 1,18,19
 409 477 409 477 437 488 c 1,20,-1
 453 475 l 1,21,-1
 430 422 l 1,22,-1
 434 420 l 1,23,24
 504 488 504 488 590 488 c 0,25,26
 635 488 635 488 663 466.5 c 128,-1,27
 691 445 691 445 691 402.5 c 0,28,29
 691 320.666666667 691 320.666666667 600 273 c 0,30,31
 520.167938931 231.183206107 520.167938931 231.183206107 417 215 c 1,32,33
 415 203 415 203 415 181 c 0,34,35
 415 117 415 117 437 90.5 c 128,-1,36
 459 64 459 64 511 64 c 128,-1,37
 563 64 563 64 639 117 c 1,0,-1
422 258 m 1,38,39
 507 278 507 278 555 310.5 c 128,-1,40
 603 343 603 343 603 384 c 0,41,42
 603 404 603 404 591.5 418 c 128,-1,43
 580 432 580 432 549 432 c 128,-1,44
 518 432 518 432 493 411 c 1,45,46
 473 392 473 392 452 347.5 c 128,-1,47
 431 303 431 303 422 258 c 1,38,39
361 403 m 1,48,49
 315 432 315 432 268 432 c 128,-1,50
 221 432 221 432 205 416 c 0,51,52
 173 384 173 384 148 304 c 128,-1,53
 123 224 123 224 123 161 c 0,54,55
 123 58 123 58 167 58 c 0,56,57
 204 58 204 58 247.5 115 c 128,-1,58
 291 172 291 172 322.5 253 c 128,-1,59
 354 334 354 334 361 403 c 1,48,49
EndSplineSet
EndChar

StartChar: agrave
Encoding: 224 224 145
Width: 508
Flags: HMW
HStem: -9 67<153 183.5> 432 56<264 296> 455 20G<483 483>
VStem: 33 90<125.5 202 125.5 235.5> 326 77<27 76>
LayerCount: 2
Fore
SplineSet
363 586 m 1,0,-1
 328 561 l 1,1,-1
 204 712 l 1,2,-1
 208 735 l 1,3,-1
 289 765 l 1,4,-1
 363 586 l 1,0,-1
479 74 m 1,5,-1
 496 47 l 1,6,7
 418 -9 418 -9 370 -9 c 0,8,9
 326 -9 326 -9 326 41 c 0,10,11
 326 62 326 62 343 139 c 2,12,-1
 353 185 l 1,13,-1
 345 187 l 1,14,15
 257 -9 257 -9 137 -9 c 0,16,17
 85 -9 85 -9 59 30 c 128,-1,18
 33 69 33 69 33 130 c 0,19,20
 33 286 33 286 112.5 387 c 128,-1,21
 192 488 192 488 307 488 c 0,22,23
 348 488 348 488 402 467 c 1,24,25
 431 474 431 474 467 488 c 1,26,-1
 483 475 l 1,27,28
 465 423 465 423 449 336 c 2,29,-1
 407 104 l 2,30,31
 403 84 403 84 403 67 c 128,-1,33
 403 50 403 50 416 50 c 0,34,35
 431 50 431 50 479 74 c 1,5,-1
374 403 m 1,36,37
 326 432 326 432 276 432 c 128,-1,39
 226 432 226 432 210 416 c 1,40,41
 176 385 176 385 149.5 304.5 c 128,-1,42
 123 224 123 224 123 161 c 0,43,44
 123 58 123 58 169 58 c 0,45,46
 228 58 228 58 295 176 c 128,-1,47
 362 294 362 294 374 403 c 1,36,37
EndSplineSet
EndChar

StartChar: grave
Encoding: 96 96 146
Width: 182
Flags: HMW
HStem: 561 204<172 211>
VStem: 87 159<586 712>
LayerCount: 2
Fore
SplineSet
246 586 m 1,0,-1
 211 561 l 1,1,-1
 87 712 l 1,2,-1
 91 735 l 1,3,-1
 172 765 l 1,4,-1
 246 586 l 1,0,-1
EndSplineSet
EndChar

StartChar: amacron
Encoding: 257 257 147
Width: 508
Flags: HMW
HStem: -9 67<153 183.5> 432 56<264 296> 455 20G<483 483> 642 60<216 454 205 465>
VStem: 33 90<125.5 202 125.5 235.5> 326 77<27 76>
LayerCount: 2
Fore
SplineSet
454 642 m 1,0,-1
 205 642 l 1,1,-1
 216 702 l 1,2,-1
 465 702 l 1,3,-1
 454 642 l 1,0,-1
479 74 m 1,4,-1
 496 47 l 1,5,6
 418 -9 418 -9 370 -9 c 0,7,8
 326 -9 326 -9 326 41 c 0,9,10
 326 62 326 62 343 139 c 2,11,-1
 353 185 l 1,12,-1
 345 187 l 1,13,14
 257 -9 257 -9 137 -9 c 0,15,16
 85 -9 85 -9 59 30 c 128,-1,17
 33 69 33 69 33 130 c 0,18,19
 33 286 33 286 112.5 387 c 128,-1,20
 192 488 192 488 307 488 c 0,21,22
 348 488 348 488 402 467 c 1,23,24
 431 474 431 474 467 488 c 1,25,-1
 483 475 l 1,26,27
 465 423 465 423 449 336 c 2,28,-1
 407 104 l 2,29,30
 403 84 403 84 403 67 c 128,-1,32
 403 50 403 50 416 50 c 0,33,34
 431 50 431 50 479 74 c 1,4,-1
374 403 m 1,35,36
 326 432 326 432 276 432 c 128,-1,38
 226 432 226 432 210 416 c 1,39,40
 176 385 176 385 149.5 304.5 c 128,-1,41
 123 224 123 224 123 161 c 0,42,43
 123 58 123 58 169 58 c 0,44,45
 228 58 228 58 295 176 c 128,-1,46
 362 294 362 294 374 403 c 1,35,36
EndSplineSet
EndChar

StartChar: macron
Encoding: 175 175 148
Width: 249
Flags: HMW
HStem: 642 60<85 323 74 334>
VStem: 74 260<642 702>
LayerCount: 2
Fore
SplineSet
323 642 m 1,0,-1
 74 642 l 1,1,-1
 85 702 l 1,2,-1
 334 702 l 1,3,-1
 323 642 l 1,0,-1
EndSplineSet
EndChar

StartChar: aogonek
Encoding: 261 261 149
Width: 508
Flags: HMW
HStem: -215 56<329 409.5> -9 67<153 183.5> -6 21G 432 56<264 296> 455 20G<483 483>
VStem: 33 90<125.5 202 125.5 235.5> 270 84<-127.5 -109.5> 326 77<30 76>
LayerCount: 2
Fore
SplineSet
354 -112.742857143 m 128,-1,1
 354 -159 354 -159 405.5 -159 c 0,2,3
 432 -159 432 -159 461 -149 c 1,4,-1
 470 -169 l 1,5,6
 410 -215 410 -215 351 -215 c 0,7,8
 317 -215 317 -215 293.5 -192.5 c 128,-1,9
 270 -170 270 -170 270 -132 c 0,10,11
 270 -66 270 -66 351 -6 c 1,12,13
 326 3 326 3 326 41 c 0,14,15
 326 62 326 62 343 139 c 2,16,-1
 353 185 l 1,17,-1
 345 187 l 1,18,19
 257 -9 257 -9 137 -9 c 0,20,21
 85 -9 85 -9 59 30 c 128,-1,22
 33 69 33 69 33 130 c 0,23,24
 33 286 33 286 112.5 387 c 128,-1,25
 192 488 192 488 307 488 c 0,26,27
 348 488 348 488 402 467 c 1,28,29
 431 474 431 474 467 488 c 1,30,-1
 483 475 l 1,31,32
 465 423 465 423 449 336 c 2,33,-1
 407 104 l 2,34,35
 403 84 403 84 403 67 c 128,-1,36
 403 50 403 50 416 50 c 0,37,38
 431 50 431 50 479 74 c 1,39,-1
 496 47 l 1,40,41
 486 40 486 40 461.5 24 c 0,42,43
 417.705128205 -4.60073260073 417.705128205 -4.60073260073 385.852564103 -35.5432234432 c 128,-1,0
 354 -66.4857142857 354 -66.4857142857 354 -112.742857143 c 128,-1,1
374 403 m 1,44,45
 326 432 326 432 276 432 c 128,-1,46
 226 432 226 432 210 416 c 1,47,48
 176 385 176 385 149.5 304.5 c 128,-1,49
 123 224 123 224 123 161 c 0,50,51
 123 58 123 58 169 58 c 0,52,53
 228 58 228 58 295 176 c 128,-1,54
 362 294 362 294 374 403 c 1,44,45
EndSplineSet
EndChar

StartChar: aring
Encoding: 229 229 150
Width: 508
Flags: HMW
HStem: -9 67<153 183.5> 432 56<264 296> 455 20G<483 483> 564 43<310 342.5 310 353.5> 712 43<319.5 351.5>
VStem: 33 90<125.5 202 125.5 235.5> 229 50<637.5 669 637.5 677> 326 77<27 76> 381 51<651.5 681.5>
LayerCount: 2
Fore
SplineSet
344 755 m 0,0,1
 432 755 432 755 432 669 c 0,2,3
 432 626 432 626 401 595 c 128,-1,4
 370 564 370 564 318 564 c 0,5,6
 229 564 229 564 229 645 c 0,7,8
 229 694 229 694 260 724.5 c 128,-1,9
 291 755 291 755 344 755 c 0,0,1
325 607 m 0,10,11
 350 607 350 607 365.5 624.5 c 128,-1,12
 381 642 381 642 381 668 c 0,13,14
 381 712 381 712 337 712 c 0,15,16
 311 712 311 712 295 695 c 128,-1,17
 279 678 279 678 279 652 c 0,18,19
 279 607 279 607 325 607 c 0,10,11
479 74 m 1,20,-1
 496 47 l 1,21,22
 418 -9 418 -9 370 -9 c 0,23,24
 326 -9 326 -9 326 41 c 0,25,26
 326 62 326 62 343 139 c 2,27,-1
 353 185 l 1,28,-1
 345 187 l 1,29,30
 257 -9 257 -9 137 -9 c 0,31,32
 85 -9 85 -9 59 30 c 128,-1,33
 33 69 33 69 33 130 c 0,34,35
 33 286 33 286 112.5 387 c 128,-1,36
 192 488 192 488 307 488 c 0,37,38
 348 488 348 488 402 467 c 1,39,40
 431 474 431 474 467 488 c 1,41,-1
 483 475 l 1,42,43
 465 423 465 423 449 336 c 2,44,-1
 407 104 l 2,45,46
 403 84 403 84 403 67 c 128,-1,47
 403 50 403 50 416 50 c 0,48,49
 431 50 431 50 479 74 c 1,20,-1
374 403 m 1,50,51
 326 432 326 432 276 432 c 128,-1,52
 226 432 226 432 210 416 c 1,53,54
 176 385 176 385 149.5 304.5 c 128,-1,55
 123 224 123 224 123 161 c 0,56,57
 123 58 123 58 169 58 c 0,58,59
 228 58 228 58 295 176 c 128,-1,60
 362 294 362 294 374 403 c 1,50,51
EndSplineSet
EndChar

StartChar: ring
Encoding: 730 730 151
Width: 202
Flags: HMW
HStem: 564 43<158 190.5 158 201.5> 712 43<167.5 199.5>
VStem: 77 50<637.5 669 637.5 677> 229 51<651.5 681.5>
LayerCount: 2
Fore
SplineSet
192 755 m 0,0,1
 280 755 280 755 280 669 c 0,2,3
 280 626 280 626 249 595 c 128,-1,4
 218 564 218 564 166 564 c 0,5,6
 77 564 77 564 77 645 c 0,7,8
 77 694 77 694 108 724.5 c 128,-1,9
 139 755 139 755 192 755 c 0,0,1
173 607 m 0,10,11
 198 607 198 607 213.5 624.5 c 128,-1,12
 229 642 229 642 229 668 c 0,13,14
 229 712 229 712 185 712 c 0,15,16
 159 712 159 712 143 695 c 128,-1,17
 127 678 127 678 127 652 c 0,18,19
 127 607 127 607 173 607 c 0,10,11
EndSplineSet
EndChar

StartChar: atilde
Encoding: 227 227 152
Width: 508
Flags: HMW
HStem: -9 67<153 183.5> 432 56<264 296> 455 20G<483 483> 595 77<417 439> 637 77<257.5 275>
VStem: 33 90<125.5 202 125.5 235.5> 326 77<27 76>
LayerCount: 2
Fore
SplineSet
508 715 m 1,0,-1
 530 702 l 1,1,2
 465 595 465 595 418 595 c 0,3,4
 401 595 401 595 338.5 616 c 128,-1,5
 276 637 276 637 252 637 c 0,6,7
 214 637 214 637 172 595 c 1,8,-1
 152 612 l 1,9,10
 195 668 195 668 222 691 c 128,-1,11
 249 714 249 714 272 714 c 128,-1,13
 295 714 295 714 356 693 c 128,-1,14
 417 672 417 672 441 672 c 128,-1,16
 465 672 465 672 508 715 c 1,0,-1
479 74 m 1,17,-1
 496 47 l 1,18,19
 418 -9 418 -9 370 -9 c 0,20,21
 326 -9 326 -9 326 41 c 0,22,23
 326 62 326 62 343 139 c 2,24,-1
 353 185 l 1,25,-1
 345 187 l 1,26,27
 257 -9 257 -9 137 -9 c 0,28,29
 85 -9 85 -9 59 30 c 128,-1,30
 33 69 33 69 33 130 c 0,31,32
 33 286 33 286 112.5 387 c 128,-1,33
 192 488 192 488 307 488 c 0,34,35
 348 488 348 488 402 467 c 1,36,37
 431 474 431 474 467 488 c 1,38,-1
 483 475 l 1,39,40
 465 423 465 423 449 336 c 2,41,-1
 407 104 l 2,42,43
 403 84 403 84 403 67 c 128,-1,45
 403 50 403 50 416 50 c 0,46,47
 431 50 431 50 479 74 c 1,17,-1
374 403 m 1,48,49
 326 432 326 432 276 432 c 128,-1,51
 226 432 226 432 210 416 c 1,52,53
 176 385 176 385 149.5 304.5 c 128,-1,54
 123 224 123 224 123 161 c 0,55,56
 123 58 123 58 169 58 c 0,57,58
 228 58 228 58 295 176 c 128,-1,59
 362 294 362 294 374 403 c 1,48,49
EndSplineSet
EndChar

StartChar: tilde
Encoding: 732 732 153
Width: 362
Flags: HMW
HStem: 595 77<334 356> 637 77<174.5 192>
VStem: 69 378<612 702>
LayerCount: 2
Fore
SplineSet
425 715 m 1,0,-1
 447 702 l 1,1,2
 382 595 382 595 335 595 c 0,3,4
 318 595 318 595 255.5 616 c 128,-1,5
 193 637 193 637 169 637 c 0,6,7
 131 637 131 637 89 595 c 1,8,-1
 69 612 l 1,9,10
 112 668 112 668 139 691 c 128,-1,11
 166 714 166 714 189 714 c 0,12,13
 212 714 212 714 273 693 c 128,-1,14
 334 672 334 672 358 672 c 0,15,16
 382 672 382 672 425 715 c 1,0,-1
EndSplineSet
EndChar

StartChar: b
Encoding: 98 98 154
Width: 491
Flags: HMW
HStem: -9 56<214 246 214 278.5> 421 67<326.5 357> 762 10<229.5 251>
VStem: 387 90<277 353.5>
LayerCount: 2
Fore
SplineSet
33 -9 m 1,0,-1
 17 4 l 1,1,2
 40 79 40 79 46 107 c 2,3,-1
 154 671 l 2,4,5
 156 681 156 681 156 691.5 c 0,6,7
 156 711.674418605 156 711.674418605 79 726 c 1,8,-1
 84 758 l 1,9,10
 197 772 197 772 242 772 c 1,11,-1
 251 762 l 1,12,13
 249 721 249 721 240 671 c 2,14,-1
 196 451 l 2,15,16
 188 411 188 411 162 314 c 1,17,-1
 157 294 l 1,18,-1
 165 292 l 1,19,20
 253 488 253 488 373 488 c 0,21,22
 425 488 425 488 451 449 c 128,-1,23
 477 410 477 410 477 349 c 0,24,25
 477 193 477 193 397.5 92 c 128,-1,26
 318 -9 318 -9 203 -9 c 0,27,28
 161 -9 161 -9 108 12 c 1,29,30
 76 6 76 6 33 -9 c 1,0,-1
136 76 m 1,31,32
 184 47 184 47 234 47 c 128,-1,33
 284 47 284 47 300 63 c 1,34,35
 334 94 334 94 360.5 174.5 c 128,-1,36
 387 255 387 255 387 318 c 0,37,38
 387 421 387 421 341 421 c 0,39,40
 282 421 282 421 215 303 c 128,-1,41
 148 185 148 185 136 76 c 1,31,32
EndSplineSet
EndChar

StartChar: c
Encoding: 99 99 155
Width: 393
Flags: HMW
HStem: -9 73<176 204> 432 56<254.5 294.5> 457 20G
VStem: 33 92<138 218 138 253.5> 322 71<381.5 477>
LayerCount: 2
Fore
SplineSet
320 349 m 1,0,-1
 322 389 l 2,1,2
 322 406 322 406 319.5 413.5 c 0,3,4
 313.333333333 432 313.333333333 432 269 432 c 0,5,6
 249 432 249 432 226.5 425 c 128,-1,7
 204 418 204 418 195 411 c 1,8,9
 171 383 171 383 148 309 c 128,-1,10
 125 235 125 235 125 176 c 128,-1,11
 125 117 125 117 143.5 90.5 c 128,-1,12
 162 64 162 64 209.5 64 c 128,-1,13
 257 64 257 64 333 117 c 1,14,-1
 357 91 l 1,15,16
 319 50 319 50 268 20.5 c 128,-1,17
 217 -9 217 -9 166 -9 c 128,-1,18
 115 -9 115 -9 74 33.5 c 128,-1,19
 33 76 33 76 33 161 c 0,20,21
 33 299 33 299 109.5 393.5 c 128,-1,22
 186 488 186 488 294 488 c 0,23,24
 351 488 351 488 393 477 c 1,25,26
 393 422 393 422 373 349 c 1,27,-1
 320 349 l 1,0,-1
EndSplineSet
EndChar

StartChar: cacute
Encoding: 263 263 156
Width: 393
Flags: HMW
HStem: -9 73<176 204> 432 56<254.5 294.5> 457 20G
VStem: 33 92<138 218 138 253.5> 322 71<381.5 477>
LayerCount: 2
Fore
SplineSet
462 712 m 1,0,-1
 282 561 l 1,1,-1
 248 586 l 1,2,-1
 388 765 l 1,3,-1
 466 735 l 1,4,-1
 462 712 l 1,0,-1
320 349 m 1,5,-1
 322 389 l 2,6,7
 322 406 322 406 319.5 413.5 c 0,8,9
 313.333333333 432 313.333333333 432 269 432 c 0,10,11
 249 432 249 432 226.5 425 c 128,-1,12
 204 418 204 418 195 411 c 1,13,14
 171 383 171 383 148 309 c 128,-1,15
 125 235 125 235 125 176 c 128,-1,16
 125 117 125 117 143.5 90.5 c 128,-1,17
 162 64 162 64 209.5 64 c 128,-1,18
 257 64 257 64 333 117 c 1,19,-1
 357 91 l 1,20,21
 319 50 319 50 268 20.5 c 128,-1,22
 217 -9 217 -9 166 -9 c 128,-1,23
 115 -9 115 -9 74 33.5 c 128,-1,24
 33 76 33 76 33 161 c 0,25,26
 33 299 33 299 109.5 393.5 c 128,-1,27
 186 488 186 488 294 488 c 0,28,29
 351 488 351 488 393 477 c 1,30,31
 393 422 393 422 373 349 c 1,32,-1
 320 349 l 1,5,-1
EndSplineSet
EndChar

StartChar: ccaron
Encoding: 269 269 157
Width: 393
Flags: HMW
HStem: -9 73<176 204> 432 56<254.5 294.5> 457 20G
VStem: 33 92<138 218 138 253.5> 322 71<381.5 477>
LayerCount: 2
Fore
SplineSet
318 566 m 1,0,-1
 255 566 l 1,1,-1
 158 735 l 1,2,-1
 198 760 l 1,3,-1
 291 642 l 1,4,-1
 427 760 l 1,5,-1
 457 735 l 1,6,-1
 318 566 l 1,0,-1
320 349 m 1,7,-1
 322 389 l 2,8,9
 322 406 322 406 319.5 413.5 c 0,10,11
 313.333333333 432 313.333333333 432 269 432 c 0,12,13
 249 432 249 432 226.5 425 c 128,-1,14
 204 418 204 418 195 411 c 1,15,16
 171 383 171 383 148 309 c 128,-1,17
 125 235 125 235 125 176 c 128,-1,18
 125 117 125 117 143.5 90.5 c 128,-1,19
 162 64 162 64 209.5 64 c 128,-1,20
 257 64 257 64 333 117 c 1,21,-1
 357 91 l 1,22,23
 319 50 319 50 268 20.5 c 128,-1,24
 217 -9 217 -9 166 -9 c 128,-1,25
 115 -9 115 -9 74 33.5 c 128,-1,26
 33 76 33 76 33 161 c 0,27,28
 33 299 33 299 109.5 393.5 c 128,-1,29
 186 488 186 488 294 488 c 0,30,31
 351 488 351 488 393 477 c 1,32,33
 393 422 393 422 373 349 c 1,34,-1
 320 349 l 1,7,-1
EndSplineSet
EndChar

StartChar: caron
Encoding: 711 711 158
Width: 299
Flags: HMW
HStem: 566 194<131 251 131 188>
VStem: 91 299<735 735>
LayerCount: 2
Fore
SplineSet
251 566 m 1,0,-1
 188 566 l 1,1,-1
 91 735 l 1,2,-1
 131 760 l 1,3,-1
 224 642 l 1,4,-1
 360 760 l 1,5,-1
 390 735 l 1,6,-1
 251 566 l 1,0,-1
EndSplineSet
EndChar

StartChar: ccedilla
Encoding: 231 231 159
Width: 393
Flags: HMW
HStem: -217 31<88 90> -90 45<149.5 232> -6 21G<146 146> 432 56<254.5 294.5> 457 20G
VStem: 33 92<138 218 138 253.5> 196 86<-127.5 -113.5> 322 71<381.5 477>
LayerCount: 2
Fore
SplineSet
320 349 m 1,0,-1
 322 389 l 2,1,2
 322 406 322 406 319.5 413.5 c 0,3,4
 313.333333333 432 313.333333333 432 269 432 c 0,5,6
 249 432 249 432 226.5 425 c 128,-1,7
 204 418 204 418 195 411 c 1,8,9
 171 383 171 383 148 309 c 128,-1,10
 125 235 125 235 125 176 c 128,-1,11
 125 117 125 117 143.5 90.5 c 128,-1,12
 162 64 162 64 209.5 64 c 128,-1,13
 257 64 257 64 333 117 c 1,14,-1
 357 91 l 1,15,16
 280 10 280 10 199 -5 c 1,17,-1
 180 -47 l 1,18,19
 190 -45 190 -45 217 -45 c 128,-1,20
 244 -45 244 -45 263 -59.5 c 128,-1,21
 282 -74 282 -74 282 -99 c 0,22,23
 282 -144 282 -144 229 -178.5 c 128,-1,24
 176 -213 176 -213 88 -217 c 1,25,-1
 90 -186 l 1,26,27
 196 -171 196 -171 196 -122 c 0,28,29
 196 -90 196 -90 156 -90 c 0,30,31
 135 -90 135 -90 113 -100 c 1,32,-1
 107 -89 l 1,33,-1
 146 -6 l 1,34,35
 98 2 98 2 65.5 44 c 128,-1,36
 33 86 33 86 33 161 c 0,37,38
 33 299 33 299 109.5 393.5 c 128,-1,39
 186 488 186 488 294 488 c 0,40,41
 351 488 351 488 393 477 c 1,42,43
 393 422 393 422 373 349 c 1,44,-1
 320 349 l 1,0,-1
EndSplineSet
EndChar

StartChar: ccircumflex
Encoding: 265 265 160
Width: 393
Flags: HMW
HStem: -9 73<176 204> 432 56<254.5 294.5> 457 20G
VStem: 33 92<138 218 138 253.5> 322 71<381.5 477>
LayerCount: 2
Fore
SplineSet
435 586 m 1,0,-1
 395 561 l 1,1,-1
 302 679 l 1,2,-1
 166 561 l 1,3,-1
 136 586 l 1,4,-1
 280 755 l 1,5,-1
 343 755 l 1,6,-1
 435 586 l 1,0,-1
320 349 m 1,7,-1
 322 389 l 2,8,9
 322 406 322 406 319.5 413.5 c 0,10,11
 313.333333333 432 313.333333333 432 269 432 c 0,12,13
 249 432 249 432 226.5 425 c 128,-1,14
 204 418 204 418 195 411 c 1,15,16
 171 383 171 383 148 309 c 128,-1,17
 125 235 125 235 125 176 c 128,-1,18
 125 117 125 117 143.5 90.5 c 128,-1,19
 162 64 162 64 209.5 64 c 128,-1,20
 257 64 257 64 333 117 c 1,21,-1
 357 91 l 1,22,23
 319 50 319 50 268 20.5 c 128,-1,24
 217 -9 217 -9 166 -9 c 128,-1,25
 115 -9 115 -9 74 33.5 c 128,-1,26
 33 76 33 76 33 161 c 0,27,28
 33 299 33 299 109.5 393.5 c 128,-1,29
 186 488 186 488 294 488 c 0,30,31
 351 488 351 488 393 477 c 1,32,33
 393 422 393 422 373 349 c 1,34,-1
 320 349 l 1,7,-1
EndSplineSet
EndChar

StartChar: cdotaccent
Encoding: 267 267 161
Width: 393
Flags: HMW
HStem: -9 73<176 204> 432 56<254.5 294.5> 457 20G 614 111<291.5 323 290 324.5>
VStem: 33 92<138 218 138 253.5> 253 112<655 684.5> 322 71<381.5 477>
LayerCount: 2
Fore
SplineSet
349 711.5 m 128,-1,1
 365 698 365 698 365 672.5 c 128,-1,2
 365 647 365 647 349 630.5 c 128,-1,3
 333 614 333 614 307 614 c 0,4,5
 253 614 253 614 253 670 c 0,6,7
 253 693 253 693 267.5 709 c 128,-1,8
 282 725 282 725 307.5 725 c 128,-1,0
 333 725 333 725 349 711.5 c 128,-1,1
320 349 m 1,9,-1
 322 389 l 2,10,11
 322 406 322 406 319.5 413.5 c 0,12,13
 313.333333333 432 313.333333333 432 269 432 c 0,14,15
 249 432 249 432 226.5 425 c 128,-1,16
 204 418 204 418 195 411 c 1,17,18
 171 383 171 383 148 309 c 128,-1,19
 125 235 125 235 125 176 c 128,-1,20
 125 117 125 117 143.5 90.5 c 128,-1,21
 162 64 162 64 209.5 64 c 128,-1,22
 257 64 257 64 333 117 c 1,23,-1
 357 91 l 1,24,25
 319 50 319 50 268 20.5 c 128,-1,26
 217 -9 217 -9 166 -9 c 128,-1,27
 115 -9 115 -9 74 33.5 c 128,-1,28
 33 76 33 76 33 161 c 0,29,30
 33 299 33 299 109.5 393.5 c 128,-1,31
 186 488 186 488 294 488 c 0,32,33
 351 488 351 488 393 477 c 1,34,35
 393 422 393 422 373 349 c 1,36,-1
 320 349 l 1,9,-1
EndSplineSet
EndChar

StartChar: dotaccent
Encoding: 729 729 162
Width: 114
Flags: HMW
HStem: 614 111<118.5 150 117 151.5>
VStem: 80 112<655 684.5>
LayerCount: 2
Fore
SplineSet
176 711.5 m 128,-1,1
 192 698 192 698 192 672.5 c 128,-1,2
 192 647 192 647 176 630.5 c 128,-1,3
 160 614 160 614 134 614 c 0,4,5
 80 614 80 614 80 670 c 0,6,7
 80 693 80 693 94.5 709 c 128,-1,8
 109 725 109 725 134.5 725 c 128,-1,0
 160 725 160 725 176 711.5 c 128,-1,1
EndSplineSet
EndChar

